<svg width="24" height="24" viewBox="0 0 24 24" fill="none" xmlns="http://www.w3.org/2000/svg">
<rect width="24" height="24" rx="4" fill="#2661E8"/>
<path fill-rule="evenodd" clip-rule="evenodd" d="M11.4665 15.2894C10.8742 15.2004 10.3196 14.9566 9.87596 14.5715C9.85646 14.5543 9.83695 14.536 9.81846 14.5186L9.81845 14.5186L9.81502 14.5154C9.77358 14.4776 9.73458 14.4386 9.69558 14.3984C9.65658 14.3582 9.62001 14.3167 9.58345 14.2753L9.58344 14.2753L9.56481 14.2535C9.53542 14.2193 9.50578 14.1847 9.47863 14.1485C9.06544 13.6183 8.83996 12.9711 8.83996 12.2862C8.83996 11.5817 9.07763 10.915 9.51397 10.3763C9.51824 10.3708 9.5225 10.3656 9.52677 10.3604L9.52677 10.3604C9.53104 10.3552 9.5353 10.3501 9.53957 10.3446C9.59929 10.2727 9.66145 10.2032 9.72848 10.1374C9.86499 10.0009 10.0125 9.88143 10.1685 9.77539L10.1685 9.77539C10.2136 9.74492 10.2587 9.71445 10.305 9.68764C10.3141 9.68215 10.3236 9.67667 10.333 9.67118L10.333 9.67118L10.333 9.67118C10.3425 9.6657 10.3519 9.66021 10.3611 9.65473C10.6999 9.46459 11.0753 9.33662 11.4677 9.27689C11.7298 9.23789 11.9602 9.09895 12.1174 8.88565C12.2746 8.67236 12.3404 8.41031 12.3002 8.14826C12.26 7.88622 12.121 7.65464 11.909 7.49741C11.7091 7.34993 11.4677 7.28534 11.2228 7.30971V7.30849L11.2008 7.31215C11.1959 7.31276 11.1911 7.31306 11.1862 7.31337C11.1813 7.31367 11.1764 7.31398 11.1716 7.31459C11.0838 7.32799 10.9973 7.34384 10.9107 7.3609C9.9369 7.5486 9.03985 8.01785 8.3244 8.7333C6.36941 10.6883 6.36575 13.8682 8.31465 15.8269L8.32562 15.8378L8.32684 15.839L8.32806 15.8403C9.11907 16.6301 10.1283 17.1212 11.2215 17.2626V17.2565C11.4665 17.2809 11.7091 17.2163 11.9077 17.0688C12.121 16.9116 12.26 16.68 12.299 16.418C12.338 16.1559 12.2734 15.8939 12.1162 15.6806C11.9589 15.4673 11.7286 15.3284 11.4665 15.2894ZM14.6306 10.3726C15.4277 10.3726 16.0761 9.74249 16.0761 8.96854C16.0761 8.17142 15.4277 7.52301 14.6306 7.52301C13.8566 7.52301 13.2265 8.17142 13.2265 8.96854C13.2265 9.74249 13.8566 10.3726 14.6306 10.3726ZM14.5087 13.3514C15.5118 13.3514 15.8811 13.9023 16.014 14.3643C16.2931 15.3345 15.73 17.0189 14.5843 17.7355L14.3649 17.8733V16.1535C13.6519 16.0804 13.1034 15.4807 13.1034 14.7555C13.1034 13.9816 13.7348 13.3514 14.5087 13.3514Z" fill="white"/>
</svg>
