<svg width="40" height="40" viewBox="0 0 40 40" fill="none" xmlns="http://www.w3.org/2000/svg">
<rect width="40" height="40" rx="6" fill="#2661E8"/>
<path fill-rule="evenodd" clip-rule="evenodd" d="M19.4483 24.8126C18.5328 24.6751 17.6758 24.2984 16.9901 23.7031C16.96 23.6766 16.93 23.6484 16.9014 23.6216L16.9013 23.6215L16.8959 23.6165C16.8319 23.5581 16.7716 23.4978 16.7114 23.4357C16.6511 23.3735 16.5946 23.3094 16.5381 23.2454L16.5092 23.2118L16.5092 23.2117C16.4638 23.1588 16.418 23.1054 16.3761 23.0495C15.7375 22.2301 15.389 21.2299 15.389 20.1713C15.389 19.0826 15.7563 18.0522 16.4307 17.2197C16.4373 17.2112 16.4439 17.2032 16.4505 17.1952C16.4571 17.1872 16.4637 17.1792 16.4702 17.1707C16.5625 17.0595 16.6586 16.9522 16.7622 16.8505C16.9732 16.6395 17.2011 16.4549 17.4422 16.291L17.4422 16.291C17.5119 16.2439 17.5816 16.1968 17.6532 16.1554C17.6673 16.1469 17.6819 16.1384 17.6965 16.13C17.7111 16.1215 17.7257 16.113 17.7398 16.1045C18.2635 15.8107 18.8436 15.6129 19.4502 15.5206C19.8551 15.4603 20.2111 15.2456 20.4541 14.916C20.6971 14.5863 20.7988 14.1813 20.7367 13.7764C20.6745 13.3714 20.4598 13.0135 20.132 12.7705C19.8231 12.5426 19.4502 12.4427 19.0715 12.4804V12.4785L19.0376 12.4842C19.0301 12.4851 19.0226 12.4856 19.015 12.4861C19.0075 12.4865 19 12.487 18.9924 12.488C18.8568 12.5087 18.7231 12.5332 18.5893 12.5595C17.0843 12.8496 15.698 13.5748 14.5923 14.6805C11.5709 17.7019 11.5653 22.6163 14.5772 25.6433L14.5941 25.6602L14.596 25.6621L14.5979 25.664C15.8204 26.8846 17.38 27.6437 19.0697 27.8622V27.8528C19.4483 27.8905 19.8231 27.7906 20.1302 27.5627C20.4598 27.3197 20.6745 26.9618 20.7348 26.5568C20.7951 26.1519 20.6952 25.7469 20.4523 25.4172C20.2093 25.0876 19.8533 24.8729 19.4483 24.8126ZM24.3382 17.214C25.5701 17.214 26.5722 16.2402 26.5722 15.0441C26.5722 13.8122 25.5701 12.8101 24.3382 12.8101C23.1421 12.8101 22.1683 13.8122 22.1683 15.0441C22.1683 16.2402 23.1421 17.214 24.3382 17.214ZM24.1498 21.8176C25.7001 21.8176 26.2708 22.669 26.4761 23.3829C26.9075 24.8823 26.0372 27.4855 24.2666 28.5931L23.9276 28.8059V26.1481C22.8256 26.0351 21.978 25.1083 21.978 23.9876C21.978 22.7915 22.9537 21.8176 24.1498 21.8176Z" fill="white"/>
</svg>
