<svg width="20" height="20" viewBox="0 0 20 20" fill="none" xmlns="http://www.w3.org/2000/svg">
<rect width="20" height="20" rx="4" fill="#2661E8"/>
<path fill-rule="evenodd" clip-rule="evenodd" d="M9.55544 12.7418C9.06182 12.6676 8.59968 12.4645 8.22997 12.1435C8.21372 12.1292 8.19747 12.114 8.18207 12.0995L8.17918 12.0968C8.14465 12.0653 8.11215 12.0328 8.07965 11.9993C8.04714 11.9658 8.01667 11.9313 7.9862 11.8967L7.97068 11.8786C7.94618 11.85 7.92148 11.8213 7.89885 11.7911C7.55454 11.3493 7.36663 10.8099 7.36663 10.2391C7.36663 9.65206 7.56469 9.09648 7.92831 8.64755C7.93186 8.64297 7.93542 8.63866 7.93897 8.63434C7.94253 8.63002 7.94608 8.62571 7.94964 8.62114C7.99941 8.56121 8.05121 8.50332 8.10707 8.44847C8.22083 8.33471 8.34373 8.23518 8.47373 8.14681L8.47374 8.14681C8.51132 8.12142 8.5489 8.09603 8.58749 8.07368L8.61085 8.05997L8.63421 8.04626C8.91657 7.88781 9.2294 7.78116 9.55645 7.7314C9.77483 7.69889 9.96679 7.58311 10.0978 7.40536C10.2288 7.22762 10.2837 7.00924 10.2502 6.79087C10.2167 6.5725 10.1009 6.37952 9.92413 6.24849C9.75756 6.1256 9.55645 6.07176 9.3523 6.09208V6.09106L9.33402 6.09411C9.32996 6.09462 9.32589 6.09487 9.32183 6.09513C9.31777 6.09538 9.31371 6.09563 9.30964 6.09614C9.23651 6.10731 9.1644 6.12052 9.09229 6.13474C8.28075 6.29115 7.53321 6.68219 6.937 7.2784C5.30784 8.90756 5.30479 11.5575 6.92887 13.1897L6.93802 13.1988L6.93903 13.1999L6.94005 13.2009C7.59923 13.859 8.44022 14.2684 9.35129 14.3862V14.3811C9.55544 14.4014 9.75756 14.3476 9.92312 14.2247C10.1009 14.0937 10.2167 13.9007 10.2492 13.6823C10.2817 13.4639 10.2278 13.2456 10.0968 13.0678C9.96578 12.8901 9.77381 12.7743 9.55544 12.7418ZM12.1922 8.6445C12.8564 8.6445 13.3968 8.11939 13.3968 7.47443C13.3968 6.81017 12.8564 6.26983 12.1922 6.26983C11.5472 6.26983 11.0221 6.81017 11.0221 7.47443C11.0221 8.11939 11.5472 8.6445 12.1922 8.6445ZM12.0906 11.1268C12.9265 11.1268 13.2343 11.5859 13.345 11.9709C13.5776 12.7794 13.1083 14.183 12.1536 14.7803L11.9707 14.895V13.4619C11.3766 13.401 10.9195 12.9012 10.9195 12.2969C10.9195 11.6519 11.4456 11.1268 12.0906 11.1268Z" fill="white"/>
</svg>
