<svg width="274" height="160" viewBox="0 0 274 160" fill="none" xmlns="http://www.w3.org/2000/svg">
<g clip-path="url(#clip0_39850_15039)">
<rect width="274" height="160" rx="6" fill="#87B4F1"/>
<path d="M0 138H281V162H0V138Z" fill="#D9D9D9"/>
<path d="M80.341 70.5129C72.8173 71.4187 71.8906 66.4814 69.1523 59.4604C66.414 52.4393 66.8957 45.8476 65.037 35.0516C62.8642 22.4859 78.1263 22.2032 81.2677 39.8213C81.3986 40.5333 81.54 41.3606 81.6918 42.2664C82.1368 44.8161 82.697 48.0256 83.5033 51.2089C83.7075 52.01 83.9274 52.811 84.1578 53.6016C85.6762 58.675 87.8804 69.6019 80.341 70.5129Z" fill="#B25E47"/>
<path d="M83.5244 51.2062C73.3986 54.3476 71.8959 46.0648 72.0059 42.6773L81.7024 42.2637C82.1579 44.7977 82.7181 48.0072 83.5244 51.2062Z" fill="#914839"/>
<path d="M119.938 103.595C119.545 103.969 119.129 104.319 118.692 104.642C118.362 104.903 117.964 105.202 117.504 105.511L117.111 105.778L116.661 106.066C116.027 106.464 115.31 106.883 114.504 107.291C114.127 107.485 113.729 107.684 113.31 107.867C113.095 107.966 112.875 108.066 112.645 108.16L111.959 108.443C111.744 108.527 111.53 108.61 111.305 108.689C111.08 108.767 110.781 108.888 110.477 108.982C110.174 109.076 109.954 109.155 109.692 109.233C109.43 109.312 109.169 109.396 108.881 109.469L108.148 109.663L107.949 109.71L107.195 109.877C106.593 110.014 105.975 110.123 105.331 110.218C105.069 110.265 104.807 110.302 104.53 110.333C104.43 110.333 104.331 110.359 104.226 110.364C103.949 110.401 103.671 110.427 103.388 110.453V110.506C103.535 111.951 105.127 129.688 105.535 136.876L105.572 137.515C105.572 137.662 105.572 137.793 105.572 137.908C85.4561 137.384 65.4138 138.259 46.1046 138.311C45.7067 131.117 44.9894 126.37 44.293 112.825C43.3244 93.8457 42.4029 74.4004 42.5077 70.6202V70.5626C42.7276 63.285 41.7066 57.8346 47.9214 55.4314C50.0889 54.5937 53.1571 54.1225 57.4294 54.0806H58.2514H59.1572H60.1101C60.4347 54.0806 60.7384 54.0806 61.0316 54.0492H61.6755L62.2881 54.0178H62.8117L63.6599 53.9707L64.2567 53.9288C64.5709 53.9288 64.8536 53.8869 65.1154 53.866H65.2777L65.5761 53.8398L66.0002 53.7926H66.1468C66.4348 53.756 66.6704 53.7194 66.8432 53.6879C67.0159 53.6565 67.0945 53.6408 67.1887 53.6199C67.29 53.6008 67.3885 53.5692 67.4819 53.5256C68.8537 57.3163 72.6757 64.2483 79.0842 63.374C85.4927 62.4996 84.9534 55.3581 83.6812 52.2324L83.8016 52.3371L83.9848 52.4837L84.388 52.7769C84.4456 52.8188 84.5084 52.8659 84.5765 52.9078L84.7911 53.0492L85.0006 53.1801L85.2885 53.3529C85.5346 53.489 85.8121 53.6199 86.0686 53.7351L86.3409 53.845C86.5241 53.9078 86.7074 53.955 86.8645 53.9968C87.0592 54.036 87.2575 54.0553 87.4561 54.0544C87.5188 54.0601 87.5819 54.0601 87.6446 54.0544C87.7127 54.0544 87.7755 54.0544 87.8383 54.023C88.8383 53.7717 91.6499 53.2795 95.4981 54.7874C97.9537 55.756 100.833 57.5414 103.938 60.7352C105.948 62.9379 107.65 65.4038 108.996 68.0652C114.53 78.2486 118.64 93.7567 119.938 103.595Z" fill="#C3DCF8"/>
<path d="M109.033 67.9778C105.667 67.4985 102.238 68.1465 99.279 69.8208C96.9544 71.2326 95.125 73.3308 94.0433 75.8261C88.64 87.7426 74.4827 92.2191 65.0218 79.0304C63.7069 77.1623 62.184 75.4497 60.4825 73.9256C55.3986 69.4647 49.4875 68.2344 42.4717 70.6742V70.6166C42.6916 63.339 41.6706 57.8886 47.8854 55.4854C50.053 54.6477 53.1211 54.1765 57.3934 54.1346C66.4512 54.0404 67.4617 53.4592 67.4617 53.4592C68.8334 57.2499 72.6555 64.1819 79.064 63.3076C85.4724 62.4332 84.9332 55.2917 83.6609 52.166C83.8023 52.2864 86.2787 54.3441 87.8495 53.9514C88.8495 53.7001 91.661 53.2079 95.5093 54.7158C97.9648 55.6844 100.844 57.4698 103.949 60.6635C105.968 62.8598 107.678 65.3205 109.033 67.9778Z" fill="#D0E5F7"/>
<path d="M117.802 137.783C113.582 137.647 109.778 138.074 105.562 137.965V137.573L105.525 136.934L103.378 109.495V109.443L118.216 99.3379C118.415 100.657 118.583 102.092 118.74 103.61C120.08 119.129 118.032 134.432 117.802 137.783Z" fill="#B25E47"/>
<path d="M119.939 103.597C119.939 103.597 114.017 109.571 103.357 110.498C102.771 93.3091 101.121 79.7015 99.2889 69.8218C98.0271 62.9892 96.6711 57.9315 95.5454 54.7168C98.001 55.6854 100.881 57.4708 103.985 60.6645C105.996 62.8673 107.697 65.3332 109.043 67.9945C114.53 78.2512 118.64 93.7594 119.939 103.597Z" fill="#FED81D"/>
<path d="M109.033 67.9788C105.667 67.4995 102.237 68.1475 99.2787 69.8218C98.0169 62.9892 96.6608 57.9315 95.5352 54.7168C97.9907 55.6854 100.87 57.4708 103.975 60.6645C105.984 62.8624 107.686 65.323 109.033 67.9788Z" fill="#FFE05C"/>
<path d="M103.347 110.498C102.761 93.3096 101.111 79.702 99.2788 69.8223" stroke="#F7AD2B" stroke-width="0.68" stroke-linecap="round" stroke-linejoin="round"/>
<path d="M67.1575 51.5748C64.0161 52.8104 64.0161 54.1926 64.0161 55.6953C64.0161 57.1979 66.8329 65.397 72.3409 71.2191C73.4142 72.3552 75.0111 65.3446 76.587 64.9363C78.163 64.5279 79.5766 65.2504 80.3096 65.1457C81.0426 65.041 82.985 63.1142 84.2468 63.9886C85.5086 64.863 88.1788 69.2243 88.7024 69.3395C89.226 69.4547 89.2783 59.0095 88.0741 55.3392C87.7583 54.3021 87.166 53.3705 86.3607 52.6445C85.5554 51.9186 84.5676 51.4257 83.5034 51.2188C83.5034 51.2188 84.3725 58.8 81.8332 61.0514C76.5556 65.7426 71.1262 59.8315 67.1575 51.5748Z" fill="white"/>
<path d="M65.6654 30.8063C63.8277 30.1256 61.0109 31.8534 61.3931 34.7173C61.7753 37.5813 66.011 38.5185 68.1053 36.8587C67.0564 34.9444 66.2374 32.9128 65.6654 30.8063Z" fill="#B25E47"/>
<path d="M62.8385 34.9045C62.6814 33.6741 64.1684 31.7317 66.5035 33.5746" stroke="#934735" stroke-width="0.68" stroke-linecap="round" stroke-linejoin="round"/>
<path d="M65.561 35.7101C63.1264 35.6473 63.8437 33.0242 66.0427 33.2546" stroke="#934735" stroke-width="0.68" stroke-linecap="round" stroke-linejoin="round"/>
<path d="M84.6975 33.7367L83.3781 34.1189L70.4511 37.8571C70.4511 37.8571 70.1056 37.5221 69.582 36.9409C67.8745 35.0613 66.5148 32.8932 65.5662 30.5376C65.2816 29.7769 65.0832 28.9866 64.9746 28.1816C64.3358 23.171 69.5454 13.7834 78.2157 18.1186C81.0168 20.7888 82.6084 25.5323 83.0168 26.925L83.1529 27.3962C83.6503 29.2549 84.6975 33.7367 84.6975 33.7367Z" fill="#B25E47"/>
<path d="M75.4351 31.9623C75.4351 33.2996 74.9039 34.582 73.9584 35.5276C73.0128 36.4731 71.7304 37.0043 70.3932 37.0043C70.1145 37.0048 69.8362 36.9838 69.5607 36.9415C67.8532 35.0619 66.4935 32.8938 65.5449 30.5382C65.8869 29.3729 66.6376 28.3699 67.6593 27.7133C68.681 27.0567 69.9052 26.7906 71.1073 26.9636C72.3094 27.1367 73.4087 27.7375 74.2037 28.6557C74.9987 29.5738 75.4359 30.7479 75.4351 31.9623Z" fill="#A0503D"/>
<path d="M84.6974 33.7382L83.378 34.1204C82.8307 33.7552 82.3783 33.2647 82.0583 32.6898C81.7383 32.1148 81.56 31.4719 81.538 30.8143C81.516 30.1567 81.651 29.5033 81.9318 28.9083C82.2126 28.3132 82.6312 27.7936 83.1528 27.3926C83.6502 29.2565 84.6974 33.7382 84.6974 33.7382Z" fill="#A0503D"/>
<path d="M75.2256 26.9091C75.2246 27.0421 75.2631 27.1724 75.3364 27.2834C75.4096 27.3944 75.5142 27.4811 75.6369 27.5325C75.7596 27.5838 75.8947 27.5976 76.0252 27.5719C76.1557 27.5462 76.2756 27.4822 76.3696 27.3882C76.4637 27.2942 76.5276 27.1743 76.5533 27.0438C76.579 26.9133 76.5653 26.7781 76.5139 26.6554C76.4625 26.5328 76.3758 26.4282 76.2648 26.3549C76.1538 26.2817 76.0235 26.2431 75.8905 26.2442C75.8032 26.2442 75.7167 26.2614 75.6361 26.2948C75.5554 26.3282 75.4821 26.3772 75.4204 26.4389C75.3586 26.5007 75.3096 26.574 75.2762 26.6546C75.2428 26.7353 75.2256 26.8218 75.2256 26.9091Z" fill="#683F1D"/>
<path d="M80.0532 26.2444C80.0532 26.3772 80.0927 26.507 80.1666 26.6173C80.2404 26.7276 80.3454 26.8135 80.4682 26.8641C80.5909 26.9146 80.726 26.9276 80.8561 26.9013C80.9862 26.875 81.1056 26.8107 81.1991 26.7164C81.2927 26.6222 81.3561 26.5023 81.3813 26.3719C81.4066 26.2416 81.3926 26.1067 81.3411 25.9843C81.2895 25.8619 81.2028 25.7576 81.0919 25.6846C80.981 25.6116 80.8509 25.5732 80.7182 25.5742C80.6304 25.5742 80.5435 25.5916 80.4625 25.6254C80.3815 25.6591 80.3079 25.7085 80.2461 25.7708C80.1843 25.8331 80.1355 25.9071 80.1023 25.9883C80.0692 26.0696 80.0526 26.1566 80.0532 26.2444Z" fill="#683F1D"/>
<path d="M85.7909 41.8315C82.9688 49.0672 75.9425 46.9677 72.8064 44.9363C69.6702 42.9048 68.0942 37.6901 65.8743 34.1246C62.9685 29.4805 63.0627 24.9202 64.6073 21.5589C65.5745 19.284 67.3936 17.478 69.6754 16.5274C74.5865 14.7315 78.2201 18.0981 78.2201 18.0981C78.1206 21.2395 72.1153 20.4018 70.9791 20.0615C68.178 19.2395 67.0419 22.2343 66.712 24.6008C66.3246 27.3496 66.7434 30.2083 68.2461 32.3078C69.7487 34.4073 70.8639 34.9256 71.6807 33.8785C72.4975 32.8313 74.0525 31.6428 78.0211 31.0041C81.9898 30.3653 83.8118 32.2607 83.8118 32.2607C83.8118 31.5486 83.0579 27.203 83.016 26.9359C84.4557 29.4821 85.4991 32.2327 86.1103 35.0932C86.5448 37.3393 86.6024 39.732 85.7909 41.8315Z" fill="#FFEACC"/>
<path d="M85.7909 41.8312C82.9689 49.0669 75.9425 46.9674 72.8064 44.936C69.6702 42.9045 68.0942 37.6898 65.8743 34.1243C62.9685 29.4802 63.0627 24.9199 64.6073 21.5586C64.5026 30.5064 70.7278 40.4071 74.5551 42.2291C78.1468 43.9464 84.6181 43.3757 86.0998 35.0981C86.5448 37.339 86.6024 39.7317 85.7909 41.8312Z" fill="#EDD6B7"/>
<path d="M75.8911 33.0938C77.4987 33.1912 79.1108 33.1912 80.7184 33.0938C80.7184 33.0938 80.0744 35.2247 78.1006 35.0414C77.5667 35.0133 77.0579 34.8057 76.6569 34.4521C76.2558 34.0986 75.986 33.6199 75.8911 33.0938Z" fill="white" stroke="#934735" stroke-width="0.68" stroke-linecap="round" stroke-linejoin="round"/>
<path d="M75.2208 22.0515C75.5454 23.3343 72.315 25.6013 71.5087 24.6694C70.7024 23.7374 74.7287 20.1248 75.2208 22.0515Z" fill="#FFEACC"/>
<path d="M78.1215 21.4896C78.022 22.4111 81.9069 23.186 81.9593 22.4896C82.0116 21.7933 78.3048 19.8246 78.1215 21.4896Z" fill="#FFEACC"/>
<path d="M77.4669 23.0078C77.0899 24.3324 76.849 26.055 78.1213 26.6728C79.3936 27.2906 81.1161 27.0498 81.2889 29.5734" stroke="#934735" stroke-width="0.68" stroke-linecap="round" stroke-linejoin="round"/>
<path d="M30.9319 109.359C30.2042 117.637 30.1832 134.962 38.7855 139.36C52.9585 146.601 55.9585 127.878 55.3355 109.359H30.9319Z" fill="#B25E47"/>
<path d="M60.6236 80.4023C60.3566 91.3501 55.634 112.398 55.634 112.398C51.2413 112.759 47.4873 112.921 44.2778 112.921C30.7592 112.921 27 110.261 27 110.261C27 110.261 29.7383 89.1616 33.6074 75.3289C33.9949 73.931 34.398 72.6064 34.8064 71.3864C38.3719 60.8156 42.8746 56.4281 47.8957 55.5275C49.218 55.2995 50.5683 55.2836 51.8957 55.4804C57.456 56.2343 59.9011 64.9046 60.4927 73.9676C60.6393 76.0881 60.676 78.2766 60.6236 80.4023Z" fill="#FED81D"/>
<path d="M60.5033 73.9266C55.4194 69.4658 49.5083 68.2354 42.4925 70.6753C39.3377 71.8193 36.3456 73.37 33.5918 75.2879C33.9792 73.89 34.3824 72.5653 34.7908 71.3454C38.3563 60.7746 42.859 56.387 47.88 55.4865C49.2024 55.2585 50.5527 55.2425 51.8801 55.4394C57.4666 56.1933 59.9116 64.8532 60.5033 73.9266Z" fill="#FFE05C"/>
<path d="M60.6234 80.4023C60.3564 91.3502 55.6338 112.398 55.6338 112.398" stroke="#F7AD2B" stroke-width="0.68" stroke-linecap="round" stroke-linejoin="round"/>
<path d="M110.902 91.4005C110.902 91.4005 112.472 92.5524 110.802 95.7042C110.802 95.7042 112.546 97.3116 110.21 100.008C110.528 100.631 110.613 101.346 110.45 102.026C110.287 102.705 109.886 103.305 109.32 103.715C106.961 105.779 104.456 107.669 101.823 109.369C100.598 110.123 98.9118 111.228 96.252 113.113C95.2049 113.856 93.9902 114.726 92.5871 115.731C89.4456 118.019 85.3513 121.061 79.9586 125.155C58.0995 141.731 45.047 144.004 37.4552 138.543C31.4237 134.208 39.0259 114.657 62.309 106.835C74.2935 102.804 81.6497 100.694 86.1524 99.4268C87.9797 98.9032 89.3409 98.5367 90.341 98.2331C91.6708 97.8247 92.3881 97.542 92.7808 97.2121C94.184 96.0079 94.8332 94.5943 95.5138 92.8979C96.1945 91.2015 97.7966 84.8454 98.1945 83.1072C98.5924 81.3689 101.603 80.3637 101.1 90.1911C101.1 90.1911 109.713 87.3847 111.273 86.9816C112.834 86.5784 113.451 89.9973 110.902 91.4005Z" fill="#B25E47"/>
<path d="M96.2528 113.109C95.2056 113.852 93.9909 114.722 92.5878 115.727C90.6191 113.386 86.4306 107.486 86.1636 99.4281C87.9908 98.9045 89.3521 98.538 90.3521 98.2344C90.6192 102.303 93.0066 109.444 96.2528 113.109Z" fill="#683F1D"/>
<path d="M89.7237 110.497C91.9126 110.497 93.6871 108.723 93.6871 106.534C93.6871 104.345 91.9126 102.57 89.7237 102.57C87.5347 102.57 85.7603 104.345 85.7603 106.534C85.7603 108.723 87.5347 110.497 89.7237 110.497Z" fill="white" stroke="#683F1D" stroke-width="0.9" stroke-linecap="round" stroke-linejoin="round"/>
<path d="M95.5352 92.8999C96.2106 91.1983 97.8179 84.8474 98.2158 83.1091C98.6137 81.3709 101.624 80.3656 101.122 90.193C101.122 90.193 109.734 87.3867 111.295 86.9835C112.855 86.5804 113.452 89.994 110.902 91.3972C110.902 91.3972 112.473 92.5491 110.802 95.701C110.802 95.701 112.546 97.3083 110.211 100.005C110.529 100.627 110.614 101.343 110.45 102.023C110.287 102.702 109.887 103.301 109.321 103.712" stroke="#934735" stroke-width="0.68" stroke-linecap="round" stroke-linejoin="round"/>
<path d="M110.902 91.3984C109.331 92.121 106.137 93.4351 106.137 93.4351" stroke="#934735" stroke-width="0.68" stroke-linecap="round" stroke-linejoin="round"/>
<path d="M110.802 95.7031C109.849 96.3262 107.624 97.4414 107.624 97.4414" stroke="#934735" stroke-width="0.68" stroke-linecap="round" stroke-linejoin="round"/>
<path d="M110.211 100.004C109.755 100.268 109.279 100.496 108.787 100.685" stroke="#934735" stroke-width="0.68" stroke-linecap="round" stroke-linejoin="round"/>
<path d="M101.121 90.1934C99.6605 90.6227 98.5034 91.0572 98.5034 91.0572" stroke="#934735" stroke-width="0.68" stroke-linecap="round" stroke-linejoin="round"/>
<path d="M182.006 84.9465C181.946 86.0265 181.829 87.1025 181.656 88.1702C180.305 96.9597 175.449 109.588 170.06 117.303C168.982 118.893 167.737 120.364 166.346 121.69C162.111 125.587 155.366 126.322 150.656 123.594C149.234 122.775 148.022 121.635 147.117 120.266C146.211 118.897 145.637 117.337 145.439 115.707C145.234 114.295 145.218 112.862 145.392 111.445C146.295 103.459 151.735 89.7717 158.303 79.8971C159.049 78.76 159.821 77.6698 160.598 76.6526C164.307 71.791 168.235 68.4004 171.823 68.0352C172.565 67.9482 173.316 68.0067 174.035 68.2074C179.982 69.9183 182.543 74.5713 182.006 84.9465Z" fill="#FED81D"/>
<path d="M171.124 89.7412C169.322 95.9407 168.598 102.404 168.985 108.849C169.193 111.693 169.552 114.524 170.06 117.33C168.981 118.92 167.736 120.391 166.346 121.717C162.11 125.614 155.366 126.349 150.655 123.621C149.233 122.802 148.022 121.662 147.116 120.293C146.211 118.924 145.637 117.363 145.439 115.734C149.612 120.21 153.994 121.175 157.437 120.043C162.434 118.436 165.569 112.495 163.644 106.418C160.259 95.7347 167.895 89.6264 171.541 87.8477C171.448 88.4423 171.302 89.0735 171.124 89.7412Z" fill="#FCC71F"/>
<path d="M182.006 84.9465C181.946 86.0265 181.829 87.1025 181.657 88.1702C181.032 87.2437 180.517 86.2476 180.123 85.2021C178.276 80.2727 174.948 77.4976 171.255 76.2927C167.765 75.21 164.012 75.3369 160.604 76.6526C164.312 71.791 168.24 68.4004 171.829 68.0352C172.57 67.9482 173.322 68.0067 174.041 68.2074C179.982 69.9183 182.543 74.5713 182.006 84.9465Z" fill="#FFE05C"/>
<path d="M196.173 76.4783C189.454 77.2973 188.004 71.914 187.962 64.22C187.962 62.4099 188.025 60.4694 188.124 58.4455C188.178 57.2581 188.305 56.0753 188.505 54.9036C190.795 41.795 201.645 43.3807 202.203 51.1061C202.417 54.0377 204.482 75.4663 196.173 76.4783Z" fill="#B25E47"/>
<path d="M196.017 56.1374C195.657 61.312 191.937 63.9619 187.968 64.2175C187.968 62.4074 188.03 60.4669 188.129 58.443C188.183 57.2556 188.311 56.0728 188.51 54.9011C190.696 53.9674 196.298 51.9643 196.017 56.1374Z" fill="#914839"/>
<path d="M222.041 107.112C221.686 108.295 221.406 109.498 221.201 110.716C221.144 111.05 221.091 111.384 221.039 111.713C218.979 124.55 218.723 136.459 218.582 137.695C218.442 138.931 206.945 138.504 198.39 138.086C195.057 137.919 190.748 137.966 186.685 137.998C180.321 138.045 174.557 138.06 174.071 137.158C173.764 136.574 172.94 133.157 172.042 128.77C171.901 128.087 171.761 127.388 171.615 126.683C171.542 126.329 171.474 125.964 171.406 125.598C171.338 125.233 171.244 124.759 171.166 124.341C171.088 123.924 170.994 123.444 170.91 122.99C170.728 121.989 170.545 120.977 170.389 119.97C170.232 118.963 170.055 117.977 169.904 117.007C169.422 114.196 169.091 111.361 168.912 108.515C168.594 102.066 169.386 95.6093 171.255 89.4284C171.302 89.2667 171.349 89.1102 171.385 88.9537C171.458 88.6824 171.526 88.4321 171.588 88.1452L171.682 87.7226C171.714 87.5818 171.74 87.441 171.766 87.3001C171.792 87.1593 171.823 87.0184 171.844 86.8828C171.865 86.7472 171.891 86.6011 171.912 86.4603C171.959 86.189 171.995 85.9126 172.032 85.6465C172.105 84.9788 172.162 84.3216 172.188 83.68C172.188 83.5913 172.188 83.5026 172.188 83.4192C172.188 82.9653 172.188 82.5167 172.188 82.0733C172.141 80.0366 171.912 78.0082 171.505 76.012C170.848 72.6057 169.966 70.0445 170.185 68.8656C170.29 68.2866 170.889 67.9371 171.943 67.7858C172.016 67.7858 172.094 67.7858 172.162 67.7597C174.77 67.4572 179.747 68.1927 186.538 69.5959C186.676 68.0718 186.918 66.559 187.264 65.0681C187.331 64.8356 187.473 64.632 187.669 64.4894C187.864 64.3468 188.101 64.2733 188.343 64.2805C189.084 64.2127 190.086 64.4839 191.045 64.5726C192.678 64.7239 198.233 63.7119 201.092 62.2044C201.666 61.8689 202.301 61.6491 202.959 61.5575C204.331 61.4271 204.806 62.5069 204.983 63.9831C204.983 64.0457 204.983 64.1135 204.983 64.1761C204.983 64.2387 204.983 64.3118 204.983 64.3848C204.983 64.4578 204.983 64.656 205.015 64.7969C205.046 64.9377 205.015 65.0055 205.041 65.1151C205.067 65.2246 205.041 65.402 205.067 65.548C205.093 65.6941 205.067 65.8975 205.067 66.0697C205.067 66.2418 205.067 66.4035 205.067 66.5913C205.067 66.6748 205.067 66.7634 205.067 66.8521C205.067 66.9408 205.067 66.9982 205.067 67.0712C205.067 67.1442 205.067 67.2694 205.067 67.3685C205.067 67.4676 205.067 67.6189 205.067 67.7389C205.067 67.8589 205.067 67.9841 205.067 68.104V68.3388C205.067 69.382 205.067 70.2166 205.067 70.2166C210.231 68.2605 218.014 66.2627 223.913 69.888H223.945C225.865 71.1044 227.453 72.7785 228.566 74.7601C228.859 75.2539 229.135 75.7755 229.396 76.325C234.372 86.7941 225.4 95.6984 222.041 107.112Z" fill="#FED81D"/>
<path d="M228.686 74.7398C223.704 75.3501 218.128 78.5843 212.896 84.8021C212.083 85.7689 211.279 86.8122 210.486 87.9319C202.072 99.7052 187.42 96.5858 181.797 87.9997C181.181 87.0692 180.677 86.0695 180.294 85.0212C178.495 80.0709 175.198 77.2593 171.52 76.0178C170.863 72.6116 169.982 70.0504 170.201 68.8715C170.305 68.2925 170.905 67.943 171.959 67.7917C172.032 67.7917 172.11 67.7917 172.178 67.7656C174.786 67.4631 179.762 68.1986 186.554 69.6018C186.691 68.0777 186.934 66.5648 187.279 65.074C187.346 64.8415 187.488 64.6379 187.684 64.4953C187.879 64.3527 188.117 64.2792 188.359 64.2863C189.099 64.2185 190.101 64.4898 191.061 64.5784C192.693 64.7297 198.249 63.7177 201.107 62.2102C201.682 61.8747 202.316 61.655 202.975 61.5634C204.347 61.433 204.821 62.5128 204.999 63.989C204.999 64.0516 204.999 64.1194 204.999 64.182C204.999 64.2446 204.999 64.3176 204.999 64.3907C204.999 64.4637 204.999 64.6619 205.03 64.8027C205.061 64.9436 205.03 65.0114 205.056 65.1209C205.082 65.2305 205.056 65.4078 205.082 65.5539C205.108 65.7 205.082 65.9034 205.082 66.0755C205.082 66.2477 205.082 66.4094 205.082 66.5972C205.082 66.6806 205.082 66.7693 205.082 66.858C205.082 66.9467 205.082 67.004 205.082 67.0771C205.082 67.1501 205.082 67.2753 205.082 67.3744C205.082 67.4735 205.082 67.6248 205.082 67.7447C205.082 67.8647 205.082 67.9899 205.082 68.1099V68.3446C205.082 69.3879 205.082 70.2225 205.082 70.2225C210.246 68.2664 218.029 66.2685 223.929 69.8939H223.96C225.915 71.0895 227.54 72.7554 228.686 74.7398Z" fill="#FFE05C"/>
<path d="M172.011 83.418C171.994 84.8955 171.847 86.3687 171.573 87.8205C171.447 88.4413 171.301 89.0725 171.124 89.7141C169.321 95.9136 168.598 102.377 168.985 108.821C169.193 111.666 169.552 114.497 170.06 117.303C170.221 118.268 170.399 119.259 170.581 120.261C171.134 123.265 171.755 126.348 172.345 129.061C173.289 133.432 174.149 136.844 174.462 137.407" stroke="#F7AD2B" stroke-width="0.68" stroke-linecap="round" stroke-linejoin="round"/>
<path d="M221.159 111.487C219.234 124.35 219.104 136.254 218.973 137.49C218.843 138.727 207.346 138.429 198.791 138.095C195.458 137.965 191.149 138.059 187.086 138.132C190.424 135.352 197.331 130.782 203.956 133.672C213.152 137.683 217.487 125.029 211.874 123.897C206.261 122.765 205.969 116.38 204.874 111.216L209.464 109.354L221.159 111.487Z" fill="#FCC71F"/>
<path d="M186.22 69.7207C186.162 70.7162 186.162 71.7142 186.22 72.7097" stroke="#F7AD2B" stroke-width="0.68" stroke-linecap="round" stroke-linejoin="round"/>
<path d="M204.874 69.9453C204.801 71.9067 204.712 73.1847 204.712 73.1847" stroke="#F7AD2B" stroke-width="0.68" stroke-linecap="round" stroke-linejoin="round"/>
<path d="M190.675 72.9707C193.2 73.6958 197.08 73.7375 199.303 72.9707" stroke="#F7AD2B" stroke-width="0.68" stroke-linecap="round" stroke-linejoin="round"/>
<path d="M245.285 119.051C242.676 122.363 235.587 122.999 229.818 118.393C228.209 117.094 226.832 115.531 225.744 113.772C225.108 112.76 224.289 111.226 223.376 109.421C222.974 108.618 222.547 107.762 222.114 106.876C219.688 101.91 216.897 95.8901 215.134 92.4473C214.25 90.708 213.587 88.8643 213.162 86.9598C212.985 86.2034 212.844 85.4366 212.735 84.6646C211.404 75.3952 214.733 65.6615 223.72 69.5998H223.746C225.536 70.3875 227.439 72.0932 229.354 74.331C233.996 79.7769 238.66 88.4151 241.633 94.9094C242.311 96.3857 242.895 97.7523 243.375 98.9469C246.849 107.585 248.534 114.888 245.285 119.051Z" fill="#FED81D"/>
<path d="M231.645 104.404C231.441 107.644 227.638 108.979 223.377 109.422C222.975 108.619 222.547 107.764 222.114 106.877C219.689 101.911 216.898 95.8913 215.135 92.4485C214.25 90.7091 213.588 88.8655 213.163 86.9609C216.815 87.0392 220.795 88.3746 221.16 94.6394C221.41 98.9168 232.104 96.9919 231.645 104.404Z" fill="#FCC71F"/>
<path d="M229.354 74.3467C229.041 74.3467 228.728 74.3988 228.42 74.4406C223.444 75.0978 217.904 78.3945 212.735 84.6646C211.404 75.3952 214.733 65.6615 223.72 69.5998H223.746C225.536 70.4031 227.439 72.1089 229.354 74.3467Z" fill="#FFE05C"/>
<path d="M225.744 113.773C225.108 112.761 224.289 111.228 223.376 109.423C222.975 108.619 222.547 107.764 222.114 106.877C219.688 101.911 216.897 95.8916 215.134 92.4488C214.25 90.7094 213.587 88.8658 213.163 86.9612C212.985 86.2048 212.844 85.438 212.735 84.666" stroke="#F7AD2B" stroke-width="0.68" stroke-linecap="round" stroke-linejoin="round"/>
<path d="M245.285 119.051C242.677 122.364 235.588 123 229.818 118.394C231.24 117.937 232.748 117.811 234.226 118.024C240.1 118.879 245.895 116.459 241.378 109.62C237.726 104.075 240.334 97.101 241.633 94.9258C242.311 96.402 242.896 97.7687 243.376 98.9632C246.85 107.586 248.535 114.889 245.285 119.051Z" fill="#FCC71F"/>
<path d="M207.561 31.3918C206.46 32.1742 205.782 32.2994 205.808 33.4783C205.834 34.6572 205.323 35.0015 204.806 35.1945C204.29 35.3875 204.869 36.2638 204.707 37.1089C204.546 37.9539 202.376 38.7572 202.376 38.7572L187.963 31.976C186.763 30.5154 187.285 29.7069 187.671 28.9244C187.708 28.851 187.728 28.7696 187.728 28.6871C187.728 28.6046 187.708 28.5232 187.671 28.4498C187.467 27.9281 186.591 27.4326 186.815 26.8223C187.102 26.045 187.859 25.9146 188.787 25.8833C189.716 25.852 189.512 23.2752 189.084 22.5762C188.657 21.8772 188.985 20.1819 190.441 20.281C191.896 20.3801 192.449 20.088 192.579 19.4047C192.667 19.1668 192.803 18.9495 192.978 18.7664C193.154 18.5833 193.365 18.4383 193.599 18.3404C193.833 18.2425 194.084 18.1939 194.338 18.1975C194.592 18.2011 194.842 18.2569 195.073 18.3614C196.205 18.9508 197.159 18.2988 197.858 17.652C197.898 17.6114 197.942 17.5747 197.989 17.5424C198.735 16.9634 200.299 16.6452 200.936 17.652C201.572 18.6587 202.428 19.1438 203.789 19.2169C205.151 19.2899 205.537 20.4479 205.245 21.5799C204.952 22.7118 205.375 23.103 206.251 23.6247C206.71 23.987 207.049 24.4804 207.221 25.0393C207.393 25.5983 207.392 26.1964 207.216 26.7545C207.04 27.0844 206.977 27.4629 207.036 27.8322C207.095 28.2015 207.274 28.5412 207.545 28.7993C207.978 29.2896 208.661 30.6145 207.561 31.3918Z" fill="#473526"/>
<path d="M202.068 49.9198C200.93 50.408 199.695 50.631 198.458 50.5718C193.508 50.3423 181.422 54.8179 181.422 54.8179C179.392 55.0683 178.156 55.7673 179.074 56.7793C179.992 57.7912 180.853 60.7124 178.506 60.9523C178.044 60.9959 177.58 60.9959 177.118 60.9523C175.741 60.8324 175.131 60.2533 175.303 59.7108C175.522 59.0171 177.014 59.1892 177.295 58.8867C177.577 58.5841 177.645 57.9686 176.727 57.1079C175.809 56.2472 175.162 54.9223 176.096 53.5712C177.029 52.2202 178.918 50.9892 177.775 50.0346C176.633 49.08 175.689 48.2245 176.21 47.0821C176.732 45.9397 179.382 44.3227 178.146 42.9091C176.909 41.4954 175.798 39.7062 178.208 37.5154C180.618 35.3245 183.06 35.7418 182.71 33.864C182.361 31.9861 182.653 30.1812 185.25 30.6246C187.848 31.068 188.234 30.8802 189.376 30.2438C190.519 29.6074 192.037 29.9569 193.503 31.2297C194.968 32.5025 196.356 31.068 198.129 31.4175C199.903 31.767 198.129 33.4779 200.383 33.864C202.636 34.25 203.398 34.3386 203.654 36.4721C203.909 38.6056 205.401 38.6525 205.709 39.3307C206.35 40.6921 205.333 41.6467 205.046 42.4605C204.759 43.2742 205.391 43.7541 205.891 44.5887C206.689 46.0023 204.989 48.6783 202.068 49.9198Z" fill="#604730"/>
<path d="M202.839 46.1081C202.674 47.3973 202.411 48.672 202.052 49.9212C200.913 50.4094 199.679 50.6324 198.442 50.5733C193.492 50.3437 181.406 54.8193 181.406 54.8193C179.376 55.0697 178.14 55.7687 179.058 56.7807C179.976 57.7926 180.837 60.7138 178.49 60.9537C178.028 60.9973 177.564 60.9973 177.102 60.9537C178.86 60.6668 179.329 59.4149 178.422 57.7561C177.175 55.4766 177.624 54.1047 178.876 52.8163C180.128 51.5278 178.078 48.4189 178.876 46.7914C179.674 45.1639 181.03 44.5901 180.487 42.1332C179.945 39.6763 180.211 38.4818 182.167 37.1308C184.123 35.7798 185.74 35.5033 186.778 33.8758C187.816 32.2483 190.524 31.2155 191.447 33.1664C192.37 35.1173 192.668 36.437 195.26 35.6441C197.853 34.8512 199.59 35.8267 198.666 38.0541C197.743 40.2814 198.181 42.3941 199.809 42.6653C201.436 42.9366 203.163 43.02 202.839 46.1081Z" fill="#473526"/>
<path d="M200.993 53.5587C191.254 60.6425 187.055 62.9742 182.397 59.0567C180.227 57.2362 179.851 53.517 180.279 49.7195C180.439 48.365 180.682 47.0218 181.009 45.6977C181.497 43.544 182.245 41.4577 183.237 39.4851C185.323 35.7085 190.133 35.5207 190.618 35.7085C191.103 35.8963 191.254 36.1779 190.785 37.2734C190.315 38.3688 190.832 39.1878 192.183 39.2295C193.534 39.2712 195.078 40.2102 194.932 41.5612C194.843 42.2189 194.951 42.8881 195.242 43.4848C195.532 44.0815 195.992 44.5791 196.565 44.9153C197.822 45.7082 197.608 46.9236 197.775 47.6643C197.942 48.405 199.501 49.2292 199.924 48.2224C200.346 47.2157 202.762 45.0092 204.723 47.0175C206.684 49.0258 204.952 53.6996 200.993 53.5587Z" fill="#B25E47"/>
<path d="M189.319 48.4957C189.789 49.4711 191.479 49.6276 193.086 48.8504C194.692 48.0732 195.626 46.6543 195.172 45.6789C194.718 44.7034 193.018 44.5417 191.406 45.3242C189.794 46.1066 188.85 47.5202 189.319 48.4957Z" fill="#A0503D"/>
<path d="M182.752 49.3474C182.308 49.9681 181.328 50.0829 180.279 49.723C180.439 48.3685 180.683 47.0252 181.01 45.7012C181.098 45.7519 181.183 45.8076 181.265 45.8681C182.721 46.9114 183.383 48.471 182.752 49.3474Z" fill="#A0503D"/>
<path d="M182.564 44.6351C182.563 44.7674 182.601 44.897 182.674 45.0075C182.747 45.118 182.851 45.2044 182.973 45.2557C183.094 45.307 183.229 45.321 183.359 45.2958C183.489 45.2707 183.608 45.2075 183.702 45.1143C183.796 45.0212 183.86 44.9022 183.886 44.7725C183.912 44.6429 183.899 44.5084 183.849 44.3861C183.799 44.2637 183.713 44.1592 183.603 44.0856C183.493 44.012 183.364 43.9727 183.232 43.9727C183.055 43.9727 182.886 44.0423 182.761 44.1664C182.636 44.2905 182.565 44.459 182.564 44.6351Z" fill="#683F1D"/>
<path d="M186.632 44.99C186.632 45.122 186.671 45.2511 186.745 45.3609C186.818 45.4707 186.922 45.5563 187.044 45.6068C187.167 45.6574 187.301 45.6706 187.43 45.6448C187.56 45.6191 187.679 45.5555 187.772 45.4621C187.866 45.3687 187.929 45.2497 187.955 45.1202C187.981 44.9907 187.967 44.8565 187.917 44.7344C187.866 44.6124 187.781 44.5082 187.671 44.4348C187.561 44.3614 187.432 44.3223 187.3 44.3223C187.123 44.3223 186.953 44.3926 186.828 44.5178C186.703 44.643 186.632 44.8129 186.632 44.99Z" fill="#683F1D"/>
<path d="M200.633 50.5773C200.764 49.1428 202.402 47.1658 204.17 48.6264" stroke="#934735" stroke-width="0.68" stroke-linecap="round" stroke-linejoin="round"/>
<path d="M200.695 50.2215C201.921 48.135 204.388 50.9988 201.514 51.5726" stroke="#934735" stroke-width="0.68" stroke-linecap="round" stroke-linejoin="round"/>
<path d="M184.468 48.907C183.738 48.568 183.451 47.9055 183.513 47.7438C183.576 47.5821 185.861 45.8972 185.422 43.3047" stroke="#934735" stroke-width="0.68" stroke-linecap="round" stroke-linejoin="round"/>
<path d="M187.3 40.0656C187.091 41.4166 190.372 42.7364 190.878 41.8861C191.311 41.1558 187.603 38.0991 187.3 40.0656Z" fill="#604730"/>
<path d="M181.792 40.9572C181.823 41.3432 185.344 41.265 185.297 39.9139C185.25 38.5629 181.703 39.82 181.792 40.9572Z" fill="#604730"/>
<path d="M184.812 50.2721C186.033 49.9511 187.224 49.5288 188.375 49.0098C188.375 49.0098 188.74 51.2632 187.3 51.6753C187.045 51.7489 186.777 51.7708 186.513 51.7399C186.249 51.709 185.994 51.6258 185.762 51.4952C185.53 51.3646 185.327 51.1892 185.164 50.9792C185.001 50.7692 184.881 50.5288 184.812 50.2721Z" fill="white" stroke="#934735" stroke-width="0.68" stroke-linecap="round" stroke-linejoin="round"/>
<path d="M203.361 25.919C202.84 27.5987 200.863 25.8616 200.706 28.2612C200.55 30.6607 195.761 29.9878 194.295 27.6561C193.096 25.7365 189.694 26.4563 187.697 28.4855C187.493 27.9638 186.617 27.4683 186.841 26.858C187.128 26.0807 187.884 25.9503 188.813 25.919C189.741 25.8877 189.538 23.3109 189.11 22.6119C188.682 21.9129 189.011 20.2176 190.466 20.3167C191.922 20.4158 192.475 20.1237 192.605 19.4403C192.693 19.2024 192.829 18.9852 193.004 18.8021C193.18 18.619 193.391 18.474 193.625 18.3761C193.859 18.2782 194.11 18.2296 194.364 18.2332C194.617 18.2368 194.868 18.2926 195.099 18.3971C196.231 18.9865 197.185 18.3345 197.884 17.6877C197.924 17.6471 197.968 17.6104 198.015 17.5781C198.573 19.143 198.98 21.3234 201.144 21.5165C204.165 21.7929 203.883 24.2342 203.361 25.919Z" fill="#604730"/>
<path d="M141 72.0634C141.271 70.342 146.107 69.0588 148.918 68.5215L149.993 75.4696C149.993 75.4696 142.262 74.3638 141 72.0634Z" fill="#FCC71F"/>
<path d="M145.496 75.7556C144.938 68.2337 144.938 61.9063 144.782 59.4859C144.625 57.0655 144.745 54.5356 147.567 53.3724C147.567 53.3724 147.567 51.1554 150.786 50.7642C150.786 50.7642 150.379 48.7768 153.071 48.8289C153.065 48.6428 153.103 48.4579 153.18 48.2888C153.258 48.1197 153.374 47.9709 153.519 47.8542C153.664 47.7374 153.835 47.6559 154.016 47.6159C154.198 47.576 154.387 47.5787 154.568 47.624C156.331 47.9317 156.899 49.0115 156.899 49.0115C159.236 48.4899 160.551 50.9363 160.426 52.9342C160.3 54.932 160.159 57.1072 159.194 59.1208C158.229 61.1343 157.004 64.4675 157.004 64.4675L157.082 68.6927C157.082 68.6927 155.287 82.2812 145.496 75.7556Z" fill="#B25E47"/>
<path d="M144.782 59.4859C144.62 57.0916 144.745 54.5356 147.567 53.3724C147.567 53.3724 147.567 51.1554 150.786 50.7642C150.786 50.7642 150.379 48.7768 153.07 48.8289C153.065 48.6428 153.102 48.4579 153.18 48.2888C153.258 48.1197 153.374 47.9709 153.519 47.8542C153.664 47.7374 153.834 47.6559 154.016 47.6159C154.198 47.576 154.387 47.5787 154.567 47.624C156.331 47.9317 156.899 49.0115 156.899 49.0115C159.236 48.4899 160.551 50.9363 160.425 52.9342" stroke="#934735" stroke-width="0.68" stroke-linecap="round" stroke-linejoin="round"/>
<path d="M156.899 49.0098C154.495 50.1939 152.726 52.416 153.451 53.5062C154.177 54.5964 156.905 53.2298 157.275 52.8803" stroke="#934735" stroke-width="0.68" stroke-linecap="round" stroke-linejoin="round"/>
<path d="M152.867 48.834C153.775 48.954 155.564 49.9607 155.564 49.9607" stroke="#934735" stroke-width="0.68" stroke-linecap="round" stroke-linejoin="round"/>
<path d="M150.786 50.7656C151.84 50.8087 152.873 51.0754 153.817 51.5481" stroke="#934735" stroke-width="0.68" stroke-linecap="round" stroke-linejoin="round"/>
<path d="M153.404 56.6011C154.208 55.9908 154.901 54.9162 154.693 53.9199" stroke="#934735" stroke-width="0.68" stroke-linecap="round" stroke-linejoin="round"/>
<path d="M147.546 53.3938C149.466 52.6062 151.417 51.7142 151.996 53.0235C152.575 54.3328 152.893 58.365 151.996 58.9127C151.099 59.4604 149.596 59.0066 149.341 57.9529C149.085 56.8992 148.892 55.4543 148.892 55.4543" stroke="#934735" stroke-width="0.68" stroke-linecap="round" stroke-linejoin="round"/>
<path d="M151.13 59.1426C151.939 60.1389 151.652 63.6651 150.786 64.844" stroke="#934735" stroke-width="0.68" stroke-linecap="round" stroke-linejoin="round"/>
<path d="M157.458 119.997C155.893 122.965 153.65 124.582 150.645 123.575C144.985 121.656 142.732 116.225 141.908 110.92C141.042 105.386 141.72 99.9662 141.694 98.8394C141.637 96.5912 141.021 72.0536 141.021 72.0536C142.002 72.4448 143.488 72.4553 145.288 72.1162C146.659 71.8442 148.004 71.4568 149.31 70.9582C152.045 69.9098 154.649 68.5442 157.066 66.8894L157.171 66.8164C157.171 66.8164 157.661 72.8986 158.324 79.8885C158.882 85.8769 159.57 92.5277 160.186 96.5808C161.156 103.185 160.587 114.196 157.458 119.997Z" fill="#FED81D"/>
<path d="M157.458 119.994C155.893 122.962 153.65 124.58 150.645 123.573C144.985 121.653 142.732 116.223 141.908 110.918C142.916 112.631 144.105 114.232 145.455 115.691C149.633 120.182 153.999 121.147 157.458 119.994Z" fill="#FCC71F"/>
<path d="M157.155 66.8301C157.155 66.8301 158.845 87.7893 160.17 96.6101C160.892 102.22 160.716 107.909 159.648 113.464" stroke="#F7AD2B" stroke-width="0.68" stroke-linecap="round" stroke-linejoin="round"/>
<path d="M216.997 92.0475L196.872 83.6417C195.285 82.9788 193.461 83.7279 192.798 85.315L180.848 113.925C180.185 115.512 180.934 117.336 182.521 117.999L202.646 126.405C204.233 127.068 206.057 126.319 206.719 124.732L218.67 96.1213C219.333 94.5343 218.584 92.7104 216.997 92.0475Z" fill="#EDEDED"/>
<path d="M214.733 91.0967L196.871 83.6358C195.284 82.9729 193.46 83.7221 192.797 85.3091L180.846 113.919C180.184 115.506 180.933 117.33 182.52 117.993L200.382 125.454C201.969 126.117 203.793 125.368 204.456 123.781L216.406 95.1706C217.069 93.5835 216.32 91.7596 214.733 91.0967Z" fill="#535353" stroke="#DDDDDD" stroke-width="0.9" stroke-linecap="round" stroke-linejoin="round"/>
<path d="M198.056 88.4012C198.056 88.6694 197.976 88.9316 197.827 89.1547C197.678 89.3777 197.466 89.5515 197.219 89.6542C196.971 89.7568 196.698 89.7837 196.435 89.7314C196.172 89.679 195.93 89.5499 195.74 89.3602C195.551 89.1705 195.422 88.9289 195.369 88.6658C195.317 88.4027 195.344 88.13 195.446 87.8822C195.549 87.6344 195.723 87.4225 195.946 87.2735C196.169 87.1245 196.431 87.0449 196.7 87.0449C196.878 87.0442 197.054 87.0789 197.219 87.1468C197.384 87.2147 197.534 87.3146 197.66 87.4406C197.786 87.5667 197.886 87.7165 197.954 87.8814C198.022 88.0462 198.056 88.2229 198.056 88.4012Z" fill="#EDEDED"/>
<path d="M200.294 89.7413C200.295 89.8758 200.256 90.0077 200.182 90.12C200.108 90.2323 200.002 90.32 199.878 90.372C199.753 90.424 199.617 90.4378 199.485 90.4118C199.353 90.3858 199.231 90.3211 199.136 90.226C199.041 90.1308 198.976 90.0095 198.95 89.8775C198.924 89.7455 198.938 89.6087 198.99 89.4846C199.042 89.3605 199.13 89.2546 199.242 89.1805C199.354 89.1064 199.486 89.0673 199.621 89.0684C199.799 89.0697 199.969 89.1411 200.095 89.267C200.221 89.3929 200.292 89.5632 200.294 89.7413Z" fill="#EDEDED"/>
<path d="M199.303 112.239C197.973 111.775 197.284 109.203 197.107 106.986L202.323 107.602C202.323 107.602 202.36 112.573 199.303 112.239Z" fill="#FCC71F"/>
<path d="M201.055 110.929C199.575 109.872 198.043 108.89 196.465 107.987C195.87 107.663 192.495 107.282 190.148 105.989C188.567 105.095 187.042 104.104 185.584 103.021L184.655 104.747C184.655 104.747 182.829 102.775 182.569 100.997C182.308 99.2179 183.028 99.1605 183.455 98.7797C183.883 98.399 183.617 97.8356 183.591 96.9175C183.565 95.9995 184.347 95.8117 184.593 95.4882C184.838 95.1648 184.619 94.325 184.567 93.1931C184.514 92.0611 185.86 92.0037 186.074 91.3569C186.288 90.7101 186.481 88.6288 188.317 89.1713C190.153 89.7138 198.145 95.65 198.666 95.9212C199.443 96.1991 200.238 96.4239 201.045 96.5941C201.045 96.5941 207.586 106.823 201.055 110.929Z" fill="#B25E47"/>
<path d="M185.584 103.021L184.655 104.747C184.655 104.747 182.829 102.775 182.569 100.997C182.308 99.2179 183.028 99.1605 183.455 98.7797C183.883 98.399 183.617 97.8356 183.591 96.9175C183.565 95.9995 184.347 95.8117 184.593 95.4882C184.838 95.1648 184.619 94.325 184.567 93.1931C184.514 92.0611 185.86 92.0037 186.074 91.3569C186.288 90.7101 186.481 88.6288 188.317 89.1713" stroke="#934735" stroke-width="0.68" stroke-linecap="round" stroke-linejoin="round"/>
<path d="M185.584 103.021C184.671 102.254 184.483 102.129 184.483 102.129" stroke="#934735" stroke-width="0.68" stroke-linecap="round" stroke-linejoin="round"/>
<path d="M246.307 117.675C244.632 122.819 238.389 127.378 224.153 121.995L223.376 121.692C208.577 115.824 199.297 112.235 199.297 112.235C200.576 106.824 200.576 101.189 199.297 95.7773C207.795 98.156 230.267 102.767 238.248 105.109C238.769 105.266 239.291 105.428 239.755 105.631C246.453 108.104 247.924 112.694 246.307 117.675Z" fill="#FED81D"/>
<path d="M223.376 121.69C208.577 115.822 199.303 112.238 199.303 112.238" stroke="#F7AD2B" stroke-width="0.68" stroke-linecap="round" stroke-linejoin="round"/>
<path d="M199.303 95.7773C207.012 97.9369 226.24 101.933 235.692 104.405" stroke="#F7AD2B" stroke-width="0.68" stroke-linecap="round" stroke-linejoin="round"/>
<path d="M246.307 117.675C244.632 122.818 238.388 127.377 224.153 121.994C224.153 121.994 228.326 117.169 234.226 118.024C240.125 118.88 245.894 116.459 241.377 109.621C240.577 108.404 240.026 107.04 239.755 105.609C246.453 108.103 247.924 112.693 246.307 117.675Z" fill="#FCC71F"/>
<path d="M81 140.2V142.025L114.079 146.644L155.408 155C155.408 155 157.634 153.118 153.454 149.849C149.274 146.581 126.136 142.383 114.38 144.704C114.38 144.67 102.429 135.864 81 140.2Z" fill="#EDEDED" stroke="#DDDDDD" stroke-linecap="round" stroke-linejoin="round"/>
<path d="M77 141.171C77 141.171 102.918 139.899 110.787 146.325C114.121 149.038 116.644 146.981 120.429 146.89C124.213 146.8 144.647 144.477 155.994 156L177 138.848C177 138.848 164.424 124.878 142.14 133.237C142.14 133.237 135.472 125.025 111.354 129.168C111.143 129.473 77 141.171 77 141.171Z" fill="#F9F9F9" stroke="#EDEDED" stroke-linecap="round" stroke-linejoin="round"/>
<path d="M142 133L114 144" stroke="#EDEDED" stroke-linecap="round" stroke-linejoin="round"/>
</g>
<defs>
<clipPath id="clip0_39850_15039">
<rect width="274" height="160" rx="6" fill="white"/>
</clipPath>
</defs>
</svg>
