<svg width="607" height="233" viewBox="0 0 607 233" fill="none" xmlns="http://www.w3.org/2000/svg">
<path d="M528.708 105.871H503.708L529.708 202.871L516.208 232.371H540.208L597.708 105.871H572.708L545.208 175.871L528.708 105.871Z" fill="#2661E8"/>
<path d="M539.208 51.3706L509.208 29.3706C502.808 28.5706 501.875 33.0373 502.208 35.3706L535.208 78.8706C537.208 82.0706 540.042 80.2039 541.208 78.8706L606.208 6.37062C607.008 -0.429377 601.875 -0.46271 599.208 0.370624L539.208 51.3706Z" fill="#2661E8"/>
<path d="M503.709 82.3703L505.709 62.8703C479.309 59.6703 471.208 66.8703 465.208 72.8704C457.708 80.3705 456.708 97.3703 456.708 106.37H445.208L443.208 124.87H453.208L445.708 199.87H469.208L477.208 124.87H495.708L497.708 106.37H478.709C478.709 94.8704 481.875 87.7037 484.209 85.8703C489.009 81.4703 499.209 81.7037 503.709 82.3703Z" fill="#2661E8"/>
<path d="M434.708 106.371H410.708L400.708 199.87H424.208L434.708 106.371Z" fill="#2661E8"/>
<path d="M439.208 76.8705C438.808 64.4705 429.375 62.0372 424.708 62.3705C413.908 62.3705 410.875 72.0372 410.708 76.8705C410.708 86.8705 420.042 89.7038 424.708 89.8705C435.908 89.4705 439.042 81.0372 439.208 76.8705Z" fill="#2661E8"/>
<path d="M348.208 64.3711H324.208L310.208 199.371H334.708L338.708 161.371L364.208 199.371H390.708L358.708 150.871L400.708 105.871H372.208L340.708 141.871L348.208 64.3711Z" fill="#2661E8"/>
<path d="M296.708 130.371L304.208 111.371C288.608 102.171 269.042 102.538 261.208 103.871C232.809 107.871 229.375 129.204 231.208 139.371C232.808 153.371 253.072 159.301 262.708 161.871C277.708 165.871 277.708 169.871 277.708 173.371C271.308 190.171 243.375 181.038 230.208 174.371L221.708 192.371C237.708 204.371 261.708 203.371 271.708 201.371C298.908 196.171 302.708 176.871 300.708 164.871C298.042 148.871 280.542 143.704 270.208 141.871C257.008 138.671 254.042 133.538 254.208 131.371C254.608 124.571 265.042 122.871 270.208 122.871C279.808 122.871 291.875 127.871 296.708 130.371Z" fill="#2661E8"/>
<path d="M151.209 71.3711H26.2086C22.6086 74.5711 24.7086 78.3711 26.2086 79.8711H48.2086C51.0086 83.4711 49.3752 86.7044 48.2086 87.8711H30.7086C26.3086 90.6711 28.8752 94.0378 30.7086 95.3711H84.2086L73.2086 199.371H97.7086L109.209 95.3711H149.709L151.209 71.3711Z" fill="#2661E8"/>
<path d="M17.2086 87.8711H2.20861C-1.79139 91.0711 0.54194 94.2044 2.20861 95.3711H17.2086C21.2086 92.5711 18.8753 89.2044 17.2086 87.8711Z" fill="#2661E8"/>
<path d="M65.7085 115.871H25.2085C21.6085 118.671 23.7085 122.038 25.2085 123.371H65.7085C69.3085 120.171 67.2085 117.038 65.7085 115.871Z" fill="#2661E8"/>
<path d="M63.7085 142.871H37.2085C33.6085 145.671 35.7085 149.038 37.2085 150.371H63.7085C66.9085 147.171 65.0418 144.038 63.7085 142.871Z" fill="#2661E8"/>
<path d="M61.7086 170.871H28.7086C24.7086 174.471 27.0419 177.704 28.7086 178.871H61.7086C65.3086 175.271 63.2086 172.038 61.7086 170.871Z" fill="#2661E8"/>
<path fill-rule="evenodd" clip-rule="evenodd" d="M147.709 131.87L144.209 112.37C198.209 89.1704 214.042 118.037 215.208 135.37L208.708 200.37H185.708V191.87C173.308 204.27 153.209 202.704 144.709 200.37C129.109 195.97 125.875 180.87 126.209 173.87C130.609 137.87 171.375 139.87 191.209 145.37V135.37C186.409 118.57 160.209 126.037 147.709 131.87ZM189.708 160.87L188.208 175.87C186.042 178.537 178.408 184.07 165.208 184.87C160.708 184.87 151.508 182.37 150.708 172.37C150.708 168.537 153.608 160.17 165.208 157.37C170.375 156.87 182.508 156.87 189.708 160.87Z" fill="#2661E8"/>
</svg>
