<svg width="110" height="34" viewBox="0 0 110 34" fill="none" xmlns="http://www.w3.org/2000/svg">
<path d="M29.3838 3.00491C29.3705 2.97839 29.3394 2.96072 29.3084 2.96955C29.0382 3.08445 28.7679 3.18168 28.4888 3.28332C27.7224 3.56615 26.9249 3.75175 26.1274 3.93736C25.2148 4.14064 24.2844 4.28647 23.3762 4.51185C22.592 4.70188 21.8122 4.93168 21.0591 5.23218C20.492 5.45314 19.9338 5.69178 19.411 5.9967C18.7907 6.33698 18.2901 6.84519 17.8027 7.34897C17.3553 7.81741 16.9034 8.28584 16.5091 8.80289C16.2875 9.09455 16.1015 9.41274 15.9243 9.73092C16.2034 8.67915 16.5932 7.61855 17.3065 6.7789C17.3597 6.71261 17.2977 6.63307 17.2224 6.66842C17.0407 6.7568 16.8724 6.8717 16.6996 6.97776C15.3793 7.87044 14.2008 8.97966 13.1863 10.2038C12.6901 10.8092 12.2116 11.4279 11.8173 12.104C11.361 12.8951 11.0154 13.748 10.7673 14.6274C10.7407 14.1059 10.785 13.5845 10.8559 13.0674C10.8692 12.9746 10.8825 12.8862 10.8869 12.7934C10.8869 12.7315 10.9046 12.6432 10.8426 12.6078C10.7983 12.5857 10.754 12.6078 10.723 12.6432C10.6831 12.6829 10.6521 12.7271 10.6167 12.7713C10.5458 12.8641 10.4749 12.9613 10.4084 13.0586C10.1869 13.3723 9.98755 13.7038 9.81476 14.0485C9.38945 14.919 8.99957 15.7985 8.60527 16.6823C8.20654 17.5661 7.83881 18.4677 7.45337 19.3559C7.08565 20.1956 6.68249 21.022 6.26603 21.8395C6.04008 22.277 5.8097 22.7145 5.53945 23.1299C5.42426 23.3067 5.30464 23.479 5.18059 23.647C5.19831 23.6116 5.21603 23.5807 5.23375 23.5453C5.59704 22.8338 5.84514 22.0737 6.07109 21.3092C6.25717 20.8187 6.44324 20.3281 6.65147 19.8509C6.89514 19.3073 7.11223 18.7549 7.32046 18.1981C7.73692 17.1463 8.24198 16.1387 8.81793 15.1621C9.19008 14.5302 9.58881 13.9115 9.9521 13.2707C10.2932 12.6697 10.5635 12.0333 10.8736 11.419C11.104 10.9595 11.3388 10.4999 11.5382 10.027C11.5958 9.89443 11.6534 9.75743 11.7065 9.62044C11.7287 9.55415 11.7553 9.48344 11.7686 9.41274C11.7686 9.38622 11.773 9.35529 11.7553 9.32877C11.7154 9.2669 11.6356 9.289 11.5869 9.32877C11.4451 9.43483 11.3122 9.54531 11.1749 9.66021C10.7319 10.0358 10.2711 10.3894 9.79704 10.7252C10.8116 9.4967 11.8926 8.24165 12.38 6.69493C12.4154 6.56236 12.5129 6.23092 12.4154 6.12044C12.3489 6.06299 12.2736 6.14253 12.2338 6.19115C11.8217 6.70377 11.3875 7.19872 10.9046 7.64506C11.0907 7.35339 11.2679 7.05289 11.4274 6.74354C11.6932 6.21324 11.9546 5.67852 12.1717 5.12612C12.4287 4.44998 12.6236 3.75617 12.8274 3.06678C13.0357 2.31551 13.2217 1.55541 13.4477 0.80857C13.4698 0.737863 13.492 0.667156 13.5053 0.59203C13.5053 0.569934 13.5141 0.543419 13.5053 0.521323C13.492 0.48155 13.4432 0.455035 13.4034 0.468292C13.3679 0.477131 13.3325 0.499227 13.3015 0.525742C12.8496 0.949984 12.4464 1.42284 12.0122 1.86034C11.6932 2.18736 11.3698 2.5188 11.0641 2.85908C10.4483 3.55731 9.89894 4.31741 9.46476 5.13938C9.07046 5.88622 8.78249 6.69493 8.60527 7.52132C8.36603 8.59961 8.28628 9.7044 8.13565 10.7959C7.96286 10.3231 7.86097 9.82372 7.83881 9.31551C7.82995 9.14758 7.82109 8.97082 7.81223 8.78963C7.81223 8.70567 7.81223 8.52448 7.68375 8.56425C7.64388 8.58635 7.62173 8.63054 7.59957 8.67473C7.5597 8.75428 7.52426 8.83824 7.48881 8.92221C7.37805 9.17852 7.254 9.42599 7.13881 9.67789C6.81097 10.385 6.52742 11.1185 6.38122 11.8831C6.25274 12.5106 6.18628 13.1514 6.18628 13.7877C6.18628 14.6804 6.32362 15.5598 6.31919 16.4569C6.07552 16.0636 5.82742 15.6659 5.72552 15.2063C5.67236 14.9898 5.63248 14.7732 5.59704 14.5567C5.58818 14.4948 5.57489 14.4285 5.56603 14.3667C5.55717 14.3225 5.55717 14.265 5.52173 14.2341C5.44198 14.1722 5.38881 14.2783 5.37109 14.3446C5.22046 14.8218 5.14514 15.3256 5.12742 15.8294C5.10527 16.3376 5.154 16.8458 5.20274 17.354C5.24704 17.8136 5.29578 18.2732 5.32679 18.7372C5.30464 18.9052 5.29578 19.0731 5.28249 19.241C5.22932 20.0674 5.13628 20.8938 4.97679 21.7069C4.87046 22.361 4.73312 23.0062 4.50274 23.6337C4.36983 24.08 4.19704 24.5131 3.97995 24.9241C3.94451 24.9816 3.9135 25.0434 3.88249 25.1009C3.45274 25.8654 3.05843 26.6476 2.62426 27.4077C2.36286 27.854 2.11033 28.3092 1.87552 28.7732C1.70274 29.0737 1.54324 29.3786 1.4059 29.6924C1.28628 29.9576 1.17109 30.2271 1.06476 30.4967C1.02489 30.6116 0.9097 30.8414 0.971726 30.9563C1.06476 31.0403 1.14008 30.9298 1.19767 30.8105C1.21097 30.7972 1.22426 30.7839 1.23312 30.7707C1.26856 30.7221 1.29957 30.6735 1.32616 30.6204C1.39704 30.5011 1.46793 30.3862 1.53438 30.2713C1.82679 29.7631 2.11033 29.2505 2.39831 28.7379C2.82805 27.9424 3.29767 27.169 3.77173 26.3957C3.85147 26.2675 3.92679 26.1394 4.00654 26.0068C4.104 25.8654 4.20147 25.7284 4.30337 25.587C4.48502 25.3395 4.67995 25.1009 4.89261 24.8799C5.154 24.5927 5.48185 24.3143 5.78755 24.0712C6.23059 23.7132 6.62932 23.3067 7.01919 22.8957C7.92742 21.9102 8.78249 20.8761 9.66856 19.8685C10.2578 19.1615 10.8913 18.4809 11.5692 17.8622C12.0698 17.4424 12.5882 17.0403 13.1154 16.6558C13.9572 16.0548 14.8432 15.5201 15.6806 14.9102C16.6686 14.1899 17.6344 13.4386 18.5205 12.5946C18.547 12.5636 18.5781 12.5283 18.5603 12.4841C18.5426 12.4266 18.4717 12.4355 18.423 12.4487C18.2236 12.5018 18.0331 12.5813 17.8382 12.6299C17.6388 12.6741 17.435 12.7139 17.2356 12.7492C16.6907 12.8553 16.1325 12.8995 15.5787 12.9039C15.8932 12.7846 16.2122 12.6697 16.5312 12.5636C17.3243 12.325 18.1262 12.1217 18.9015 11.83C20.2793 11.3572 21.4844 10.5087 22.5875 9.57625C22.8578 9.35087 23.1325 9.12549 23.3806 8.8736C23.4249 8.82056 23.4913 8.77195 23.5002 8.69683C23.5002 8.60844 23.3939 8.60844 23.3274 8.62612C22.7072 8.7587 22.0825 8.88685 21.4534 8.95314C21.0369 8.99291 20.6027 9.02385 20.1863 8.94872C20.6692 8.80289 21.1565 8.67473 21.6527 8.57309C22.1135 8.48029 22.5787 8.3919 23.0262 8.25491C23.7217 8.05163 24.3464 7.6539 24.8781 7.16779C25.197 6.86286 25.4939 6.53584 25.7863 6.2044C26.0964 5.85087 26.3755 5.47082 26.7034 5.13054C27.1331 4.67978 27.6027 4.2688 28.1034 3.902C28.4755 3.61034 28.8743 3.36286 29.2863 3.12865C29.3173 3.11097 29.3483 3.10213 29.3793 3.08445C29.4059 3.06678 29.4148 3.03584 29.4015 3.00491H29.3838ZM5.17173 24.0005C5.17173 24.0005 5.17173 24.0005 5.16286 24.0005H5.16729H5.17173ZM6.23059 19.2499C6.57173 18.1362 6.89957 17.0182 7.254 15.9089C7.58628 14.7732 7.91856 13.6375 8.26856 12.5106C8.65843 11.176 8.96856 9.8193 9.38059 8.48913C9.67299 7.55226 10.0008 6.62423 10.3686 5.71387C10.7008 4.8919 11.073 4.08319 11.5781 3.34961C11.166 4.32625 10.7407 5.29405 10.3819 6.28837C10.0363 7.15895 9.74388 8.04721 9.49135 8.94872C8.87552 10.9418 8.50337 13.0011 7.9097 14.9986C7.65717 15.8824 7.37362 16.7574 7.06793 17.628C6.85084 18.2511 6.59388 18.8742 6.38122 19.4973C5.90717 20.8805 5.46856 22.277 4.92805 23.6381C4.91919 23.647 4.91033 23.6558 4.90147 23.6646C4.88375 23.6602 4.86603 23.6646 4.85274 23.6691C4.94578 23.3774 5.03438 23.0813 5.1097 22.7852C5.46856 21.6009 5.86286 20.4298 6.23059 19.2499ZM19.5483 8.38748C19.0344 8.74102 18.5205 9.09455 18.0331 9.47902C17.2224 10.1242 16.4338 10.7915 15.6496 11.4677C15.1932 11.8742 14.7812 12.3294 14.3515 12.7669C13.9262 13.2088 13.4964 13.6419 13.0932 14.1015C12.5572 14.6981 12.0078 15.2858 11.4939 15.9045C11.042 16.4348 10.63 17.0005 10.2224 17.5661C9.92109 17.9683 9.6154 18.3704 9.33185 18.7858C8.99514 19.2675 8.64514 19.736 8.30843 20.2177C7.97173 20.7038 7.63945 21.1899 7.3116 21.6804C7.10337 21.9898 6.89514 22.3035 6.65147 22.5908C6.3635 22.931 6.06666 23.289 5.73881 23.6028C5.61476 23.7132 5.49514 23.8237 5.37552 23.9386C5.37552 23.9386 5.37552 23.9386 5.37109 23.9386C5.3135 23.9254 5.3135 23.8723 5.32679 23.8281C5.5616 23.5674 5.79641 23.3111 6.02679 23.0459C6.3059 22.7233 6.55843 22.3786 6.79324 22.0251C8.04261 20.2044 9.30527 18.3881 10.6477 16.6293C11.1483 15.9797 11.6667 15.3389 12.2249 14.7379C13.1863 13.7214 14.1787 12.7404 15.1711 11.7505C16.4515 10.4778 17.816 9.28458 19.3002 8.25491C20.4831 7.45945 21.7413 6.7789 23.0394 6.19115C21.8255 6.84077 20.6913 7.6318 19.5483 8.3919V8.38748Z" fill="#2661E8"/>
<path d="M20.6386 30.7485C20.6031 30.8237 20.5544 30.8899 20.5012 30.9518C19.943 31.5307 19.1189 31.8312 18.3392 31.9859C17.5506 32.1494 16.7398 31.9992 15.9689 31.8268C16.7354 31.1949 17.5949 30.4569 17.7677 29.4272C17.936 28.1942 16.7708 27.3944 15.6499 27.3413C11.9018 27.2176 8.51704 29.246 5.34045 31.0004C4.13539 31.6589 2.79298 32.503 1.36197 32.1715C1.1626 32.1141 0.958806 31.9859 0.896781 31.7738C0.901211 31.7163 0.874629 31.65 0.817034 31.6235C0.373996 31.5351 0.688553 32.1583 0.892351 32.2687C2.65121 33.2719 5.09678 31.4114 6.65184 30.6071C8.25564 29.7321 9.91261 28.8483 11.6582 28.2782C13.1069 27.8495 14.8215 27.3723 16.3145 27.7744C17.0765 27.9954 17.6702 28.7908 17.4265 29.5863C17.1208 30.5055 16.3278 31.1551 15.5879 31.7296C14.4227 31.4512 13.2132 31.1463 12.0082 31.3186C11.3436 31.4379 10.5772 31.6721 10.2449 32.3085C9.72653 33.3514 11.0246 33.5547 11.7778 33.5326C13.1911 33.4884 14.5379 32.9095 15.6544 32.0566C16.9215 32.3881 18.1753 32.5118 19.4113 31.9903C19.9696 31.734 20.6031 31.4512 20.9044 30.8811C20.9974 30.7088 20.7227 30.5673 20.6341 30.7397L20.6386 30.7485ZM11.7379 33.2365C11.3303 33.2056 10.6126 33.263 10.4398 32.8079C10.4132 32.2334 11.0512 31.8975 11.5297 31.7517C12.7569 31.3805 14.0506 31.6898 15.2645 31.9726C14.2411 32.7195 13.0139 33.2012 11.7379 33.2365Z" fill="#2661E8"/>
<path d="M34.438 23.5066V10.8716H29.4076V7.93529H43.1065V10.8716H38.0761V23.5066H34.438Z" fill="#2661E8"/>
<path d="M51.1034 23.5066V21.1709L50.8788 20.6593V16.4772C50.8788 15.7358 50.6468 15.1574 50.1827 14.7422C49.7335 14.3269 49.0373 14.1193 48.0941 14.1193C47.4504 14.1193 46.8141 14.2231 46.1853 14.4307C45.5714 14.6235 45.0474 14.8905 44.6133 15.2315L43.3557 12.8069C44.0144 12.3472 44.8079 11.9912 45.7361 11.7391C46.6644 11.487 47.6076 11.361 48.5657 11.361C50.4072 11.361 51.837 11.791 52.8551 12.6512C53.8732 13.5113 54.3822 14.8534 54.3822 16.6775V23.5066H51.1034ZM47.4204 23.6845C46.4772 23.6845 45.6688 23.5288 44.995 23.2174C44.3213 22.8911 43.8048 22.4537 43.4455 21.905C43.0862 21.3563 42.9065 20.7408 42.9065 20.0586C42.9065 19.3468 43.0787 18.724 43.423 18.1901C43.7823 17.6562 44.3438 17.241 45.1073 16.9444C45.8709 16.633 46.8665 16.4772 48.0941 16.4772H51.3055V18.5015H48.4759C47.6525 18.5015 47.0836 18.635 46.7692 18.9019C46.4697 19.1689 46.32 19.5025 46.32 19.9029C46.32 20.3478 46.4922 20.7037 46.8365 20.9707C47.1959 21.2228 47.6824 21.3488 48.2963 21.3488C48.8801 21.3488 49.4042 21.2154 49.8683 20.9484C50.3324 20.6667 50.6692 20.2588 50.8788 19.725L51.4178 21.3266C51.1633 22.0977 50.6992 22.6835 50.0255 23.0839C49.3518 23.4843 48.4834 23.6845 47.4204 23.6845Z" fill="#2661E8"/>
<path d="M61.1073 23.6845C60.0742 23.6845 59.0786 23.5659 58.1204 23.3286C57.1772 23.0765 56.4287 22.7651 55.8747 22.3943L57.0425 19.9029C57.5964 20.244 58.2477 20.5258 58.9963 20.7482C59.7598 20.9558 60.5084 21.0597 61.242 21.0597C62.0505 21.0597 62.6194 20.9633 62.9487 20.7705C63.2931 20.5777 63.4653 20.3108 63.4653 19.9697C63.4653 19.6879 63.3305 19.4803 63.061 19.3468C62.8065 19.1985 62.4622 19.0873 62.028 19.0131C61.5938 18.939 61.1147 18.8648 60.5907 18.7907C60.0817 18.7165 59.5652 18.6202 59.0412 18.5015C58.5172 18.368 58.0381 18.1753 57.6039 17.9232C57.1697 17.671 56.8179 17.33 56.5484 16.8999C56.2939 16.4698 56.1666 15.9137 56.1666 15.2315C56.1666 14.4752 56.3837 13.8079 56.8179 13.2295C57.2671 12.6512 57.9108 12.1989 58.7492 11.8726C59.5876 11.5315 60.5907 11.361 61.7585 11.361C62.582 11.361 63.4204 11.4499 64.2737 11.6279C65.1271 11.8059 65.8383 12.0654 66.4072 12.4065L65.2394 14.8756C64.6555 14.5345 64.0641 14.3047 63.4653 14.186C62.8814 14.0526 62.3125 13.9858 61.7585 13.9858C60.98 13.9858 60.4111 14.0897 60.0518 14.2973C59.6924 14.5049 59.5128 14.7718 59.5128 15.0981C59.5128 15.3947 59.64 15.6171 59.8946 15.7654C60.164 15.9137 60.5159 16.0324 60.9501 16.1213C61.3842 16.2103 61.8558 16.2919 62.3649 16.366C62.8889 16.4253 63.4129 16.5217 63.9369 16.6552C64.4609 16.7887 64.9325 16.9815 65.3517 17.2336C65.7859 17.4708 66.1377 17.8045 66.4072 18.2346C66.6767 18.6498 66.8114 19.1985 66.8114 19.8807C66.8114 20.6222 66.5868 21.2821 66.1377 21.8605C65.6885 22.424 65.0373 22.8689 64.1839 23.1951C63.3455 23.5214 62.32 23.6845 61.1073 23.6845Z" fill="#2661E8"/>
<path d="M71.3595 21.0597L71.4494 16.8332L77.0861 11.5389H81.2632L75.851 16.9889L74.0319 18.457L71.3595 21.0597ZM68.4625 23.5066V7.00101H71.9659V23.5066H68.4625ZM77.4679 23.5066L73.3807 18.4793L75.5815 15.7877L81.7123 23.5066H77.4679Z" fill="#2661E8"/>
<path d="M82.7775 23.5066V11.5389H86.2808V23.5066H82.7775ZM84.5291 9.87058C83.8854 9.87058 83.3614 9.6852 82.9571 9.31446C82.5529 8.94371 82.3508 8.48399 82.3508 7.93529C82.3508 7.38659 82.5529 6.92686 82.9571 6.55612C83.3614 6.18537 83.8854 6 84.5291 6C85.1729 6 85.6969 6.17796 86.1011 6.53387C86.5054 6.87496 86.7075 7.31985 86.7075 7.86856C86.7075 8.44692 86.5054 8.92888 86.1011 9.31446C85.7119 9.6852 85.1879 9.87058 84.5291 9.87058Z" fill="#2661E8"/>
<path d="M89.4485 23.5066V11.272C89.4485 9.92248 89.8527 8.84732 90.6612 8.04651C91.4696 7.23087 92.6225 6.82305 94.1196 6.82305C94.6286 6.82305 95.1152 6.87496 95.5793 6.97877C96.0584 7.08258 96.4627 7.2457 96.792 7.46815L95.8713 9.9818C95.6767 9.84833 95.4596 9.74452 95.22 9.67037C94.9805 9.59623 94.726 9.55915 94.4565 9.55915C93.9474 9.55915 93.5507 9.70745 93.2662 10.004C92.9967 10.2858 92.862 10.7159 92.862 11.2942V12.4065L92.9518 13.8969V23.5066H89.4485ZM87.5845 14.4752V11.8059H95.9611V14.4752H87.5845Z" fill="#2661E8"/>
<path d="M98.9425 28C98.3137 28 97.6923 27.9036 97.0785 27.7108C96.4647 27.518 95.9631 27.2511 95.5739 26.91L96.8539 24.4408C97.1234 24.6781 97.4303 24.8635 97.7747 24.997C98.134 25.1304 98.4858 25.1972 98.8302 25.1972C99.3243 25.1972 99.7135 25.0785 99.998 24.8413C100.297 24.6188 100.567 24.2406 100.806 23.7068L101.435 22.2386L101.705 21.8605L106.039 11.5389H109.408L103.95 24.2406C103.561 25.2046 103.112 25.9609 102.603 26.5096C102.109 27.0583 101.555 27.4439 100.941 27.6663C100.342 27.8888 99.6761 28 98.9425 28ZM101.009 23.9737L95.6188 11.5389H99.2344L103.411 21.549L101.009 23.9737Z" fill="#2661E8"/>
</svg>
