<svg width="722" height="423" viewBox="0 0 722 423" fill="none" xmlns="http://www.w3.org/2000/svg">
<g clip-path="url(#clip0_39720_14650)">
<rect width="722" height="422.761" rx="8" fill="#2661E8"/>
<path d="M244.895 279.625L270.187 271.467L288.647 282.405L292.123 391.829H258.795L244.895 279.625Z" fill="#FED81D"/>
<path d="M267.506 388.262H208.211L211.089 306.455C210.222 304.664 209.463 302.823 208.817 300.941C201.909 280.489 216.255 271.468 225.814 269.188C232.359 267.635 241.782 267.923 247.251 268.157C248.91 268.226 250.205 268.286 250.947 268.286C255.341 282.497 258.882 296.958 261.552 311.591C261.941 313.656 262.299 315.696 262.628 317.711C262.631 317.729 262.631 317.747 262.628 317.764C269.604 359.16 267.506 388.262 267.506 388.262Z" fill="#A7CAF0"/>
<path d="M321.696 360.038C312.447 365.454 300.047 362.098 300.047 362.098L298.669 389.466L286.549 390.223C286.549 390.223 288.503 365.939 287.746 342.707C287.466 334.503 286.648 325.459 285.534 316.468C285.246 314.196 284.951 311.961 284.633 309.726C282.633 295.63 280.012 282.215 277.709 273.035C279.877 271.792 282.226 270.897 284.671 270.383C290.181 269.291 295.889 269.795 301.123 271.838C301.653 275.193 302.403 282.003 303.153 289.608C304.668 304.954 306.236 323.55 306.236 323.55C307.849 300.599 330.028 299.364 332.566 334.087C332.717 350.463 328.756 355.917 321.696 360.038Z" fill="#A7CAF0"/>
<path d="M321.241 332.845L293.874 339.329L296.835 291.093L297.472 280.768L301.13 271.838C301.13 271.838 314.265 279.549 317.09 287.639C317.884 290.44 318.424 293.307 318.703 296.206C320.431 309.954 321.241 332.845 321.241 332.845Z" fill="#A7CAF0"/>
<path d="M318.704 296.213C314.651 293.683 308.584 290.419 303.16 289.616L296.835 291.093L297.472 280.768L301.13 271.838C301.13 271.838 314.265 279.549 317.09 287.639C317.885 290.443 318.424 293.312 318.704 296.213Z" fill="#C3DCF8"/>
<path d="M250.97 268.286C255.363 282.497 258.904 296.958 261.575 311.591C258.794 309.711 256.354 307.372 254.356 304.675C238.623 284.223 220.959 286.784 208.817 300.941C201.909 280.489 216.255 271.468 225.814 269.188C232.359 267.635 241.782 267.923 247.251 268.157C248.933 268.226 250.228 268.286 250.97 268.286Z" fill="#C3DCF8"/>
<path d="M303.16 289.617C301.108 290.715 299.623 292.049 298.964 293.405C297.252 296.995 291.813 304.668 284.625 309.705C282.625 295.609 280.004 282.194 277.702 273.013C279.869 271.771 282.218 270.876 284.663 270.362C290.18 269.268 295.896 269.78 301.13 271.839C301.661 275.202 302.41 282.012 303.16 289.617Z" fill="#C3DCF8"/>
<path d="M262.673 317.71C260.666 308.196 247.009 294.766 247.009 294.766L250.001 286.661L244.024 283.851L247.274 268.156C248.933 268.224 250.228 268.285 250.97 268.285C255.987 284.476 259.897 300.989 262.673 317.71Z" fill="#83ADDF"/>
<path d="M293.873 292.935C290.102 300.392 287.302 308.301 285.541 316.469C283.75 301.856 281.138 287.355 277.716 273.036C279.884 271.793 282.233 270.899 284.677 270.385L292.79 283.201L287.821 288.89L293.873 292.935Z" fill="#83ADDF"/>
<path d="M254.735 263.916C253.266 265.183 251.99 266.658 250.947 268.294L252.28 286.663C252.28 286.663 258.34 278.331 268.49 278.929L254.735 263.916Z" fill="white"/>
<path d="M276.565 266.535C276.565 266.702 273.194 278.753 273.194 278.753C273.194 278.753 279.807 281.715 284.367 286.699C284.367 286.699 282.148 273.201 281.337 270.944C280.527 268.686 276.565 266.535 276.565 266.535Z" fill="white"/>
<path d="M300.085 297.381C300.373 305.599 300.449 354.108 300.085 362.099" stroke="#83ADDF" stroke-width="0.75" stroke-linecap="round" stroke-linejoin="round"/>
<path d="M280.004 254.642L278.186 258.225L277.823 258.983C277.823 258.983 277.156 262.338 276.755 265.164C276.555 266.314 276.458 267.48 276.467 268.648C276.641 270.542 277.823 280.563 268.067 279.563C258.31 278.563 254.432 265.845 254.432 265.845C254.796 262.687 258.363 246.734 258.363 246.734C258.363 246.734 262.09 237.834 273.354 239.417C280.929 240.478 280.338 248.946 279.133 254.385L280.004 254.642Z" fill="#FEBD9D"/>
<path d="M280.004 254.643L278.186 258.226L277.822 258.984C277.822 258.984 277.156 262.339 276.754 265.165C271.907 263.9 265.794 259.65 266.816 250.5L279.14 254.386L280.004 254.643Z" fill="#F4A789"/>
<path d="M257.87 240.396C247.44 231.655 249.447 220.179 257.87 222.027C257.87 222.027 254.742 217.528 260.999 211.915C264.657 208.628 270.922 207.832 275.201 211.029C278.004 213.135 283.458 210.855 284.427 209.188C289.608 214.157 287.26 222.861 280.526 223.663L257.87 240.396Z" fill="#BF8228"/>
<path d="M258.961 240.085C253.151 234.025 252.901 226.238 258.165 223.322C258.165 223.322 257.097 214.588 267.316 213.664C278.405 212.664 281.851 220.989 277.284 227.178L258.961 240.085Z" fill="#B57724"/>
<path d="M265.582 224.7C266.339 218.526 270.657 214.898 275.232 215.405C279.807 215.913 283.64 214.549 284.185 212.02" stroke="#9B621F" stroke-width="0.75" stroke-linecap="round" stroke-linejoin="round"/>
<path d="M272.475 219.79C272.876 219.79 283.526 223.713 285.458 215.578" stroke="#9B621F" stroke-width="0.75" stroke-linecap="round" stroke-linejoin="round"/>
<path d="M257.446 237.366C257.446 237.192 261.067 232.064 260.43 226.996" stroke="#9B621F" stroke-width="0.75" stroke-linecap="round" stroke-linejoin="round"/>
<path d="M257.567 239.911C255.045 236.252 252.053 227.125 257.87 224.943" stroke="#9B621F" stroke-width="0.75" stroke-linecap="round" stroke-linejoin="round"/>
<path d="M257.87 222.026C258.44 221.999 259.009 222.102 259.533 222.326C260.058 222.551 260.525 222.891 260.9 223.321" stroke="#9B621F" stroke-width="0.75" stroke-linecap="round" stroke-linejoin="round"/>
<path d="M260.476 219.246C261.15 213.459 269.695 209.089 274.997 210.914" stroke="#9B621F" stroke-width="0.75" stroke-linecap="round" stroke-linejoin="round"/>
<path d="M285.843 243.175L285.518 243.812L280.003 254.644L278.185 258.226L277.814 258.984L268.414 251.008L262.354 245.842C261.061 246.26 259.732 246.559 258.385 246.736C257.248 246.702 256.153 246.3 255.264 245.592C254.375 244.883 253.74 243.905 253.454 242.804C252.158 238.608 255.347 235.737 258.756 236.343C259.239 236.421 259.708 236.566 260.15 236.775C264.793 233.601 264.778 227.367 262.278 225.504C261.377 220.542 272.163 215.27 273.928 219.095C276.405 224.481 280.526 223.64 280.526 223.64C282.196 227.531 283.564 231.545 284.616 235.646C284.677 235.889 284.737 236.139 284.79 236.366C285.379 238.592 285.732 240.875 285.843 243.175Z" fill="#FEBD9D"/>
<path d="M270.528 250.811C273.87 250.811 276.58 248.102 276.58 244.759C276.58 241.417 273.87 238.707 270.528 238.707C267.185 238.707 264.476 241.417 264.476 244.759C264.476 248.102 267.185 250.811 270.528 250.811Z" fill="#F4AF90"/>
<path d="M285.844 243.174L285.518 243.811C284.881 243.367 284.346 242.792 283.949 242.124C283.552 241.457 283.302 240.712 283.217 239.94C283.132 239.168 283.212 238.387 283.454 237.649C283.695 236.911 284.092 236.233 284.617 235.66C284.677 235.903 284.738 236.153 284.791 236.38C285.379 238.602 285.731 240.879 285.844 243.174Z" fill="#F4AF90"/>
<path d="M280.004 254.644L278.186 258.227L277.815 258.984L268.415 251.008L280.004 254.644Z" fill="#F4A789"/>
<path d="M274.209 235.305C274.769 235.305 275.224 234.851 275.224 234.29C275.224 233.73 274.769 233.275 274.209 233.275C273.648 233.275 273.194 233.73 273.194 234.29C273.194 234.851 273.648 235.305 274.209 235.305Z" fill="#683F1D"/>
<path d="M281.253 233.266C281.814 233.266 282.268 232.812 282.268 232.251C282.268 231.691 281.814 231.236 281.253 231.236C280.693 231.236 280.238 231.691 280.238 232.251C280.238 232.812 280.693 233.266 281.253 233.266Z" fill="#683F1D"/>
<path d="M276.784 224.458C276.701 226.102 281.329 225.844 281.64 225.352C282.064 224.7 276.928 221.716 276.784 224.458Z" fill="#BF8228"/>
<path d="M267.551 228.805C267.263 230.616 272.156 227.859 272.436 226.806C272.487 226.581 272.486 226.348 272.433 226.123C272.38 225.899 272.276 225.69 272.13 225.512C271.984 225.333 271.8 225.191 271.59 225.095C271.381 224.999 271.152 224.952 270.922 224.957C269.854 225.094 267.748 227.556 267.551 228.805Z" fill="#BF8228"/>
<path d="M289.26 248.584C289.254 249.476 289.152 250.364 288.957 251.235C287.071 259.408 277.217 262.195 268.362 254.265C260.886 247.576 258.757 236.358 258.757 236.358C258.755 236.343 258.755 236.328 258.757 236.312C259.24 236.39 259.709 236.535 260.151 236.744C260.151 236.744 262.06 241.872 265.9 244.993C267.597 246.379 269.18 247.114 270.748 247.129C272.717 247.129 274.664 246.031 276.808 243.645C280.595 239.373 283.458 239.759 284.511 240.001C284.816 238.813 284.916 237.58 284.806 236.358C286.374 238.153 289.321 243.312 289.26 248.584Z" fill="#BF8228"/>
<path d="M277.261 228.807C277.92 233.692 279.625 234.594 281.988 235.313C283.457 235.768 281.988 238.57 281.988 238.57" stroke="#EF8A66" stroke-width="0.75" stroke-linecap="round" stroke-linejoin="round"/>
<path d="M284.079 241.918C283.639 247.099 278.458 247.478 277.443 244.698C277.443 244.698 281.822 243.978 284.079 241.918Z" fill="white" stroke="#EF8A66" stroke-width="0.75" stroke-linecap="round" stroke-linejoin="round"/>
<path d="M258.355 246.72C259.243 246.673 260.116 246.476 260.938 246.137" stroke="#EF8A66" stroke-width="0.75" stroke-linecap="round" stroke-linejoin="round"/>
<path d="M255.886 240.889C256.484 239.957 259.226 238.76 260.393 241.919" stroke="#EF8A66" stroke-width="0.75" stroke-linecap="round" stroke-linejoin="round"/>
<path d="M259.862 240.895C257.226 240.524 257.075 244.539 260.287 243.774" stroke="#EF8A66" stroke-width="0.75" stroke-linecap="round" stroke-linejoin="round"/>
<path d="M275.455 231.322L268.682 233.664C268.16 233.844 267.884 234.413 268.064 234.935L269.235 238.321C269.415 238.843 269.984 239.12 270.506 238.94L277.279 236.599C277.801 236.418 278.077 235.849 277.897 235.327L276.726 231.941C276.546 231.419 275.977 231.142 275.455 231.322Z" stroke="#683F1D" stroke-linecap="round" stroke-linejoin="round"/>
<path d="M280.602 229.804L286.533 227.751C286.772 227.669 287.034 227.685 287.261 227.796C287.488 227.906 287.662 228.103 287.745 228.342L288.942 231.819C289.024 232.057 289.009 232.318 288.9 232.545C288.791 232.772 288.596 232.946 288.359 233.031L283.518 234.697" stroke="#683F1D" stroke-linecap="round" stroke-linejoin="round"/>
<path d="M289.26 248.584C289.254 249.476 289.152 250.364 288.957 251.235C287.071 259.408 277.217 262.195 268.362 254.265C260.886 247.576 258.757 236.358 258.757 236.358C258.755 236.343 258.755 236.328 258.757 236.312C259.24 236.39 259.709 236.535 260.151 236.744C260.151 236.744 262.06 241.872 265.9 244.993C267.597 246.379 269.18 247.114 270.748 247.129C274.846 251.757 277.929 253.189 281.671 252.674C284.61 252.266 287.304 250.814 289.26 248.584Z" fill="#B57724"/>
<path d="M273.535 257.704C279.405 254.818 284.018 254.356 287.101 255.227" stroke="#9B621F" stroke-width="0.75" stroke-linecap="round" stroke-linejoin="round"/>
<path d="M268.861 254.719C273.838 252.022 283.253 251.401 288.647 252.288" stroke="#9B621F" stroke-width="0.75" stroke-linecap="round" stroke-linejoin="round"/>
<path d="M261.68 244.955C266.801 252.749 280.397 249.674 283.458 247.863C286.359 246.136 286.147 241.637 284.662 239.221" stroke="#9B621F" stroke-width="0.75" stroke-linecap="round" stroke-linejoin="round"/>
<path d="M277.141 233.033L279.262 232.275" stroke="#683F1D" stroke-linecap="round" stroke-linejoin="round"/>
<path d="M287.033 226.837C286.17 227.822 288.23 229.822 291.351 230.89C293.207 231.526 294.88 232.608 296.221 234.041C296.221 234.041 295.502 238.328 298.017 239.851C298.017 239.851 296.903 241.184 296.183 240.245C295.464 239.305 293.972 234.382 291.184 234.7C289.26 234.92 292.169 240.472 292.585 242.646C293.002 244.82 294.267 247.872 296.903 249.145C299.539 250.418 302.289 258.076 302.289 258.076C302.289 258.076 312.939 254.205 312.977 254.114C313.014 254.023 311.545 250.327 311.545 250.327C311.545 250.327 311.84 244.941 311.803 240.942C311.765 236.942 310.409 233.965 307.197 233.867C307.197 233.867 307.523 231.882 305.016 231.693C305.016 231.693 304.849 228.663 299.713 230.231C299.728 230.246 288.881 224.724 287.033 226.837Z" fill="#FEBD9D"/>
<path d="M301.13 261.779C300.978 261.559 300.19 256.893 300.19 256.893L313.211 252.689L315.484 257.992L301.13 261.779Z" fill="white"/>
<path d="M307.197 233.882C307.197 233.882 307.523 231.897 305.016 231.708C305.016 231.708 304.849 228.678 299.713 230.246C299.713 230.246 288.866 224.724 287.018 226.837C286.155 227.822 288.215 229.822 291.336 230.89C293.192 231.526 294.865 232.608 296.206 234.041C296.206 234.041 295.487 238.328 298.001 239.851C298.001 239.851 296.888 241.184 296.168 240.245C295.449 239.305 293.957 234.382 291.169 234.7C289.245 234.92 292.154 240.472 292.57 242.646C292.987 244.82 294.252 247.872 296.888 249.145" stroke="#EF8A66" stroke-width="0.75" stroke-linecap="round" stroke-linejoin="round"/>
<path d="M296.328 240.396C297.365 241.063 302.918 241.593 303.198 245.828" stroke="#EF8A66" stroke-width="0.75" stroke-linecap="round" stroke-linejoin="round"/>
<path d="M298.017 239.849C298.314 239.99 298.641 240.057 298.969 240.044C299.298 240.031 299.618 239.938 299.903 239.773" stroke="#EF8A66" stroke-width="0.75" stroke-linecap="round" stroke-linejoin="round"/>
<path d="M296.222 234.039C296.501 233.193 296.959 232.418 297.564 231.764C298.169 231.111 298.907 230.595 299.729 230.252" stroke="#EF8A66" stroke-width="0.75" stroke-linecap="round" stroke-linejoin="round"/>
<path d="M304.887 231.691C300.289 233.305 299.524 236.683 299.728 238.607C299.933 240.531 300.766 241.296 301.857 241.13C302.138 241.06 302.396 240.917 302.604 240.715C302.812 240.512 302.962 240.258 303.038 239.978" stroke="#EF8A66" stroke-width="0.75" stroke-linecap="round" stroke-linejoin="round"/>
<path d="M307.197 233.881C306.072 233.994 305.024 234.507 304.246 235.328C303.467 236.148 303.009 237.22 302.955 238.35C302.713 241.107 304.197 241.736 305.227 241.115C306.364 240.395 307.5 237.767 307.5 237.767" stroke="#EF8A66" stroke-width="0.75" stroke-linecap="round" stroke-linejoin="round"/>
<path d="M332.573 334.093C331.172 355.302 308.288 351.629 306.243 323.557C306.243 323.557 304.675 304.961 303.16 289.614C302.403 282.04 301.645 275.222 301.13 271.844L299.555 261.111L319.923 255.051C319.923 255.051 323.93 271.049 327.437 290.41C328.892 298.454 330.263 307.074 331.225 315.361C332.004 321.577 332.454 327.83 332.573 334.093Z" fill="#A7CAF0"/>
<path d="M306.243 323.558C306.243 323.558 304.675 304.962 303.16 289.616C302.402 282.041 301.645 275.224 301.13 271.846" stroke="#83ADDF" stroke-width="0.75" stroke-linecap="round" stroke-linejoin="round"/>
<path d="M337.436 321.074C337.489 320.899 341.284 315.09 344.851 313.59C348.419 312.09 353.077 309.803 354.577 307.689C356.077 305.576 359.122 305.538 357.221 309.742C355.319 313.946 353.138 314.741 353.138 314.741C353.138 314.741 362.856 311.87 368.553 310.719C374.249 309.568 376.029 312.098 370.166 314.287C366.898 315.464 363.739 316.926 360.728 318.657C360.728 318.657 370.62 317.392 374.703 317.445C378.786 317.498 380.006 319.718 374.476 321.074C378.218 321.127 378.794 323.255 374.362 324.232C369.931 325.21 362.455 327.133 362.455 327.133C362.455 327.133 370.34 326.618 373.529 327.133C376.718 327.649 375.044 330.163 370.742 330.641C366.439 331.118 343.473 335.238 339.905 334.723L337.436 321.074Z" fill="#FEBD9D"/>
<path d="M349.426 311.424C351.698 310.242 353.683 308.917 354.577 307.637C356.092 305.546 359.121 305.485 357.22 309.689C355.319 313.893 353.137 314.689 353.137 314.689C353.137 314.689 362.856 311.818 368.552 310.666C374.248 309.515 376.028 312.045 370.165 314.234C366.897 315.411 363.739 316.874 360.727 318.605C360.727 318.605 370.62 317.34 374.703 317.393C378.785 317.446 380.005 319.665 374.475 321.021C378.217 321.074 378.793 323.203 374.362 324.18C369.931 325.157 362.454 327.134 362.454 327.134C362.454 327.134 370.34 326.619 373.529 327.134C376.718 327.649 375.044 330.164 370.741 330.641" stroke="#EF8A66" stroke-width="0.75" stroke-linecap="round" stroke-linejoin="round"/>
<path d="M331.225 319.264L338.125 317.424L342.382 336.694L336.8 338.535L331.225 319.264Z" fill="white"/>
<path d="M349.51 315.929L353.139 314.717" stroke="#EF8A66" stroke-width="0.75" stroke-linecap="round" stroke-linejoin="round"/>
<path d="M361.341 322.946L374.476 321.053" stroke="#EF8A66" stroke-width="0.75" stroke-linecap="round" stroke-linejoin="round"/>
<path d="M339.663 340.088C339.663 340.088 319.363 348.504 302.236 356.147C298.025 358.033 294.01 359.866 290.526 361.51C272.899 369.88 265.416 373.629 253.342 369.175C244.782 366.009 235.92 352.185 225.217 332.771C220.838 324.818 216.172 315.932 211.09 306.456C208.56 296.768 224.436 289.792 235.465 291.519C235.518 291.519 238.836 291.519 242.388 295.306C246.623 299.791 267.802 335.945 267.802 335.945C274.619 332.642 333.793 315.402 333.793 315.402L339.663 340.088Z" fill="#A7CAF0"/>
<path d="M302.236 356.146C298.025 358.032 294.01 359.866 290.526 361.509C272.899 369.879 265.415 373.629 253.341 369.175C244.782 366.009 235.919 352.185 225.216 332.771C230.799 331.453 237.412 332.218 240.116 341.3C245.297 358.722 257.538 367.418 270.074 356.237C279.86 347.526 296.131 345.731 302.236 356.146Z" fill="#93BEE5"/>
<path d="M235.48 291.531C235.48 291.531 238.828 291.531 242.403 295.319C246.637 299.81 267.816 335.965 267.816 335.965C274.633 332.654 333.807 315.422 333.807 315.422L339.678 340.108C339.678 340.108 308.167 353.167 290.54 361.529C272.914 369.892 265.438 373.649 253.364 369.187C243.198 365.445 232.586 346.683 219.058 321.376" stroke="#83ADDF" stroke-width="0.75" stroke-linecap="round" stroke-linejoin="round"/>
<path d="M260.135 342.708C260.135 342.708 263.317 337.67 267.801 335.943" stroke="#83ADDF" stroke-width="0.75" stroke-linecap="round" stroke-linejoin="round"/>
<path d="M375.819 291.224C375.993 285.422 379.894 280.915 381.621 278.748C383.348 276.582 380.553 274.923 381.621 270.174C383.272 262.902 391.847 266.992 391.847 255.282C391.847 251.646 392.71 250.866 392.71 250.866C392.71 250.866 386.302 236.762 397.907 232.081C397.907 232.081 398.944 226.097 409.511 223.408C420.078 220.718 429.607 231.634 422.767 247.397L422.244 259.872C423.236 260.06 424.138 260.569 424.811 261.321C425.485 262.072 425.892 263.025 425.971 264.031C426.729 269.333 433.5 266.023 433.849 279.703L375.819 291.224Z" fill="#7F542D"/>
<path d="M400.391 272.672C395.142 274.301 391.021 274.005 391.021 269.317C391.021 264.908 396.468 262.56 395.566 255.402C394.665 248.244 396.059 244.843 398.467 241.767C400.876 238.692 404.353 228.133 412.912 230.004C421.472 231.875 422.76 247.426 422.76 247.426L418.215 261.856C418.215 261.856 423.752 269.544 422.123 272.339C420.495 275.134 400.391 272.672 400.391 272.672Z" fill="#704725"/>
<path d="M420.919 262.477C420.919 262.477 425.252 262.545 424.146 268.112C423.752 270.015 424.009 271.995 424.878 273.733C425.746 275.472 427.175 276.867 428.933 277.694" stroke="#A56F42" stroke-width="0.75" stroke-linecap="round" stroke-linejoin="round"/>
<path d="M397.907 236.072C393.097 241.708 394.961 247.336 394.961 247.336" stroke="#A56F42" stroke-width="0.75" stroke-linecap="round" stroke-linejoin="round"/>
<path d="M393.241 265.895C388.022 268.568 384.977 273.795 388.227 278.87C388.892 279.86 389.33 280.984 389.511 282.162C389.691 283.34 389.61 284.544 389.272 285.687" stroke="#A56F42" stroke-width="0.75" stroke-linecap="round" stroke-linejoin="round"/>
<path d="M397.907 232.08C397.907 232.08 401.77 233.201 402.884 235.595" stroke="#A56F42" stroke-width="0.75" stroke-linecap="round" stroke-linejoin="round"/>
<path d="M405.633 231.733C405.633 231.733 414.276 223.78 420.472 230.976" stroke="#A56F42" stroke-width="0.75" stroke-linecap="round" stroke-linejoin="round"/>
<path d="M425.169 257.108C425.358 267.129 418.488 269.666 415.178 269.863C407.603 270.136 400.566 261.531 398.218 258.297C398.134 257.623 398.043 256.933 397.93 256.236C393.423 257.198 391.575 255.093 391.067 251.911C390.56 248.73 394.438 245.041 399.468 249.116C404.179 245.867 404.838 241.352 403.853 237.345C404.965 235.746 406.56 234.544 408.404 233.915C410.248 233.287 412.245 233.265 414.102 233.853C419.366 235.368 423.04 242.594 424.487 250.434C424.817 252.224 425.032 254.033 425.131 255.85C425.146 256.274 425.161 256.691 425.169 257.108Z" fill="#FEBD9D"/>
<path d="M417.2 239.427C417.359 240.76 420.798 240.942 422.343 240.184C423.889 239.427 416.746 235.624 417.2 239.427Z" fill="#7F542D"/>
<path d="M406.527 242.284C406.262 243.466 409.641 241.913 410.875 241.83C412.11 241.746 412.754 241.201 412.133 239.686C411.512 238.171 407.118 239.739 406.527 242.284Z" fill="#7F542D"/>
<path d="M413.284 249.139C413.845 249.139 414.299 248.685 414.299 248.124C414.299 247.564 413.845 247.109 413.284 247.109C412.724 247.109 412.269 247.564 412.269 248.124C412.269 248.685 412.724 249.139 413.284 249.139Z" fill="#683F1D"/>
<path d="M420.472 246.577C421.033 246.577 421.487 246.122 421.487 245.562C421.487 245.001 421.033 244.547 420.472 244.547C419.911 244.547 419.457 245.001 419.457 245.562C419.457 246.122 419.911 246.577 420.472 246.577Z" fill="#683F1D"/>
<path d="M417.397 245.025C417.329 248.055 418.791 249.101 419.14 249.441C419.973 250.252 421.889 249.441 421.018 252.396" stroke="#EF8A66" stroke-width="0.75" stroke-linecap="round" stroke-linejoin="round"/>
<path d="M413.89 257.63C415.2 256.319 420.185 256.592 420.707 257.115C421.23 257.637 420.321 259.887 418.155 259.857C415.988 259.826 413.276 258.243 413.89 257.63Z" fill="white" stroke="#EF8A66" stroke-width="0.75" stroke-linecap="round" stroke-linejoin="round"/>
<path d="M393.9 252.243C395.051 250.562 397.43 251.122 398.392 251.963C395.309 251.448 395.029 254.887 398.483 253.97" stroke="#EF8A66" stroke-width="0.75" stroke-linecap="round" stroke-linejoin="round"/>
<path d="M414.216 255.342C413.739 256.774 411.186 257.198 408.482 256.297C405.778 255.395 404.013 253.502 404.498 252.07C404.982 250.638 407.527 250.214 410.232 251.123C412.936 252.032 414.701 253.941 414.216 255.342Z" fill="#F4AF90"/>
<path d="M425.123 255.85C423.858 256.084 422.805 255.85 422.321 255.153C421.563 254.009 422.502 251.986 424.479 250.434C424.81 252.223 425.025 254.032 425.123 255.85Z" fill="#F4AF90"/>
<path d="M395.165 257.114C395.165 257.55 395.294 257.977 395.537 258.339C395.779 258.701 396.123 258.984 396.526 259.151C396.929 259.318 397.372 259.361 397.799 259.276C398.227 259.191 398.62 258.981 398.928 258.673C399.236 258.365 399.446 257.972 399.531 257.544C399.616 257.117 399.573 256.674 399.406 256.271C399.239 255.868 398.956 255.524 398.594 255.282C398.231 255.039 397.805 254.91 397.369 254.91C397.08 254.91 396.793 254.967 396.526 255.078C396.258 255.189 396.015 255.351 395.811 255.556C395.606 255.76 395.444 256.003 395.333 256.271C395.222 256.538 395.165 256.825 395.165 257.114Z" fill="#C3DCF8"/>
<path d="M484.199 288.344L473.42 302.296C473.42 302.296 459.028 360.281 451.748 365.167C449.455 366.679 446.827 367.608 444.093 367.872C441.359 368.136 438.601 367.727 436.061 366.682C436.061 366.644 436.061 366.613 436.061 366.576C436.061 366.538 429.63 361.16 430.857 353.191C430.971 352.433 445.378 327.558 451.551 316.59C456.483 307.758 462.482 297.653 462.482 297.653L484.199 288.344Z" fill="#FEBD9D"/>
<path d="M462.512 297.662C462.512 297.662 463.353 284.565 463.648 283.088C463.943 281.611 472.791 273.104 474.048 272.43C475.305 271.756 483.138 274.074 483.782 274.793C484.425 275.513 483.698 277.195 481.592 277.066C479.487 276.937 481.297 282.035 481.297 282.035C481.297 282.035 484.698 285.64 484.198 288.345C484.198 288.345 470.98 301.661 470.806 301.616C470.632 301.57 462.512 297.662 462.512 297.662Z" fill="#FEBD9D"/>
<path d="M462.512 297.662C462.512 297.662 463.353 284.565 463.648 283.088C463.943 281.611 472.791 273.104 474.048 272.43C475.305 271.756 483.138 274.074 483.782 274.793C484.425 275.513 483.698 277.195 481.592 277.066C479.487 276.937 481.297 282.035 481.297 282.035C481.297 282.035 484.698 285.64 484.198 288.345C484.198 288.345 470.98 301.661 470.806 301.616C470.632 301.57 462.512 297.662 462.512 297.662Z" fill="#FEBD9D"/>
<path d="M463.648 283.088C463.943 281.573 472.791 273.104 474.048 272.43C475.305 271.756 483.138 274.074 483.782 274.793C484.425 275.513 483.698 277.195 481.592 277.066" stroke="#EF8A66" stroke-width="0.75" stroke-linecap="round" stroke-linejoin="round"/>
<path d="M476.282 277.693C476.411 277.405 481.335 275.761 482.175 276.057C483.016 276.352 487.061 283.086 487.19 284.435C487.319 285.783 485.402 291.699 483.652 291.176C481.903 290.653 483.721 285.631 483.721 285.631L476.282 277.693Z" fill="#FEBD9D" stroke="#EF8A66" stroke-width="0.75" stroke-linecap="round" stroke-linejoin="round"/>
<path d="M479.691 289.359C481.123 290.305 482.782 288.131 483.721 285.632L480.54 283.049C480.54 283.049 477.586 287.972 479.691 289.359Z" fill="#FEBD9D" stroke="#EF8A66" stroke-width="0.75" stroke-linecap="round" stroke-linejoin="round"/>
<path d="M484.486 283.724L485.517 286.323C485.547 286.398 485.557 286.48 485.544 286.56C485.532 286.641 485.498 286.716 485.445 286.778C485.393 286.841 485.325 286.888 485.248 286.914C485.171 286.941 485.089 286.946 485.009 286.928L482.275 286.353L459.55 267.174C459.378 267.029 459.236 266.851 459.132 266.651C459.029 266.451 458.966 266.232 458.947 266.008C458.928 265.783 458.953 265.557 459.022 265.343C459.09 265.128 459.2 264.929 459.346 264.757C459.64 264.411 460.059 264.195 460.512 264.157C460.965 264.118 461.414 264.261 461.762 264.553L484.486 283.724Z" fill="#683F1D"/>
<path d="M469.761 282.564C472.321 278.867 475.131 275.958 476.495 275.625C478.555 275.125 479.025 277.572 474.177 284.647C474.97 286.661 475.096 288.878 474.536 290.97C473.975 293.061 472.758 294.918 471.064 296.266" fill="#FEBD9D"/>
<path d="M469.761 282.564C472.321 278.867 475.131 275.958 476.495 275.625C478.555 275.125 479.025 277.572 474.177 284.647C474.97 286.661 475.096 288.878 474.536 290.97C473.975 293.061 472.758 294.918 471.064 296.266" stroke="#EF8A66" stroke-width="0.75" stroke-linecap="round" stroke-linejoin="round"/>
<path d="M448.99 325.901C448.831 326.659 447.68 328.764 447.475 329.499C444.12 343.785 438.499 357.601 436.06 366.555C435.37 369.152 434.816 371.784 434.401 374.44C433.174 381.924 432.788 388.976 432.788 388.976L377.432 387.938L370.728 387.817L370.986 359.503L371.046 353.549C371.046 353.549 355.223 352.458 355.102 352.791C354.98 353.125 355.859 344.141 355.859 344.141C350.67 338.195 350.352 329.476 351.632 324.227C352.496 320.712 356.018 311.244 359.631 303.351C361.075 300.024 362.769 296.81 364.699 293.739C369.244 287.012 372.061 286.505 378.023 285.278C383.984 284.051 394.104 278.726 394.104 278.726L413.344 276.582C413.344 276.582 423.403 277.279 432.364 276.9C440.885 276.537 445.673 278.461 449.415 286.308C449.619 286.717 449.808 287.149 450.005 287.596C452.77 294.042 455.255 303.245 456.459 308.002C452.641 317.228 448.99 325.901 448.99 325.901Z" fill="#FED81D"/>
<path d="M449.422 286.308C441.567 285.452 436.659 291.974 430.895 304.321C424.009 319.023 408.988 321.053 394.604 309.525C381.939 299.359 372.637 296.966 359.669 303.359C361.113 300.031 362.807 296.818 364.737 293.746C369.282 287.02 372.1 286.512 378.061 285.285C384.022 284.058 394.142 278.733 394.142 278.733L413.344 276.582C413.344 276.582 423.403 277.279 432.364 276.9C440.893 276.537 445.68 278.461 449.422 286.308Z" fill="#FFE05C"/>
<path d="M379.046 349.526L384.19 316.689C385.621 318.886 389.568 321.939 388.295 328.142C385.053 343.807 395.87 331.4 400.089 338.936C401.839 342.072 387.053 347.2 379.046 349.526Z" fill="#FCC71F"/>
<path d="M397.809 276.476C396.294 275.824 394.143 277.953 394.143 278.748C394.143 279.544 396.324 286.323 399.233 289.489C402.141 292.655 407.459 293.352 409.474 285.914C414.844 291.504 420.078 289.398 419.374 282.589C418.67 275.779 413.807 274.461 413.807 274.461L397.809 276.476Z" fill="white"/>
<path d="M378.584 352.471L379.046 349.524L384.189 316.688L385.803 306.432" stroke="#F7AD2B" stroke-width="0.75" stroke-linecap="round" stroke-linejoin="round"/>
<path d="M355.897 344.156C363.762 341.642 372.066 340.809 380.273 341.709" stroke="#F7AD2B" stroke-width="0.75" stroke-linecap="round" stroke-linejoin="round"/>
<path d="M412.42 296.859C413.558 296.859 414.481 295.936 414.481 294.799C414.481 293.661 413.558 292.738 412.42 292.738C411.282 292.738 410.36 293.661 410.36 294.799C410.36 295.936 411.282 296.859 412.42 296.859Z" fill="white"/>
<path d="M414.488 305.502C415.626 305.502 416.548 304.579 416.548 303.441C416.548 302.303 415.626 301.381 414.488 301.381C413.35 301.381 412.428 302.303 412.428 303.441C412.428 304.579 413.35 305.502 414.488 305.502Z" fill="white"/>
<path d="M360.405 373.068H360.367C351.663 370.076 354.345 356.729 355.352 349.753L365.071 347.405L379.947 343.814C379.947 343.814 382.5 376.583 360.405 373.068Z" fill="#FEBD9D"/>
<path d="M415.177 269.848C415.177 270.037 415.056 273.483 414.958 275.96C414.92 277.051 414.874 277.96 414.859 278.301C414.798 279.445 412.375 284.217 407.284 282.944C402.194 281.672 397.93 277.286 397.808 276.453C397.687 275.619 400.005 269.083 398.77 259.031C403.202 253.85 416.192 257.114 415.177 269.848Z" fill="#FEBD9D"/>
<path d="M415.177 269.847C415.177 269.847 415.056 273.422 414.958 275.967C411.451 275.49 404.8 273.415 405.201 264.469C406.663 266.681 411.701 270.021 415.177 269.847Z" fill="#F4A789"/>
<path d="M457.626 321.573C457.569 321.571 457.514 321.555 457.464 321.528C457.414 321.5 457.371 321.461 457.338 321.414L440.454 297.433C440.421 297.391 440.397 297.342 440.387 297.289C440.376 297.236 440.379 297.181 440.394 297.13C440.405 297.079 440.428 297.031 440.459 296.989C440.49 296.947 440.53 296.913 440.576 296.887C441.639 296.206 442.86 295.807 444.121 295.729C446.863 295.729 449.643 298.281 453.725 304.545C461.3 316.15 458.853 320.452 457.929 321.452C457.893 321.49 457.849 321.52 457.801 321.541C457.753 321.562 457.701 321.573 457.649 321.573H457.626Z" fill="#F9F9F9"/>
<path d="M444.121 296.109C446.514 296.109 449.12 298.177 453.407 304.759C459.702 314.41 459.27 319.386 457.649 321.197L440.757 297.215C441.766 296.565 442.924 296.185 444.121 296.109ZM444.121 295.352C442.796 295.428 441.513 295.842 440.394 296.556C440.301 296.607 440.22 296.678 440.156 296.763C440.092 296.847 440.047 296.945 440.023 297.048C439.999 297.152 439.998 297.26 440.019 297.364C440.039 297.469 440.082 297.567 440.144 297.654L457.028 321.636C457.094 321.729 457.18 321.806 457.279 321.861C457.379 321.916 457.49 321.948 457.604 321.954H457.649C457.755 321.954 457.859 321.931 457.956 321.888C458.052 321.845 458.139 321.782 458.21 321.704C459.179 320.621 461.747 316.174 454.043 304.343C449.877 297.957 447.007 295.352 444.121 295.352Z" fill="#DDDDDD"/>
<path d="M464.565 325.982C464.492 325.98 464.422 325.959 464.36 325.921L457.444 321.52C457.395 321.488 457.354 321.444 457.323 321.393C457.293 321.342 457.275 321.284 457.27 321.225C457.267 321.168 457.276 321.11 457.297 321.057C457.318 321.003 457.35 320.955 457.391 320.914C458.141 320.238 459.116 319.865 460.126 319.869C460.896 319.897 461.651 320.085 462.345 320.42C463.039 320.755 463.655 321.23 464.156 321.816C466.072 323.944 464.913 325.793 464.913 325.808C464.876 325.865 464.824 325.911 464.762 325.942C464.701 325.973 464.633 325.986 464.565 325.982Z" fill="#F9F9F9"/>
<path d="M460.126 320.25C460.843 320.278 461.547 320.455 462.192 320.769C462.838 321.083 463.411 321.528 463.876 322.075C465.618 324.007 464.565 325.605 464.565 325.605L457.649 321.197C458.326 320.581 459.211 320.243 460.126 320.25ZM460.126 319.492C459.023 319.485 457.958 319.894 457.142 320.636C457.054 320.714 456.986 320.811 456.943 320.92C456.899 321.029 456.882 321.146 456.891 321.263C456.901 321.379 456.937 321.492 456.998 321.593C457.058 321.693 457.141 321.778 457.24 321.84L464.156 326.241C464.324 326.35 464.528 326.388 464.724 326.347C464.92 326.306 465.091 326.189 465.201 326.022C465.254 325.938 466.549 323.908 464.444 321.568C463.909 320.942 463.249 320.434 462.507 320.076C461.765 319.719 460.957 319.52 460.134 319.492H460.126Z" fill="#DDDDDD"/>
<path d="M404.133 317.356L442.333 294.799C442.333 294.799 455.035 308.115 457.649 321.197L417.132 342.232C417.132 342.232 412.632 327.756 404.133 317.356Z" fill="#F9F9F9" stroke="#DDDDDD" stroke-linecap="round" stroke-linejoin="round"/>
<path d="M419.025 341.238L428.804 344.154L464.565 325.604C462.666 323.577 460.287 322.061 457.649 321.195L419.025 341.238Z" fill="#DDDDDD" stroke="#DDDDDD" stroke-miterlimit="10"/>
<path d="M437.008 329.142C436.644 330.862 433.175 331.263 431.047 331.127C428.918 330.991 421.843 331.4 421.843 331.4C421.843 331.4 425.767 333.521 426.176 333.922C427.456 335.812 428.447 337.883 429.115 340.065C430.145 343.224 429.38 345.118 428.358 344.89C427.335 344.663 426.964 343.004 426.964 343.004C426.6 345.118 425.29 343.36 425.29 343.36C425.29 344.034 422.04 349.814 420.745 348.662C419.45 347.511 421.275 344.565 421.275 344.565H419.934C417.459 346.592 414.852 348.454 412.132 350.14C409.642 351.586 406.916 352.583 404.081 353.086C404.081 353.086 397.816 357.525 389.923 362.252C380.175 368.114 367.957 374.439 362.018 373.455C360.477 373.257 359.022 372.632 357.817 371.651C356.613 370.67 355.706 369.371 355.201 367.902C355.186 367.856 355.169 367.81 355.148 367.766C355.11 367.66 355.049 367.493 354.981 367.274C354.095 364.244 352.08 351.185 379.932 343.792L380.107 343.747L400.073 338.921C404.232 334.68 413.481 326.423 415.011 325.969C416.541 325.514 437.371 327.415 437.008 329.142Z" fill="#FEBD9D"/>
<path d="M421.244 344.542C421.244 344.542 419.404 347.466 420.714 348.64C422.025 349.814 425.259 344.034 425.259 343.337C425.259 343.337 426.569 345.095 426.933 342.974C426.933 342.974 427.289 344.648 428.327 344.875C429.364 345.102 430.137 343.201 429.084 340.042C428.42 337.861 427.429 335.792 426.145 333.907C425.744 333.498 421.812 331.377 421.812 331.377C421.812 331.377 428.895 330.968 431.023 331.104C433.152 331.241 436.621 330.839 436.977 329.12C437.333 327.4 416.487 325.507 414.957 325.961C414.2 326.188 411.488 328.362 408.466 331.013" stroke="#EF8A66" stroke-width="0.75" stroke-linecap="round" stroke-linejoin="round"/>
<path d="M421.843 331.399L418.298 329.998" stroke="#EF8A66" stroke-width="0.75" stroke-linecap="round" stroke-linejoin="round"/>
<path d="M419.222 334.709C419.222 334.709 424.888 337.148 425.282 337.974C425.676 338.799 426.835 341.307 426.948 342.996" stroke="#EF8A66" stroke-width="0.75" stroke-linecap="round" stroke-linejoin="round"/>
<path d="M419.858 338.854C419.858 338.854 424.07 341.452 424.57 341.952C424.915 342.358 425.156 342.841 425.274 343.36" stroke="#EF8A66" stroke-width="0.75" stroke-linecap="round" stroke-linejoin="round"/>
<path d="M605.335 331.757C605.604 339.338 605.384 346.928 604.676 354.481C603.509 367.282 602.668 378.069 604.297 386.295H690.823C690.823 386.295 694.171 374.175 689.573 349.58C684.975 324.985 678.703 312.532 676.696 308.268L605.335 331.757Z" fill="#FFE05C"/>
<path d="M676.59 308.405C674.613 310.95 666.637 319.835 647.132 326.417L646.223 326.72C641.585 328.254 636.873 329.551 632.103 330.606C613.295 334.742 604.304 332.121 604.304 332.121C604.054 326.152 601.479 320.486 599.464 316.911C598.731 315.602 597.922 314.338 597.04 313.124C596.628 316.574 595.9 319.979 594.866 323.296C592.95 329.432 588.958 334.545 589.162 334.749C579.065 350.066 560.697 325.963 565.143 304.019C565.143 304.019 570.248 283.166 574.233 267.213C574.793 264.941 575.369 263.009 575.967 261.312C579.633 250.943 584.133 249.822 590.882 246.724C594.586 245.125 603.418 243.648 603.418 243.648C603.992 242.353 604.818 241.185 605.848 240.212C606.878 239.239 608.091 238.481 609.417 237.982L609.198 236.467C610.447 236.308 611.758 236.134 613.106 235.937L615.447 235.589L615.719 235.543L616.848 235.369C618.219 235.149 619.62 234.907 621.014 234.649L622.325 234.407L623.309 234.21C628.295 233.306 633.189 231.95 637.928 230.158C638.542 229.908 639.156 229.68 639.754 229.483L640.299 229.302L640.708 229.181L641.383 228.991C641.61 228.923 641.837 228.87 642.064 228.817L642.413 228.734L643.17 228.582L643.428 228.529L644.185 228.408L644.518 228.362H644.647C644.905 228.322 645.157 228.292 645.405 228.272L646.215 228.211H646.442H647.336C654.464 228.211 660.494 232.059 664.213 239.823C665.616 242.849 666.619 246.044 667.197 249.329C670.674 267.834 668.326 286.748 668.326 286.748L676.787 306.89C676.891 307.137 676.928 307.408 676.893 307.674C676.859 307.94 676.754 308.192 676.59 308.405Z" fill="#C3DCF8"/>
<path d="M664.197 239.77C649.745 238.164 636.262 249.224 630.179 260.98C622.302 276.205 603.304 277.417 596.729 270.448C592.306 265.752 584.966 259.533 575.975 261.275C579.641 250.905 584.14 249.784 590.889 246.686C594.525 245.118 603.092 243.656 603.418 243.618C603.992 242.323 604.818 241.155 605.848 240.182C606.878 239.209 608.091 238.451 609.417 237.952L609.197 236.437C610.447 236.278 611.758 236.104 613.106 235.907L615.446 235.559L615.719 235.513L616.848 235.339C618.219 235.119 619.62 234.877 621.014 234.619L622.324 234.377L623.309 234.18C627.608 233.373 631.845 232.264 635.989 230.862C636.663 230.628 637.307 230.378 637.928 230.105C638.549 229.832 639.155 229.628 639.754 229.431L640.299 229.249L640.708 229.128L641.382 228.938C641.61 228.87 641.837 228.817 642.064 228.764L642.413 228.681L643.17 228.529L643.428 228.476L644.185 228.355L644.518 228.31H644.647C644.905 228.269 645.157 228.239 645.405 228.219L646.215 228.158H646.442H647.336C654.449 228.158 660.478 232.006 664.197 239.77Z" fill="#D0E5F7"/>
<path d="M597.04 313.079C596.949 313.837 596.851 314.594 596.729 315.276C596.358 314.859 584.86 301.816 570.438 300.763C573.134 299.142 576.937 297.309 579.58 297.937C584.125 299.013 578.823 277.486 588.374 271.555C587.193 276.463 585.193 284.257 585.64 291.075C586.337 301.323 592.548 307.383 597.04 313.079Z" fill="#A7CAF0"/>
<path d="M647.692 322.333C647.615 323.694 647.428 325.047 647.132 326.378L646.223 326.681C641.585 328.214 636.873 329.511 632.104 330.567L631.536 330.082C621.56 321.348 631.536 315.266 629.006 300.707C626.15 284.285 630.786 275.074 634.156 270.779C633.198 279.09 632.692 287.448 632.641 295.814C632.793 308.395 633.74 312.955 635.671 314.236C638.186 315.675 642.201 316.773 646.768 317.265L647.692 322.333Z" fill="#A7CAF0"/>
<path d="M636.225 235.597C636.029 242.05 633.607 248.237 629.37 253.109C627.605 250.435 624.317 246.8 622.105 247.004C616.046 247.557 615.084 257.73 615.084 257.73C615.084 257.73 612.811 247.125 610.039 248.049C606.115 249.345 602.585 258.086 602.585 258.086C601.484 253.272 601.773 248.244 603.419 243.588C603.992 242.293 604.818 241.124 605.848 240.152C606.878 239.179 608.092 238.421 609.418 237.922L609.198 236.407C610.448 236.248 611.758 236.074 613.107 235.877L615.447 235.528L615.72 235.483L616.849 235.309C618.22 235.089 619.621 234.847 621.015 234.589L622.325 234.347L623.31 234.15C627.609 233.342 631.846 232.234 635.99 230.832C636.169 232.414 636.248 234.005 636.225 235.597Z" fill="#83ADDF"/>
<path d="M664.167 316.169C661.219 326.799 657.448 337.182 652.888 347.226C645.177 364.352 629.657 392.795 629.657 392.795L615.189 390.773C615.189 390.773 623.006 368.693 625.794 354.619C627.233 347.332 629.513 338.015 631.528 330.069C633.414 322.668 635.073 316.434 635.626 314.223C638.14 315.662 642.155 316.76 646.723 317.253C652.554 317.981 658.471 317.614 664.167 316.169Z" fill="#B25E47"/>
<path d="M664.167 316.171C666.44 313.777 668.311 286.697 668.311 286.697" stroke="#83ADDF" stroke-width="0.75" stroke-linecap="round" stroke-linejoin="round"/>
<path d="M637.194 250.836C637.194 250.836 636.436 256.797 635.633 260.183C635.293 261.554 634.717 265.599 634.118 270.788C633.16 279.099 632.654 287.456 632.604 295.822C632.755 308.404 633.702 312.964 635.633 314.244" stroke="#83ADDF" stroke-width="0.75" stroke-linecap="round" stroke-linejoin="round"/>
<path d="M632.922 304.201C640.189 307.71 648.388 308.801 656.32 307.314" stroke="#83ADDF" stroke-width="0.75" stroke-linecap="round" stroke-linejoin="round"/>
<path d="M656.941 317.444C657.138 312.232 658.896 302.294 661.751 298.666C664.918 294.644 667.357 297.848 667.357 297.848" stroke="#83ADDF" stroke-width="0.75" stroke-linecap="round" stroke-linejoin="round"/>
<path d="M661.865 303.929C661.863 304.257 661.959 304.579 662.141 304.853C662.323 305.127 662.582 305.341 662.885 305.467C663.189 305.594 663.523 305.627 663.845 305.564C664.168 305.5 664.464 305.342 664.697 305.109C664.929 304.877 665.087 304.58 665.151 304.258C665.215 303.935 665.181 303.601 665.055 303.298C664.928 302.994 664.714 302.735 664.441 302.554C664.167 302.372 663.845 302.276 663.516 302.277C663.079 302.279 662.66 302.454 662.351 302.763C662.041 303.072 661.867 303.491 661.865 303.929Z" fill="#83ADDF"/>
<path d="M615.197 252.072C615.681 255.519 615.5 256.541 614.189 261.101C612.879 265.661 609.599 280.311 612 290.719C614.56 301.831 620.711 314.958 620.522 318.745C620.332 322.532 619.075 329.88 626.074 331.736" stroke="#83ADDF" stroke-width="0.75" stroke-linecap="round" stroke-linejoin="round"/>
<path d="M596.729 315.283C596.358 314.866 584.86 301.823 570.438 300.77C570.112 300.77 569.794 300.724 569.476 300.717" stroke="#83ADDF" stroke-width="0.75" stroke-linecap="round" stroke-linejoin="round"/>
<path d="M588.905 263.896C589.075 265.003 589.176 266.118 589.208 267.237C589.061 268.698 588.782 270.143 588.375 271.555C587.193 276.463 585.194 284.257 585.641 291.075C586.315 301.323 592.549 307.383 597.003 313.079" stroke="#83ADDF" stroke-width="0.75" stroke-linecap="round" stroke-linejoin="round"/>
<path d="M523.558 285.974C519.808 286.156 518.521 285.603 515.385 283.762C512.249 281.922 507.954 276.188 507.09 267.295L517.233 262.068C517.233 262.068 531.481 280.02 523.558 285.974Z" fill="#B25E47"/>
<path d="M503.469 268.751C504.227 273.781 505.249 275.94 506.431 275.811C507.613 275.682 508.643 272.781 507.09 267.297L503.469 268.751Z" fill="#B25E47" stroke="#934735" stroke-miterlimit="10"/>
<path d="M507.31 267.638C508.068 272.668 509.083 274.826 510.264 274.698C511.446 274.569 512.476 271.668 510.931 266.184L507.31 267.638Z" fill="#B25E47" stroke="#934735" stroke-miterlimit="10"/>
<path d="M468.209 210.827L511.711 193.254L539.457 253.125L500.099 272.857L468.209 210.827Z" fill="#EDEDED" stroke="#EDEDED" stroke-width="2" stroke-linecap="round" stroke-linejoin="round"/>
<path d="M473.883 210.827L517.392 193.254L539.457 253.125L503.136 267.729L473.883 210.827Z" fill="#F9F9F9" stroke="#DDDDDD" stroke-width="2" stroke-linecap="round" stroke-linejoin="round"/>
<path d="M518.044 266.523C512.529 261.819 508.954 253.866 511.075 252.813C512.696 252.01 516.749 256.547 520.316 258.252C523.333 259.773 525.839 262.143 527.527 265.069C528.338 266.773 532.231 273.984 534.011 275.121C535.791 276.257 560.758 293.929 565.136 296.603C569.514 299.276 589.784 312.328 590.89 326.273C591.996 340.218 576.642 344.763 567.333 338.188C560.281 333.226 525.422 288.407 523.558 285.975C523.558 285.975 526.035 280.393 521.157 277.143C518.286 275.227 517.15 271.288 518.044 266.523Z" fill="#B25E47"/>
<path d="M521.195 277.146C518.324 275.229 517.188 271.305 518.081 266.541C512.567 261.837 508.992 253.884 511.113 252.831C512.734 252.028 516.786 256.565 520.354 258.269C523.37 259.791 525.876 262.16 527.565 265.087C528.004 266.003 529.33 268.51 530.739 270.813" stroke="#934735" stroke-width="0.75" stroke-linecap="round" stroke-linejoin="round"/>
<path d="M609.425 237.958C609.584 238.633 609.584 239.335 609.425 240.01C609.425 240.01 608.781 240.934 610.516 243.533C611.859 245.464 613.667 247.027 615.773 248.077C616.288 248.191 626.968 242.245 628.65 234.973C628.65 234.973 623.976 221.581 627.498 219.157C631.021 216.733 636.156 199.296 620.628 203.803C620.628 203.803 617.674 189.775 608.009 190.752C598.343 191.729 594.813 201.023 593.155 210.257C591.496 219.49 595.866 234.905 603.146 234.269L609.425 237.958Z" fill="#B25E47"/>
<path d="M598.389 212.593C597.631 214.108 595.465 214.509 593.586 213.532C591.708 212.555 590.806 210.555 591.579 209.063C592.352 207.571 594.51 207.147 596.389 208.124C598.267 209.101 599.169 211.101 598.389 212.593Z" fill="#A0503D"/>
<path d="M608.463 231.493C610.269 231.008 611.866 229.943 613.008 228.463C613.008 228.463 616.257 234.106 608.198 236.545C608.221 236.545 606.395 231.902 608.463 231.493Z" fill="#914839"/>
<path d="M646.723 225.629C646.541 227.008 641.496 228.538 642.875 230.667C644.39 233 642.655 236.075 638.572 233.999C635.05 232.219 633.543 232.863 632.21 235.605C630.876 238.347 628.097 235.658 625.491 235.795C622.885 235.931 620.014 235.196 620.189 232.31C620.363 229.424 624.961 228.523 623.082 225.811C621.204 223.099 620.052 220.819 623.264 216.297C623.264 216.297 629.036 214.782 628.945 209.798C628.854 204.814 622.809 204.625 620.749 208.147C620.749 208.147 617.045 204.625 616.129 201.004C615.371 197.974 614.439 195.217 613.265 193.937C613.064 193.706 612.823 193.514 612.553 193.369C612.553 193.369 604.274 189.665 600.297 197.398C596.321 205.132 594.238 219.274 596.866 225.031C597.838 227.224 599.498 229.04 601.595 230.206C603.691 231.372 606.11 231.823 608.486 231.492L608.895 234.257L609.448 237.938C608.122 238.437 606.908 239.195 605.878 240.168C604.848 241.141 604.022 242.309 603.448 243.604C603.448 243.604 594.594 245.081 590.882 246.68C590.882 246.68 589.829 243.392 586.67 242.43C583.512 241.468 579.535 240.461 579.171 235.976C578.808 231.492 572.263 232.659 570.801 228.114C569.339 223.569 572.445 220.615 574.46 219.327C576.475 218.039 578.717 215.441 577.21 212.419C575.702 209.397 577.164 206.564 580.55 204.322C583.936 202.08 583.413 199.625 583.504 197.08C583.61 193.891 585.777 192.982 587.913 191.369C590.246 189.627 586.958 184.453 593.594 183.544C597.26 183.037 597.775 182.219 600.502 179.969C602.562 178.28 605.994 181.166 609.592 179.287C613.19 177.409 615.083 176.636 618.386 180.158C621.688 183.681 626.513 181.923 627.104 186.907C627.68 191.702 625.415 192.694 625.248 192.831C625.43 192.831 631.808 192.876 633.3 198.648C634.793 204.42 632.157 205.556 635.815 209.253C639.474 212.949 641.072 214.775 639.36 217.714C638.398 219.357 638.792 221.607 642.314 222.259C645.837 222.91 646.935 224.258 646.723 225.629Z" fill="#604730"/>
<path d="M600.275 197.399C596.291 205.133 594.215 219.275 596.843 225.031C597.816 227.224 599.476 229.041 601.572 230.206C603.668 231.372 606.087 231.824 608.463 231.493L608.872 234.257C606.176 239.734 598.957 241.219 594.586 240.082C588.814 238.567 593.071 235.219 587.458 233.046C580.815 230.478 587.231 224.342 586.042 223.07C584.853 221.797 582.951 219.669 585.012 216.745C587.072 213.821 591.829 213.654 591.42 210.094C591.011 206.534 591.897 205.345 594.351 203.921C598.896 201.292 598.139 197.035 597.275 194.581C596.412 192.127 598.457 186.453 604.555 185.878C609.652 185.416 612.129 188.332 613.243 193.937C613.041 193.707 612.8 193.514 612.531 193.369C612.531 193.369 604.252 189.665 600.275 197.399Z" fill="#473526"/>
<path d="M613.242 193.937C612.152 188.332 609.652 185.416 604.554 185.878C598.494 186.438 596.411 192.134 597.275 194.581C598.138 197.028 598.881 201.292 594.351 203.921C591.897 205.345 591.026 206.534 591.42 210.094C591.813 213.654 587.178 213.881 585.011 216.745C583.56 218.553 582.635 220.725 582.337 223.024" stroke="#896442" stroke-width="0.75" stroke-linecap="round" stroke-linejoin="round"/>
<path d="M595.722 219.781C593.586 220.539 591.934 222.372 592.237 224.167C592.601 226.394 591.919 227.083 590.548 227.492C589.177 227.901 587.814 227.765 587.124 230.181C586.923 231.005 586.789 231.843 586.723 232.689C586.587 233.901 586.397 234.863 585.208 235.567" stroke="#896442" stroke-width="0.75" stroke-linecap="round" stroke-linejoin="round"/>
<path d="M617.279 193.754C619.202 193.21 621.178 192.875 623.172 192.754" stroke="#896442" stroke-width="0.75" stroke-linecap="round" stroke-linejoin="round"/>
<path d="M592.2 236.542C593.056 233.967 596.033 235.618 596.23 232.838C596.287 231.863 596.707 230.946 597.409 230.267C598.11 229.588 599.041 229.197 600.017 229.172" stroke="#896442" stroke-width="0.75" stroke-linecap="round" stroke-linejoin="round"/>
<path d="M622.492 211.918C623.34 209.381 625.878 208.835 626.506 209.214" stroke="#934735" stroke-width="0.75" stroke-linecap="round" stroke-linejoin="round"/>
<path d="M622.961 210.943C625.423 210.185 625.945 213.708 623.438 213.473" stroke="#934735" stroke-width="0.75" stroke-linecap="round" stroke-linejoin="round"/>
<path d="M606.448 199.202C606.114 200.353 607.841 200.83 608.947 200.565C610.053 200.3 610.621 201.156 611.114 200.686C611.606 200.217 610.432 198.687 609.099 198.194C608.859 198.084 608.6 198.023 608.336 198.015C608.072 198.006 607.809 198.05 607.563 198.144C607.316 198.237 607.09 198.379 606.899 198.561C606.708 198.742 606.554 198.96 606.448 199.202Z" fill="#604730"/>
<path d="M603.327 199.578C603.767 200.517 602.358 201.153 601.373 201.093C600.388 201.032 600.025 201.85 599.548 201.487C599.07 201.123 599.851 199.691 600.926 199.093C601.115 198.965 601.327 198.877 601.551 198.832C601.775 198.787 602.005 198.788 602.228 198.833C602.452 198.878 602.664 198.967 602.853 199.095C603.041 199.223 603.203 199.387 603.327 199.578Z" fill="#604730"/>
<path d="M606.978 207.927C607.539 207.927 607.993 207.472 607.993 206.911C607.993 206.351 607.539 205.896 606.978 205.896C606.417 205.896 605.963 206.351 605.963 206.911C605.963 207.472 606.417 207.927 606.978 207.927Z" fill="#683F1D"/>
<path d="M600.025 207.382C600.585 207.382 601.04 206.927 601.04 206.367C601.04 205.806 600.585 205.352 600.025 205.352C599.464 205.352 599.01 205.806 599.01 206.367C599.01 206.927 599.464 207.382 600.025 207.382Z" fill="#683F1D"/>
<path d="M601.941 213.798C600.426 212.881 598.911 210.828 600.926 210.207C602.941 209.586 603.585 208.692 603.645 203.557" stroke="#934735" stroke-width="0.75" stroke-linecap="round" stroke-linejoin="round"/>
<path d="M604.918 219.181C607.19 218.499 607.19 214.682 607.19 214.682C605.359 215.755 603.444 216.679 601.464 217.446C601.464 217.446 602.433 219.923 604.918 219.181Z" fill="white" stroke="#934735" stroke-width="0.75" stroke-linecap="round" stroke-linejoin="round"/>
<path d="M623.241 216.295C622.363 216.348 621.483 216.348 620.605 216.295" stroke="#934735" stroke-width="0.75" stroke-linecap="round" stroke-linejoin="round"/>
<path d="M608.433 212.741C609.19 214.256 611.357 214.658 613.235 213.681C615.114 212.703 616.015 210.704 615.243 209.211C614.47 207.719 612.311 207.295 610.433 208.272C608.554 209.249 607.653 211.249 608.433 212.741Z" fill="#A0503D"/>
<rect y="383.381" width="722" height="49" fill="#EBE8EE"/>
<path d="M172.929 348.379C172.869 349.064 172.816 349.742 172.764 350.404C170.822 372.235 168.676 383.444 167.427 388.593L164.927 388.397C161.354 388.116 157.756 387.852 154.133 387.606C133.273 386.154 111.842 385.107 90.2674 384.407C84.0896 384.206 77.8968 384.033 71.689 383.888C76.2056 374.493 81.8363 357.179 86.4885 341.732C87.1133 339.61 87.7381 337.532 88.3252 335.507C88.8271 333.821 89.3038 332.185 89.7555 330.599C89.8157 330.373 89.8835 330.147 89.9512 329.921C90.019 329.696 90.1093 329.349 90.1996 329.063C90.4029 328.356 90.5986 327.641 90.8018 326.925C90.9072 326.594 90.9976 326.263 91.0879 325.932C91.2385 325.412 91.3815 324.893 91.5245 324.381C91.6676 323.869 91.7805 323.493 91.9009 323.064C92.0891 322.394 92.2698 321.731 92.4504 321.099C92.5558 320.692 92.6763 320.293 92.7741 319.91L93.5269 317.297C93.6172 316.996 93.685 316.718 93.7527 316.462C93.9033 315.942 94.0162 315.513 94.1141 315.197C94.1141 315.122 94.1517 315.047 94.1667 314.986C94.1818 314.926 94.2044 314.851 94.2194 314.791C94.2214 314.758 94.2214 314.725 94.2194 314.693V314.595C94.2872 314.332 94.3549 314.091 94.4152 313.842L94.6862 312.841C95.0927 311.335 95.311 310.53 95.311 310.53C93.9789 311.062 92.5339 311.248 91.1105 311.072C84.5915 310.583 75.0238 305.607 73.8795 299.028C73.8546 298.898 73.837 298.768 73.8268 298.636C73.7909 298.387 73.7708 298.135 73.7666 297.883C73.7674 295.821 74.483 293.824 75.7916 292.23C83.5451 281.925 88.6339 278.296 93.7151 276.505C94.3248 276.301 94.9195 276.113 95.5293 275.94C101.258 274.367 118.82 273.155 118.82 273.155C120.935 270.144 125.083 260.072 127.198 250.158C129.63 238.738 138.731 237.007 143.564 243.383C145.378 245.769 146.575 249.284 146.643 253.846C146.695 259.522 146.786 266.44 146.838 270.588C146.876 272.846 146.898 274.254 146.898 274.254C146.898 274.254 155.442 271.04 169.12 270.844C172.018 270.806 174.856 271.491 176.957 273.418C180.058 276.264 182.979 281.977 185.614 288.903C191.892 305.419 196.506 328.8 198.012 337.261C200.007 348.952 172.929 348.379 172.929 348.379Z" fill="#F9BDE0"/>
<path d="M178.589 332.882C171.86 334.408 164.848 334.125 158.264 332.061C151.233 335.215 125.398 340.071 108.107 338.414C90.8157 336.758 90.0779 330.676 90.0779 330.676L89.7241 330.593C91.7942 323.404 94.2408 314.589 94.2408 314.589C94.2408 314.589 95.3097 314.808 97.2518 315.116C113.96 317.541 130.968 316.955 147.469 313.385C147.469 313.385 161.019 317.209 174.524 314.378L178.589 332.882Z" fill="#FA9BD3"/>
<path d="M180.05 339.54C180.05 339.54 156.647 342.852 136.39 346.059C116.133 349.266 94.9872 347.565 86.5034 341.723L88.3477 335.49C95.9357 342.077 106.663 343.718 126.159 342.89C145.656 342.062 157.987 336.213 157.987 336.213C168.089 338.9 175.699 337.718 179.456 336.695L180.05 339.54Z" fill="#FA9BD3"/>
<path d="M185.651 288.924C175.06 288.118 162.263 293.169 151.618 302.662C142.404 310.867 124.616 321.27 111.202 307.931C108.484 305.264 105.317 303.098 101.845 301.533C93.828 297.889 83.9666 296.805 73.8042 297.889C73.8049 295.827 74.5206 293.829 75.8292 292.236C83.5827 281.93 88.6715 278.302 93.7527 276.511C94.3624 276.307 94.9571 276.119 95.5669 275.946C101.295 274.373 118.858 273.161 118.858 273.161C120.973 270.15 125.121 260.078 127.236 250.163C129.667 238.744 138.768 237.013 143.601 243.389C145.415 245.775 146.612 249.29 146.68 253.852C146.733 259.528 146.823 266.446 146.876 270.594C146.913 272.852 146.936 274.26 146.936 274.26C146.936 274.26 155.48 271.045 169.158 270.85C172.056 270.812 174.894 271.497 176.994 273.424C180.096 276.285 183.016 281.998 185.651 288.924Z" fill="#F7D0E7"/>
<path d="M172.763 350.407C170.821 372.237 168.676 383.446 167.426 388.595L164.927 388.399C161.354 388.118 157.756 387.855 154.132 387.609C133.273 386.156 111.842 385.11 90.2671 384.409C98.0733 376.204 112.286 372.915 121.454 377.552C131.745 382.753 148.554 377.868 144.128 365.387C141.501 357.987 143.149 349.15 157.956 342.932L172.763 350.407Z" fill="#F8ADD9"/>
<path d="M176.994 273.44C172.59 274.14 166.756 276.564 159.612 279.237C157.098 280.178 154.433 281.149 151.618 282.082C142.499 285.231 132.995 287.13 123.366 287.728C119.755 287.942 116.134 287.915 112.526 287.645C109.76 287.46 107.024 286.955 104.374 286.14C98.7054 284.303 95.5438 281.058 93.7446 276.542C94.3544 276.339 94.9566 276.15 95.5663 275.977C98.1484 275.27 103.154 274.637 107.852 274.148C110.825 273.832 113.693 273.591 115.748 273.433C117.645 273.275 118.857 273.192 118.857 273.192C120.972 270.181 125.12 260.109 127.236 250.195C129.667 238.775 138.768 237.044 143.601 243.42C145.415 245.806 146.612 249.322 146.68 253.883C146.732 259.559 146.823 266.477 146.875 270.625C146.913 272.883 146.936 274.291 146.936 274.291C148.975 273.589 151.06 273.026 153.176 272.605C155.224 272.168 157.738 271.739 160.651 271.408C163.476 271.09 166.315 270.914 169.157 270.881C171.978 270.862 174.728 271.76 176.994 273.44Z" fill="#B25E47"/>
<path d="M146.875 270.61C139.641 270.18 133.476 264.316 135.004 256.849C136.713 248.501 139.965 244.533 143.601 243.404C145.415 245.791 146.612 249.306 146.68 253.868C146.732 259.544 146.823 266.462 146.875 270.61Z" fill="#914839"/>
<path d="M160.651 271.393C160.074 273.971 159.729 276.596 159.62 279.236C157.106 280.177 154.441 281.149 151.625 282.082C151.748 278.865 152.271 275.677 153.184 272.59C155.224 272.153 157.738 271.724 160.651 271.393Z" fill="#FED81D"/>
<path d="M115.748 273.426C114.188 278.042 113.108 282.807 112.527 287.646C109.76 287.46 107.024 286.955 104.374 286.14C105.152 282.042 106.317 278.027 107.852 274.148C110.825 273.802 113.701 273.584 115.748 273.426Z" fill="#FED81D"/>
<path d="M183.783 364.186C182.986 371.909 181.525 379.587 178.988 384.955C177.423 388.259 175.443 390.676 172.928 391.684C167.877 393.724 163.534 393.19 160.071 391.27C153.868 387.845 150.511 380.054 151.038 375.003C151.038 374.762 151.083 374.491 151.113 374.25C151.173 373.497 151.226 372.692 151.279 371.789C151.279 371.495 151.279 371.186 151.339 370.87C151.339 370.81 151.339 370.75 151.339 370.682C151.339 370.456 151.339 370.223 151.339 369.99C151.339 369.576 151.384 369.139 151.399 368.71C151.414 368.281 151.399 368.032 151.444 367.679C151.444 367.558 151.444 367.438 151.444 367.317C151.444 366.966 151.459 366.605 151.49 366.233C151.49 365.857 151.49 365.48 151.542 365.081C151.542 364.223 151.602 363.358 151.633 362.454C151.663 361.551 151.685 360.851 151.715 360.03C151.715 359.677 151.715 359.323 151.715 358.976C151.783 357.072 151.836 355.092 151.896 353.082C151.934 351.818 151.971 350.538 152.016 349.251L152.062 347.662L152.129 345.487L152.175 343.981C152.175 343.108 152.242 342.25 152.265 341.392C152.31 340.15 152.355 338.915 152.4 337.703C152.4 336.905 152.468 336.115 152.498 335.332C152.558 333.864 152.626 332.456 152.694 331.094L184.536 335.528C184.923 345.086 184.672 354.66 183.783 364.186Z" fill="#F9BDE0"/>
<path d="M152.747 331.012C151.994 345.48 151.761 367.145 150.993 374.989" stroke="#DA94BD" stroke-width="0.75" stroke-linecap="round" stroke-linejoin="round"/>
<path d="M183.784 364.188C182.986 371.911 181.525 379.589 178.988 384.956C177.423 388.261 175.443 390.678 172.929 391.686C167.878 393.726 163.534 393.192 160.071 391.272C161.86 390.474 163.745 389.915 165.679 389.609C174.133 388.171 171.468 377.775 175.142 370.556C176.625 367.673 179.131 365.287 183.784 364.188Z" fill="#F8ADD9"/>
<path d="M105.495 407.155C103.342 409.037 101.919 416.941 107.106 423.249C112.293 429.557 117.366 425.507 117.366 425.507C117.366 425.507 124.804 419.101 119.625 409.571C114.446 400.041 105.495 407.155 105.495 407.155Z" fill="#FA9BD3"/>
<path d="M116.771 405.635C111.321 408.262 107.445 410.031 106.466 409.963C105.487 409.896 96.3563 411.017 93.7291 411.808C91.102 412.598 85.1325 418.891 85.7196 419.81C86.3068 420.728 88.6103 420.563 88.6103 420.563C88.6103 420.563 79.577 427.194 78.6963 429.596C77.8155 431.997 80.5406 431.433 80.5406 431.433C79.1329 432.185 77.1983 436.205 82.1139 434.715C80.932 435.467 80.2169 437.688 83.5592 436.883C88.4146 435.701 96.3563 432.419 96.3563 432.419C96.3563 432.419 90.8385 436.551 88.6103 437.605C86.3821 438.659 86.2466 441.083 91.0417 439.706C95.8369 438.328 105.149 431.831 108.356 429.528C111.562 427.225 114.656 425.267 115.379 424.808C116.102 424.349 122.997 421.195 122.997 421.195C122.997 421.195 129.697 404.325 116.771 405.635Z" fill="#B25E47"/>
<path d="M88.6104 420.596C91.9602 418.232 96.6198 414.785 97.606 414.672" stroke="#934735" stroke-width="0.75" stroke-linecap="round" stroke-linejoin="round"/>
<path d="M80.5786 431.491C80.7141 431.123 94.0834 422.541 94.0834 422.541" stroke="#934735" stroke-width="0.75" stroke-linecap="round" stroke-linejoin="round"/>
<path d="M93.7291 411.805C91.102 412.557 85.1325 418.888 85.7196 419.807C86.3068 420.725 88.6103 420.559 88.6103 420.559C88.6103 420.559 79.577 427.191 78.6963 429.593C77.8155 431.994 80.5406 431.429 80.5406 431.429C79.1329 432.182 77.1983 436.202 82.1139 434.712C80.932 435.464 80.2169 437.685 83.5592 436.88C88.4146 435.698 96.3563 432.416 96.3563 432.416C96.3563 432.416 90.8385 436.548 88.6103 437.602C86.3821 438.656 86.2466 441.08 91.0417 439.702C92.2093 439.335 93.3427 438.866 94.4292 438.302" stroke="#934735" stroke-width="0.75" stroke-linecap="round" stroke-linejoin="round"/>
<path d="M178.989 384.955C177.747 390.661 163.745 400.116 149.405 408.464C133.822 417.497 117.841 425.288 117.367 425.514C120.769 420.087 120.054 405.408 105.503 407.131C105.503 407.131 143.751 380.032 150.94 374.16C150.985 374.121 151.033 374.085 151.083 374.055C159.273 367.46 169.458 366.256 175.172 370.554C178.672 373.234 180.472 378.022 178.989 384.955Z" fill="#F9BDE0"/>
<path d="M178.988 384.955C177.746 390.661 163.745 400.116 149.404 408.464C151.188 400.184 153.545 394.252 160.056 391.271C161.844 390.473 163.73 389.913 165.664 389.607C174.118 388.17 171.453 377.774 175.127 370.555C178.672 373.235 180.471 378.022 178.988 384.955Z" fill="#F8ADD9"/>
<path d="M138.331 383.609C144.045 379.446 148.832 375.893 150.948 374.177C153.985 371.672 157.517 369.835 161.313 368.787" stroke="#DA94BD" stroke-width="0.75" stroke-linecap="round" stroke-linejoin="round"/>
<path d="M95.6343 276.459C97.8356 276.229 99.4928 276.723 100.709 277.763C101.938 278.812 102.783 280.473 103.234 282.701C104.082 286.89 103.505 292.9 101.732 299.97L101.362 301.395C100.102 305.989 98.5803 310.508 96.8032 314.928V314.929C94.69 320.217 92.3105 325.395 89.6733 330.442L89.6714 330.445C89.2027 331.357 88.7211 332.266 88.2271 333.175L87.729 334.083L87.7231 334.095C87.6273 334.279 87.5267 334.464 87.4214 334.64L87.4165 334.648L87.4116 334.656C86.5646 336.2 85.672 337.746 84.7632 339.278C82.297 343.429 79.9345 347.245 77.6753 350.727L77.6724 350.731C74.2548 356.121 70.4627 361.263 66.3247 366.121C58.7127 374.835 52.2124 378.427 45.9692 377.246H45.9702C44.7569 377.012 43.5777 376.626 42.4614 376.097V376.096L42.4565 376.094L42.0122 375.875C40.9887 375.339 40.068 374.624 39.2944 373.762C38.4106 372.777 37.7377 371.622 37.3169 370.367L37.314 370.359C36.9003 369.184 36.6364 367.96 36.5278 366.719L36.5269 366.714C36.0488 361.749 37.402 355.288 40.3774 347.83C42.0758 343.655 44.0222 339.585 46.2075 335.644H46.2085C46.8415 334.498 47.4847 333.402 48.1626 332.198C50.3225 328.509 52.7608 324.697 55.4399 320.825C55.7092 320.447 55.9783 320.079 56.2456 319.66C57.1346 318.379 57.9985 317.123 58.8374 315.893L61.4038 312.128C61.6071 311.831 61.7858 311.56 61.98 311.284L61.9849 311.277C65.0591 306.756 67.8396 302.6 70.4419 298.869H70.4429L70.4487 298.86L70.5601 298.692L72.0659 296.577C76.402 290.485 80.2299 285.672 84.019 282.269C87.8012 278.872 91.5176 276.904 95.6343 276.459Z" fill="#F9BDE0" stroke="#E195C1"/>
<path d="M95.6191 276.459C97.8246 276.229 99.4853 276.723 100.704 277.763C101.934 278.812 102.779 280.474 103.231 282.701C104.116 287.059 103.453 293.387 101.508 300.83C92.8209 297.016 82.1122 296.183 71.2266 297.733L72.0508 296.577C76.3868 290.485 80.2148 285.672 84.0039 282.269C87.7861 278.872 91.5025 276.904 95.6191 276.459Z" fill="#F9BDE0" stroke="#F9BDE0"/>
<path d="M70.0107 299.482C73.2368 304.335 80.6919 312.048 96.5781 315.479C94.5651 320.466 92.316 325.354 89.8359 330.125C89.7164 330.106 89.5668 330.082 89.3896 330.049C88.8727 329.953 88.1198 329.797 87.1836 329.556C85.3106 329.073 82.7072 328.249 79.7949 326.89C74.0309 324.198 67.0725 319.412 62.1543 311.015C64.9916 306.84 67.5819 302.981 70.0107 299.482Z" fill="#FA9BD3" stroke="#E195C1"/>
<path d="M58.4048 316.513C63.5382 324.289 70.8391 328.846 76.8979 331.466C80.0106 332.811 82.8031 333.649 84.8188 334.15C85.8269 334.401 86.6421 334.568 87.2065 334.673C87.2636 334.683 87.3187 334.692 87.3706 334.701L84.9331 338.952C84.7792 338.918 84.5765 338.873 84.3306 338.813C83.714 338.664 82.823 338.432 81.731 338.105C79.5458 337.451 76.5598 336.417 73.3579 334.896C67.0097 331.88 59.8892 326.985 56.4019 319.424C57.0848 318.439 57.7516 317.468 58.4048 316.513Z" fill="#FA9BD3" stroke="#E4A1C8"/>
<path d="M73.4572 340.161C73.4572 340.161 72.3055 349.488 67.5856 363.994C67.3146 364.837 67.021 365.65 66.6973 366.455C62.9334 376.008 56.2187 383.129 49.5793 385.561C47.257 386.482 44.7148 386.7 42.2698 386.186C33.2968 384.123 29.2695 376.761 31.6934 363.994C32.7774 358.273 35.7584 352.762 39.8986 347.666C42.2632 344.787 44.8562 342.104 47.6522 339.642C51.2034 336.507 54.9772 333.634 58.9438 331.045L73.4572 340.161Z" fill="#F9BDE0"/>
<path d="M49.5793 385.56C47.257 386.481 44.7148 386.699 42.2698 386.185C33.2968 384.122 29.2695 376.76 31.6934 363.993C32.7774 358.272 35.7583 352.761 39.8986 347.665C42.2632 344.786 44.8562 342.103 47.6522 339.641C48.3894 341.933 48.5069 344.379 47.9925 346.731C47.4782 349.083 46.3505 351.257 44.7239 353.032C40.6965 357.549 36.5186 362.6 36.0143 366.786C35.8126 368.098 36.1021 369.438 36.8273 370.549C37.5505 371.579 38.5282 372.404 39.6652 372.943C42.0085 374.159 44.1085 375.794 45.8606 377.769C47.9984 380.192 49.376 382.955 49.5793 385.56Z" fill="#F8ADD9"/>
<path d="M67.5859 363.999C68.7 360.567 69.6184 357.435 70.3637 354.635" stroke="#E195C1" stroke-width="0.75" stroke-linecap="round" stroke-linejoin="round"/>
<path d="M51.2801 336.592C41.5467 344.345 33.6125 353.823 31.708 364" stroke="#E295C1" stroke-width="0.75" stroke-linecap="round" stroke-linejoin="round"/>
<path d="M56.0158 338.691C53.7575 342.613 50.5432 349.23 53.2532 353.529C55.9631 357.827 61.8498 358.798 66.3439 354.643C70.8379 350.487 73.1188 346.362 73.4576 341.906L56.0158 338.691Z" fill="#FA9BD3"/>
<path d="M62.8356 330.013C61.8645 328.831 64.3412 327.243 66.1403 328.357C67.9452 329.519 69.9038 330.424 71.9592 331.044C73.4648 331.375 74.4133 335.229 73.7207 335.937C73.7207 335.937 64.0175 331.413 62.8356 330.013Z" fill="#B25E47"/>
<path d="M71.959 331.012C73.4645 331.343 74.413 335.197 73.7205 335.905" stroke="#934735" stroke-width="0.75" stroke-linecap="round" stroke-linejoin="round"/>
<path d="M42.3459 321.226C40.3134 319.954 42.4287 316.266 44.4687 317.116C46.5087 317.967 76.9508 337.787 76.9508 337.787L79.2091 341.551L74.6925 340.949C74.6925 340.949 44.0396 322.318 42.3459 321.226Z" fill="#683F1D"/>
<path d="M55.9177 333.113C55.4359 330.222 59.2299 329.454 61.1043 330.802C62.9787 332.149 69.5956 335.221 71.7561 335.936C73.9165 336.651 75.2715 339.346 73.9241 340.287C73.9241 340.287 75.2715 342.206 73.6907 343.087C72.9918 343.529 72.2305 343.864 71.4324 344.081C71.4324 344.081 72.0798 346.151 67.1641 348.311C67.1641 348.311 66.4114 351.322 63.7692 352.075C61.1269 352.828 56.2414 352.248 55.1047 351.322C53.968 350.396 53.4035 347.558 54.5176 346.52C54.5176 346.52 51.6947 345.195 52.199 343.117C52.8765 340.317 54.8036 341.13 54.224 340.023C53.6443 338.917 52.7184 336.831 54.1638 335.966C55.6091 335.1 56.1812 334.663 55.9177 333.113Z" fill="#B25E47"/>
<path d="M71.7559 335.938C73.9239 336.653 75.2714 339.348 73.9239 340.289C73.9239 340.289 75.2714 342.208 73.6906 343.089C72.9917 343.531 72.2304 343.866 71.4323 344.082C71.4323 344.082 72.0796 346.153 67.164 348.313C67.164 348.313 66.4113 351.324 63.769 352.077" stroke="#934735" stroke-width="0.75" stroke-linecap="round" stroke-linejoin="round"/>
<path d="M56.7534 341.5C60.4895 342.897 64.3745 343.856 68.3311 344.361C69.3809 344.356 70.4285 344.263 71.4626 344.082" stroke="#934735" stroke-width="0.75" stroke-linecap="round" stroke-linejoin="round"/>
<path d="M73.9241 340.285C73.9241 340.285 68.4288 340.443 67.262 340.285C66.2307 340.142 58.3643 337.033 58.3643 337.033" stroke="#934735" stroke-width="0.75" stroke-linecap="round" stroke-linejoin="round"/>
<path d="M58.2139 347.666C58.2139 347.666 64.0177 348.833 67.1944 348.313" stroke="#934735" stroke-width="0.75" stroke-linecap="round" stroke-linejoin="round"/>
<path d="M128.523 228.177C126.758 231.332 124.213 233.981 121.131 235.87C115.899 239.137 111.48 236.683 109.598 234.184C108.906 233.25 108.921 230.714 109.455 227.853C110.366 223.013 112.76 217.216 115.703 216.562C117.408 216.155 119.183 216.134 120.897 216.501C122.611 216.869 124.221 217.614 125.61 218.684C126.087 219.052 126.514 219.48 126.882 219.957C128.862 222.486 128.922 222.614 128.523 228.177Z" fill="#FFEACC"/>
<path d="M128.523 228.177C126.758 231.332 124.213 233.981 121.131 235.87C115.899 239.137 111.48 236.683 109.598 234.184C108.906 233.251 108.921 230.714 109.455 227.853C112.007 232.37 116.501 234.169 118.27 232.724C120.785 230.653 116.96 220.574 125.61 218.654C126.087 219.022 126.514 219.45 126.882 219.926C128.862 222.486 128.922 222.614 128.523 228.177Z" fill="#EDD6B7"/>
<path d="M121.981 229.389C123.427 229.013 123.75 225.746 122.358 225.535C120.965 225.324 119.881 227.62 120.22 229.389C120.431 230.511 121.281 231.286 123.908 230.654" stroke="#C6AB8B" stroke-width="0.75" stroke-linecap="round" stroke-linejoin="round"/>
<path d="M120.475 232.919C114.581 232.784 112.39 231.67 111.946 229.035C111.502 226.4 111.238 221.959 111.238 221.959" stroke="#C6AB8B" stroke-width="0.75" stroke-linecap="round" stroke-linejoin="round"/>
<path d="M117.381 232.716C115.842 231.415 114.783 229.637 114.37 227.665C113.889 224.654 116.29 220.634 117.916 220.446C120.724 220.129 126.949 222.538 126.452 227.409" stroke="#C6AB8B" stroke-width="0.75" stroke-linecap="round" stroke-linejoin="round"/>
<path d="M150.888 260.741C145.257 263.39 135.019 260.741 129.17 254.387C121.853 246.43 128.131 228.793 136.487 226.294C144.843 223.794 149.171 232.64 151.618 239.738L151.663 239.889C152.297 241.754 152.825 243.654 153.244 245.58C154.561 251.587 154.998 258.806 150.888 260.741Z" fill="#B25E47"/>
<path d="M128.929 242.56C128.485 244.111 130.736 246.121 133.965 247.077C137.194 248.033 140.16 247.484 140.604 245.925C141.049 244.367 138.798 242.357 135.576 241.409C132.354 240.46 129.373 241.002 128.929 242.56Z" fill="#A0503D"/>
<path d="M153.244 245.578C151.625 246.263 150.188 246.285 149.518 245.495C148.562 244.351 149.518 241.949 151.663 239.887C152.297 241.752 152.825 243.652 153.244 245.578Z" fill="#A0503D"/>
<path d="M146.175 238.195C146.174 238.413 146.237 238.627 146.357 238.808C146.478 238.99 146.649 239.132 146.85 239.217C147.051 239.301 147.273 239.323 147.487 239.281C147.701 239.239 147.897 239.134 148.051 238.98C148.206 238.826 148.31 238.629 148.353 238.415C148.395 238.201 148.372 237.98 148.288 237.779C148.204 237.577 148.062 237.406 147.88 237.286C147.698 237.165 147.485 237.102 147.267 237.104C146.978 237.106 146.701 237.221 146.497 237.425C146.293 237.63 146.177 237.906 146.175 238.195Z" fill="#683F1D"/>
<path d="M140.047 239.746C140.047 239.963 140.112 240.176 140.233 240.357C140.354 240.538 140.526 240.679 140.728 240.762C140.929 240.845 141.15 240.866 141.364 240.823C141.577 240.78 141.773 240.674 141.926 240.52C142.08 240.366 142.184 240.169 142.225 239.955C142.267 239.742 142.244 239.52 142.16 239.32C142.075 239.119 141.933 238.948 141.752 238.828C141.57 238.708 141.357 238.645 141.139 238.647C140.995 238.647 140.852 238.675 140.719 238.73C140.587 238.786 140.466 238.867 140.364 238.969C140.263 239.071 140.183 239.192 140.128 239.326C140.074 239.459 140.046 239.602 140.047 239.746Z" fill="#683F1D"/>
<path d="M137.293 244.443C137.293 244.546 137.323 244.646 137.381 244.732C137.438 244.817 137.519 244.884 137.614 244.923C137.709 244.962 137.813 244.973 137.914 244.953C138.014 244.933 138.107 244.883 138.18 244.811C138.252 244.738 138.302 244.645 138.322 244.545C138.342 244.444 138.332 244.339 138.292 244.244C138.253 244.15 138.186 244.068 138.101 244.011C138.016 243.954 137.915 243.924 137.812 243.924C137.675 243.924 137.543 243.979 137.445 244.076C137.348 244.173 137.293 244.305 137.293 244.443Z" fill="#914839"/>
<path d="M139.536 242.863C139.822 242.863 140.055 242.63 140.055 242.344C140.055 242.057 139.822 241.824 139.536 241.824C139.249 241.824 139.016 242.057 139.016 242.344C139.016 242.63 139.249 242.863 139.536 242.863Z" fill="#914839"/>
<path d="M140.055 244.744C140.342 244.744 140.574 244.511 140.574 244.224C140.574 243.938 140.342 243.705 140.055 243.705C139.768 243.705 139.536 243.938 139.536 244.224C139.536 244.511 139.768 244.744 140.055 244.744Z" fill="#914839"/>
<path d="M141.448 242.865C141.448 242.968 141.478 243.068 141.535 243.154C141.592 243.239 141.673 243.306 141.768 243.345C141.863 243.384 141.968 243.395 142.069 243.375C142.169 243.355 142.262 243.305 142.334 243.232C142.407 243.16 142.457 243.067 142.477 242.966C142.497 242.866 142.486 242.761 142.447 242.666C142.408 242.571 142.341 242.49 142.256 242.433C142.17 242.376 142.07 242.346 141.967 242.346C141.829 242.346 141.697 242.4 141.6 242.498C141.502 242.595 141.448 242.727 141.448 242.865Z" fill="#914839"/>
<path d="M149.954 240.922C149.954 241.024 149.985 241.125 150.042 241.21C150.099 241.296 150.18 241.362 150.275 241.402C150.37 241.441 150.474 241.451 150.575 241.431C150.676 241.411 150.768 241.362 150.841 241.289C150.913 241.216 150.963 241.124 150.983 241.023C151.003 240.922 150.993 240.818 150.953 240.723C150.914 240.628 150.848 240.547 150.762 240.49C150.677 240.433 150.576 240.402 150.474 240.402C150.336 240.402 150.204 240.457 150.106 240.554C150.009 240.652 149.954 240.784 149.954 240.922Z" fill="#914839"/>
<path d="M148.606 240.664C148.893 240.664 149.126 240.431 149.126 240.144C149.126 239.858 148.893 239.625 148.606 239.625C148.319 239.625 148.087 239.858 148.087 240.144C148.087 240.431 148.319 240.664 148.606 240.664Z" fill="#914839"/>
<path d="M156.563 239.444C155.931 240.197 155.163 240.573 154.824 240.197C154.162 239.489 156.066 238.375 154.824 237.096C153.582 235.816 150.428 236.576 150.428 236.576C145.843 224.592 138.895 224.968 134.77 227.031C130.645 229.094 130.254 232.699 130.193 234.86C130.133 237.02 130.118 237.758 133.204 239.489C136.291 241.221 133.415 243.931 132.918 246.076C132.422 248.222 134.695 247.582 135.929 249.72C137.164 251.858 134.687 252.904 134.793 251.978C134.898 251.052 134.04 249.863 133.159 250.066C132.279 250.269 130.509 249.614 130.427 248.56C130.344 247.506 129.674 245.045 128.56 244.684C124.668 243.404 122.643 247.16 123.177 250.096C123.352 250.971 123.725 251.793 124.268 252.501C124.811 253.208 125.509 253.781 126.309 254.176C126.309 254.176 124.051 255.29 120.249 250.638C119.433 249.632 118.859 248.453 118.571 247.19C117.464 242.568 119.722 236.915 121.875 233.543C124.608 229.237 125.684 229.026 125.684 229.026C126.954 226.118 128.857 223.531 131.255 221.453C135.372 217.772 139.016 220.873 139.016 220.873C142.983 218.103 147.71 219.217 149.065 221.792C150.42 224.366 149.901 228.409 150.112 229.734C150.322 231.058 151.354 233.294 153.876 233.294C156.397 233.294 157.361 234.25 157.519 236.561C157.577 237.609 157.235 238.639 156.563 239.444Z" fill="#FFEACC"/>
<path d="M156.563 239.444C155.93 240.197 155.163 240.573 154.824 240.197C154.161 239.489 156.066 238.375 154.824 237.096C153.582 235.816 150.428 236.576 150.428 236.576C145.843 224.592 138.895 224.968 134.77 227.031C130.645 229.094 130.253 232.699 130.193 234.86C130.133 237.02 130.118 237.758 133.204 239.489C136.291 241.221 133.415 243.931 132.918 246.076C132.421 248.222 134.695 247.582 135.929 249.72C137.164 251.857 134.687 252.904 134.793 251.978C134.898 251.052 134.04 249.863 133.159 250.066C132.278 250.269 130.509 249.614 130.426 248.56C130.344 247.506 129.832 245.451 128.545 244.924C124.577 243.291 122.831 247.183 123.365 250.096C123.564 250.986 123.972 251.816 124.556 252.517C125.14 253.217 125.883 253.768 126.723 254.123C126.723 254.123 124.751 256.231 120.249 250.638C119.437 249.629 118.864 248.451 118.57 247.19C122.455 243.645 122.259 240.069 124.856 239.294C128.033 238.345 127.619 232.029 131.277 225.857C134.936 219.684 141.116 224.058 142.644 225.518C142.644 225.518 147.063 223.26 148.38 229.026C149.697 234.792 152.663 235.673 154.666 235.477C155.855 235.357 156.841 237.419 156.563 239.444Z" fill="#EDD6B7"/>
<path d="M128.523 240.801C129.976 241.027 130.698 243.187 129.908 246.454" stroke="#C6AB8B" stroke-width="0.75" stroke-linecap="round" stroke-linejoin="round"/>
<path d="M130.555 230.938C132.64 224.998 133.611 224.547 134.236 224.163C135.372 223.478 137.917 224.231 137.917 224.231" stroke="#C6AB8B" stroke-width="0.75" stroke-linecap="round" stroke-linejoin="round"/>
<path d="M139.016 220.873C140.292 221.966 141.497 223.14 142.622 224.388" stroke="#C6AB8B" stroke-width="0.75" stroke-linecap="round" stroke-linejoin="round"/>
<path d="M123.231 247.452C121.146 244.381 119.061 237.598 122.817 232.096" stroke="#C6AB8B" stroke-width="0.75" stroke-linecap="round" stroke-linejoin="round"/>
<path d="M125.308 244.865C123.802 241.756 122.628 235.779 125.684 229.057" stroke="#C6AB8B" stroke-width="0.75" stroke-linecap="round" stroke-linejoin="round"/>
<path d="M144.436 235.479C143.495 238.986 144.88 240.409 146.528 240.838C148.177 241.267 149.494 242.11 149.306 243.571" stroke="#934735" stroke-width="0.75" stroke-linecap="round" stroke-linejoin="round"/>
<path d="M135.049 236.916C135.802 237.669 140.318 234.718 139.159 232.979C138 231.24 133.95 235.862 135.049 236.916Z" fill="#FFEACC"/>
<path d="M143.277 231.917C143.277 233.686 147.793 232.73 147.711 232.15C147.575 231.104 143.269 230.298 143.277 231.917Z" fill="#FFEACC"/>
<path d="M143.149 246.213C143.827 246.869 144.674 247.322 145.596 247.521C146.518 247.721 147.477 247.659 148.366 247.342" stroke="#934735" stroke-width="0.75" stroke-linecap="round" stroke-linejoin="round"/>
<path d="M131.255 249.711V254.077C129.793 254.568 128.213 254.589 126.739 254.137H126.663C125.637 253.782 124.743 253.123 124.101 252.248C123.458 251.372 123.097 250.322 123.065 249.237C123.015 248.532 123.13 247.825 123.401 247.171C123.671 246.518 124.09 245.937 124.623 245.473C124.978 245.17 125.383 244.931 125.82 244.765C126.725 244.528 127.684 244.616 128.53 245.014C129.81 245.541 130.322 247.558 130.412 248.65C130.46 248.88 130.561 249.096 130.707 249.281C130.854 249.465 131.041 249.612 131.255 249.711Z" fill="#B25E47"/>
<path d="M124.833 248.729C125.278 247.592 128.228 246.327 129.621 249.429" stroke="#934735" stroke-width="0.75" stroke-linecap="round" stroke-linejoin="round"/>
<path d="M129.396 248.961C126.166 247.086 124.834 251.889 129.019 251.595" stroke="#934735" stroke-width="0.75" stroke-linecap="round" stroke-linejoin="round"/>
<path d="M131.255 254.065C129.598 254.64 127.787 254.587 126.167 253.914" stroke="#934735" stroke-width="0.75" stroke-linecap="round" stroke-linejoin="round"/>
<path d="M506 405.03L543.803 391L581.317 395.078C581.317 395.078 583.889 395.955 582.674 399.04L545.562 417L506 405.03Z" fill="#B8DB9C" stroke="#EDEDED" stroke-linecap="round" stroke-linejoin="round"/>
<path d="M546 412C546 412 570.301 400.32 581 394L546 412Z" fill="#F9F9F9"/>
<path d="M546 412C546 412 570.301 400.32 581 394" stroke="#EDEDED" stroke-linecap="round" stroke-linejoin="round"/>
<path d="M506 405C506 405 544.093 410.433 546.314 412.229C547.328 413.048 547.417 417.263 545.201 416.987C542.984 416.711 506 411.313 506 411.313C506 411.313 511.42 408.919 506 405Z" fill="#EDEDED" stroke="#DDDDDD" stroke-linecap="round" stroke-linejoin="round"/>
<path d="M216.586 394L265.009 402.887C265.009 402.887 261.69 408.15 266 409.699L231.047 419C231.047 419 186.404 409.018 184.794 408.333C183.184 407.648 181.445 404.372 185.468 403.099C189.49 401.825 216.586 394 216.586 394Z" fill="#F9F9F9" stroke="#DDDDDD" stroke-linecap="round" stroke-linejoin="round"/>
<path d="M230.749 419C228.924 418.794 227.715 415.014 231.379 413.724C234.909 412.477 265 403 265 403" fill="#F9F9F9"/>
<path d="M230.749 419C228.924 418.794 227.715 415.014 231.379 413.724C234.909 412.477 265 403 265 403" stroke="#EDEDED" stroke-linecap="round" stroke-linejoin="round"/>
<path d="M191 406L224 413" stroke="#DDDDDD" stroke-linecap="round" stroke-linejoin="round"/>
<path d="M701.062 412.647C708.838 410.877 707.44 408.453 705.406 403.766C703.373 399.08 697.182 394.482 687.529 396.479C677.876 398.477 677.876 407.556 685.413 410.149C692.95 412.742 697.122 413.543 701.062 412.647Z" fill="#F9F9F9" stroke="#EDEDED" stroke-linecap="round" stroke-linejoin="round"/>
<path d="M703 406C703.82 407.598 704.49 409.272 705 411L703 406Z" fill="#F9F9F9"/>
<path d="M703 406C703.82 407.598 704.49 409.272 705 411" stroke="#DDDDDD" stroke-linecap="round" stroke-linejoin="round"/>
<path d="M699.333 403.339C700.094 404.434 700.96 405.462 701.92 406.409C703.018 407.435 704.19 407.027 703.974 405.939C703.568 404.223 702.71 402.631 701.479 401.31C701.184 401.091 700.814 400.982 700.44 401.003C700.065 401.024 699.711 401.174 699.446 401.424C699.181 401.675 699.023 402.008 699.002 402.361C698.982 402.714 699.099 403.062 699.333 403.339Z" fill="#F9F9F9" stroke="#DDDDDD" stroke-linecap="round" stroke-linejoin="round"/>
<path d="M327 403.858L361.978 390L396.69 393.57C396.69 393.57 399.042 396.3 397.443 399.404L363.607 415L327 403.858Z" fill="#BAA6E9" stroke="#DDDDDD" stroke-linecap="round" stroke-linejoin="round"/>
<path d="M364 410C364 410 391.642 397.01 396 393L364 410Z" fill="#F9F9F9"/>
<path d="M364 410C364 410 391.642 397.01 396 393" stroke="#DDDDDD" stroke-linecap="round" stroke-linejoin="round"/>
<path d="M327 404C327 404 362.305 408.789 364.367 410.471C365.301 411.237 365.39 415.232 363.329 414.989C361.267 414.747 327 409.982 327 409.982C327 409.982 332.002 407.665 327 404Z" fill="#F9F9F9" stroke="#EDEDED" stroke-linecap="round" stroke-linejoin="round"/>
<path d="M432.567 104.754H424.596L432.886 135.681L428.582 145.086H436.234L454.566 104.754H446.596L437.828 127.072L432.567 104.754Z" fill="white"/>
<path d="M435.915 87.3784L426.35 80.3642C424.31 80.1091 424.012 81.5332 424.118 82.2771L434.64 96.1461C435.277 97.1664 436.181 96.5712 436.553 96.1461L457.276 73.0311C457.531 70.8631 455.895 70.8525 455.045 71.1182L435.915 87.3784Z" fill="white"/>
<path d="M424.596 97.2611L425.234 91.044C416.817 90.0237 414.234 92.3193 412.321 94.2323C409.93 96.6235 409.611 102.044 409.611 104.913H405.945L405.307 110.811H408.495L406.104 134.723H413.597L416.147 110.811H422.046L422.683 104.913H416.626C416.626 101.246 417.635 98.9615 418.379 98.377C419.909 96.9742 423.161 97.0486 424.596 97.2611Z" fill="white"/>
<path d="M402.597 104.913H394.946L391.757 134.723H399.25L402.597 104.913Z" fill="white"/>
<path d="M404.032 95.5072C403.905 91.5537 400.897 90.7779 399.409 90.8842C395.966 90.8842 394.999 93.9662 394.946 95.5072C394.946 98.6954 397.921 99.5988 399.409 99.6519C402.98 99.5244 403.979 96.8356 404.032 95.5072Z" fill="white"/>
<path d="M375.019 91.5234H367.367L362.903 134.565H370.715L371.99 122.45L380.12 134.565H388.569L378.366 119.102L391.757 104.755H382.671L372.628 116.233L375.019 91.5234Z" fill="white"/>
<path d="M358.599 112.565L360.99 106.507C356.017 103.574 349.778 103.691 347.281 104.116C338.226 105.391 337.131 112.193 337.716 115.434C338.226 119.898 344.686 121.789 347.759 122.608C352.541 123.883 352.541 125.159 352.541 126.275C350.501 131.631 341.595 128.719 337.397 126.593L334.687 132.332C339.788 136.158 347.44 135.839 350.628 135.202C359.3 133.544 360.512 127.39 359.874 123.564C359.024 118.463 353.445 116.816 350.15 116.231C345.942 115.211 344.996 113.575 345.049 112.884C345.176 110.716 348.503 110.174 350.15 110.174C353.211 110.174 357.058 111.768 358.599 112.565Z" fill="white"/>
<path d="M312.209 93.7559H272.356C271.208 94.7761 271.878 95.9877 272.356 96.4659H279.37C280.263 97.6137 279.742 98.6445 279.37 99.0165H273.791C272.388 99.9092 273.206 100.983 273.791 101.408H290.848L287.341 134.566H295.152L298.819 101.408H311.731L312.209 93.7559Z" fill="white"/>
<path d="M269.487 99.0165H264.704C263.429 100.037 264.173 101.036 264.704 101.408H269.487C270.762 100.515 270.018 99.4416 269.487 99.0165Z" fill="white"/>
<path d="M284.95 107.944H272.037C270.889 108.836 271.559 109.91 272.037 110.335H284.95C286.097 109.315 285.428 108.316 284.95 107.944Z" fill="white"/>
<path d="M284.312 116.552H275.863C274.715 117.445 275.385 118.518 275.863 118.943H284.312C285.332 117.923 284.737 116.924 284.312 116.552Z" fill="white"/>
<path d="M283.674 125.479H273.152C271.877 126.626 272.621 127.657 273.152 128.029H283.674C284.821 126.881 284.152 125.85 283.674 125.479Z" fill="white"/>
<path fill-rule="evenodd" clip-rule="evenodd" d="M311.093 113.044L309.978 106.827C327.194 99.4302 332.242 108.634 332.614 114.16L330.542 134.884H323.209V132.174C319.255 136.127 312.847 135.628 310.137 134.884C305.163 133.481 304.132 128.667 304.239 126.435C305.641 114.957 318.639 115.595 324.962 117.348V114.16C323.432 108.804 315.079 111.184 311.093 113.044ZM324.484 122.29L324.006 127.073C323.315 127.923 320.881 129.687 316.673 129.942C315.238 129.942 312.305 129.145 312.05 125.957C312.05 124.734 312.974 122.067 316.673 121.174C318.32 121.015 322.189 121.015 324.484 122.29Z" fill="white"/>
</g>
<defs>
<clipPath id="clip0_39720_14650">
<rect width="722" height="422.761" rx="8" fill="white"/>
</clipPath>
</defs>
</svg>
