<svg width="24" height="30" viewBox="0 0 24 30" fill="none" xmlns="http://www.w3.org/2000/svg">
<path d="M23.8021 3.51775C23.7911 3.49599 23.7657 3.48149 23.7403 3.48874C23.5185 3.58302 23.2968 3.66279 23.0677 3.74619C22.4389 3.97825 21.7845 4.13054 21.1302 4.28284C20.3813 4.44963 19.618 4.56929 18.8727 4.75422C18.2293 4.91014 17.5895 5.09869 16.9715 5.34526C16.5062 5.52656 16.0482 5.72236 15.6193 5.97255C15.1103 6.25176 14.6996 6.66875 14.2997 7.08211C13.9325 7.46647 13.5617 7.85082 13.2382 8.27507C13.0564 8.51438 12.9038 8.77545 12.7584 9.03653C12.9874 8.17354 13.3073 7.3033 13.8925 6.61436C13.9362 6.55997 13.8853 6.4947 13.8235 6.52371C13.6744 6.59623 13.5363 6.6905 13.3945 6.77753C12.3112 7.50998 11.3443 8.42011 10.5118 9.42451C10.1047 9.92127 9.71208 10.4289 9.38855 10.9837C9.01413 11.6327 8.73058 12.3326 8.52701 13.0541C8.5052 12.6263 8.54155 12.1984 8.59972 11.7742C8.61062 11.698 8.62153 11.6255 8.62516 11.5493C8.62516 11.4986 8.6397 11.4261 8.58881 11.3971C8.55246 11.3789 8.51611 11.3971 8.49066 11.4261C8.45794 11.4587 8.4325 11.495 8.40341 11.5312C8.34525 11.6074 8.28709 11.6871 8.23256 11.7669C8.0508 12.0244 7.88722 12.2963 7.74545 12.5791C7.39647 13.2935 7.07657 14.015 6.75304 14.7402C6.42588 15.4654 6.12416 16.2051 5.80789 16.934C5.50617 17.6229 5.17537 18.301 4.83366 18.9718C4.64827 19.3307 4.45924 19.6897 4.23749 20.0306C4.14298 20.1756 4.04483 20.317 3.94304 20.4548C3.95759 20.4258 3.97213 20.4004 3.98667 20.3714C4.28475 19.7876 4.48832 19.164 4.67372 18.5367C4.82639 18.1342 4.97907 17.7317 5.14993 17.3401C5.34986 16.8941 5.52798 16.4408 5.69884 15.9839C6.04055 15.121 6.45496 14.2942 6.92753 13.4929C7.23289 12.9744 7.56005 12.4667 7.85814 11.941C8.13805 11.4478 8.35979 10.9257 8.61425 10.4217C8.80328 10.0446 8.99595 9.66745 9.15953 9.27947C9.20679 9.17069 9.25405 9.05828 9.29767 8.94588C9.31585 8.89149 9.33766 8.83347 9.34856 8.77545C9.34856 8.7537 9.3522 8.72832 9.33766 8.70656C9.30494 8.6558 9.23951 8.67393 9.19952 8.70656C9.08319 8.79358 8.97414 8.88423 8.86145 8.97851C8.49793 9.28672 8.11987 9.5768 7.73091 9.85238C8.56336 8.84435 9.45035 7.81456 9.85022 6.54546C9.8793 6.43668 9.95927 6.16473 9.8793 6.07408C9.82477 6.02694 9.76297 6.09221 9.73026 6.1321C9.39219 6.55271 9.03594 6.95883 8.6397 7.32505C8.79238 7.08574 8.93779 6.83917 9.06865 6.58535C9.28676 6.15023 9.50124 5.71148 9.67936 5.25823C9.8902 4.70345 10.0502 4.13417 10.2174 3.56851C10.3882 2.95209 10.5409 2.32842 10.7263 1.71563C10.7445 1.65761 10.7626 1.59959 10.7736 1.53795C10.7736 1.51982 10.7808 1.49807 10.7736 1.47994C10.7626 1.4473 10.7227 1.42555 10.6899 1.43642C10.6609 1.44368 10.6318 1.46181 10.6063 1.48356C10.2355 1.83166 9.90475 2.21964 9.5485 2.57861C9.28677 2.84694 9.0214 3.11889 8.77057 3.39809C8.26528 3.971 7.81452 4.59467 7.45827 5.26911C7.13474 5.8819 6.89845 6.54546 6.75304 7.22353C6.55674 8.10827 6.49131 9.01477 6.36771 9.91039C6.22594 9.52241 6.14233 9.11267 6.12416 8.69568C6.11688 8.55789 6.10961 8.41285 6.10234 8.26419C6.10234 8.19529 6.10234 8.04663 5.99692 8.07926C5.96421 8.09739 5.94603 8.13365 5.92786 8.16991C5.89514 8.23518 5.86606 8.30407 5.83698 8.37297C5.7461 8.58328 5.64431 8.78633 5.5498 8.99301C5.28079 9.57318 5.04814 10.1751 4.92818 10.8024C4.82276 11.3173 4.76823 11.8431 4.76823 12.3652C4.76823 13.0977 4.88092 13.8192 4.87729 14.5553C4.67735 14.2326 4.47378 13.9062 4.39017 13.5291C4.34655 13.3515 4.31383 13.1738 4.28475 12.9961C4.27748 12.9454 4.26658 12.891 4.25931 12.8402C4.25204 12.8039 4.25204 12.7568 4.22295 12.7314C4.15752 12.6807 4.1139 12.7677 4.09936 12.8221C3.97576 13.2137 3.91396 13.627 3.89942 14.0404C3.88125 14.4574 3.92123 14.8744 3.96122 15.2914C3.99757 15.6685 4.03756 16.0456 4.06301 16.4263C4.04483 16.5641 4.03756 16.7019 4.02665 16.8397C3.98303 17.5177 3.90669 18.1958 3.77583 18.863C3.68858 19.3996 3.57589 19.929 3.38686 20.4439C3.27781 20.8102 3.13603 21.1655 2.95791 21.5027C2.92883 21.5499 2.90338 21.6006 2.87794 21.6478C2.52532 22.2751 2.20179 22.9169 1.84554 23.5405C1.63107 23.9068 1.42386 24.2802 1.2312 24.661C1.08943 24.9075 0.958559 25.1577 0.845869 25.4152C0.747719 25.6327 0.653204 25.8539 0.565959 26.0751C0.533243 26.1694 0.438728 26.3579 0.489621 26.4522C0.565959 26.5211 0.627758 26.4305 0.675015 26.3326C0.68592 26.3217 0.696826 26.3108 0.704096 26.2999C0.733178 26.26 0.758624 26.2202 0.780435 26.1766C0.838598 26.0787 0.896761 25.9845 0.951289 25.8902C1.19121 25.4732 1.42386 25.0526 1.66015 24.632C2.01276 23.9793 2.39809 23.3447 2.78706 22.7102C2.85249 22.605 2.91429 22.4999 2.97972 22.3911C3.0597 22.2751 3.13967 22.1627 3.22328 22.0466C3.37232 21.8436 3.53227 21.6478 3.70676 21.4665C3.92123 21.2308 4.19024 21.0023 4.44106 20.8029C4.80458 20.5092 5.13175 20.1756 5.45165 19.8384C6.19686 19.0298 6.89845 18.1813 7.62549 17.3546C8.10896 16.7744 8.6288 16.216 9.18498 15.7084C9.59576 15.3639 10.0211 15.0339 10.4537 14.7185C11.1443 14.2253 11.8714 13.7866 12.5584 13.2862C13.3691 12.6952 14.1615 12.0787 14.8886 11.3862C14.9104 11.3608 14.9358 11.3318 14.9213 11.2955C14.9068 11.2484 14.8486 11.2556 14.8086 11.2665C14.645 11.31 14.4887 11.3753 14.3288 11.4152C14.1652 11.4514 13.998 11.4841 13.8344 11.5131C13.3873 11.6001 12.9292 11.6364 12.4748 11.64C12.7329 11.5421 12.9947 11.4478 13.2564 11.3608C13.9071 11.165 14.5651 10.9982 15.2012 10.7589C16.3318 10.3709 17.3205 9.6747 18.2257 8.90962C18.4474 8.72469 18.6728 8.53976 18.8764 8.33308C18.9127 8.28957 18.9673 8.24968 18.9745 8.18804C18.9745 8.11552 18.8873 8.11552 18.8328 8.13003C18.3238 8.23881 17.8113 8.34396 17.2951 8.39835C16.9534 8.43098 16.5971 8.45637 16.2554 8.39472C16.6516 8.27507 17.0515 8.16991 17.4587 8.08651C17.8367 8.01037 18.2184 7.93785 18.5856 7.82544C19.1563 7.65865 19.6688 7.33231 20.1051 6.93344C20.3668 6.68325 20.6104 6.41493 20.8503 6.14298C21.1047 5.8529 21.3338 5.54106 21.6028 5.26186C21.9554 4.892 22.3407 4.55479 22.7515 4.25383C23.0568 4.01451 23.384 3.81146 23.7221 3.61928C23.7475 3.60477 23.773 3.59752 23.7984 3.58302C23.8202 3.56851 23.8275 3.54313 23.8166 3.51775H23.8021ZM3.93577 20.7449C3.93577 20.7449 3.93577 20.7449 3.9285 20.7449H3.93214H3.93577ZM4.80458 16.8469C5.08449 15.9332 5.3535 15.0158 5.64431 14.1057C5.91695 13.1738 6.18959 12.2419 6.47677 11.3173C6.79666 10.2222 7.05113 9.10905 7.3892 8.01762C7.62912 7.24891 7.89812 6.48745 8.19984 5.74049C8.47248 5.06605 8.77784 4.40249 9.19225 3.80058C8.85418 4.60192 8.5052 5.39602 8.21075 6.21187C7.92721 6.92619 7.68728 7.65502 7.48008 8.39472C6.97479 10.0301 6.66943 11.7198 6.18232 13.3587C5.97511 14.0839 5.74246 14.8019 5.49163 15.5162C5.31351 16.0275 5.10267 16.5387 4.92818 17.05C4.53921 18.1849 4.17933 19.3307 3.73584 20.4476C3.72857 20.4548 3.7213 20.4621 3.71403 20.4693C3.69949 20.4657 3.68495 20.4693 3.67404 20.4729C3.75038 20.2336 3.82308 19.9907 3.88488 19.7477C4.17933 18.776 4.50286 17.8151 4.80458 16.8469ZM15.7319 7.93422C15.3103 8.2243 14.8886 8.51438 14.4887 8.82984C13.8235 9.35924 13.1764 9.90677 12.533 10.4615C12.1586 10.7951 11.8205 11.1686 11.4679 11.5276C11.1189 11.8902 10.7663 12.2455 10.4355 12.6226C9.99563 13.1122 9.54486 13.5944 9.12318 14.1021C8.75239 14.5372 8.41432 15.0013 8.07988 15.4654C7.83269 15.7954 7.58186 16.1254 7.34921 16.4662C7.07294 16.8614 6.78576 17.2458 6.50948 17.641C6.23321 18.0399 5.96057 18.4388 5.69157 18.8412C5.52071 19.0951 5.34986 19.3525 5.14993 19.5882C4.91364 19.8674 4.67008 20.1611 4.40108 20.4186C4.29929 20.5092 4.20114 20.5999 4.10299 20.6941C4.10299 20.6941 4.10299 20.6941 4.09936 20.6941C4.0521 20.6833 4.0521 20.6397 4.06301 20.6035C4.25567 20.3895 4.44834 20.1792 4.63736 19.9617C4.86638 19.697 5.07359 19.4141 5.26625 19.1241C6.29137 17.6302 7.3274 16.1399 8.42886 14.6967C8.83964 14.1637 9.26495 13.6379 9.72299 13.1448C10.5118 12.3108 11.3261 11.5058 12.1404 10.6936C13.191 9.64932 14.3106 8.6703 15.5284 7.82544C16.499 7.17276 17.5314 6.61436 18.5965 6.1321C17.6004 6.66512 16.6698 7.31418 15.7319 7.93785V7.93422Z" fill="#2661E8"/>
<path d="M16.6265 26.2825C16.5974 26.3441 16.5574 26.3985 16.5138 26.4493C16.0558 26.9243 15.3796 27.1709 14.7399 27.2978C14.0928 27.4319 13.4275 27.3087 12.795 27.1672C13.4239 26.6487 14.1291 26.0432 14.2709 25.1983C14.409 24.1867 13.453 23.5304 12.5333 23.4868C9.45793 23.3853 6.68065 25.0497 4.07422 26.4892C3.08545 27.0295 1.98399 27.722 0.809826 27.4501C0.646242 27.4029 0.479024 27.2978 0.428131 27.1237C0.431767 27.0766 0.409956 27.0222 0.362698 27.0004C-0.000820279 26.9279 0.257278 27.4392 0.424496 27.5298C1.86766 28.3529 3.87429 26.8264 5.15024 26.1665C6.46617 25.4485 7.82573 24.7233 9.25799 24.2556C10.4467 23.9038 11.8535 23.5122 13.0786 23.8422C13.7038 24.0235 14.1909 24.6762 13.991 25.3289C13.7402 26.0831 13.0895 26.6161 12.4824 27.0875C11.5263 26.859 10.5339 26.6088 9.54517 26.7503C8.9999 26.8482 8.37101 27.0403 8.09837 27.5625C7.67305 28.4182 8.73816 28.585 9.35614 28.5669C10.5158 28.5306 11.6209 28.0556 12.5369 27.3558C13.5766 27.6277 14.6053 27.7293 15.6196 27.3014C16.0776 27.0911 16.5974 26.859 16.8446 26.3913C16.921 26.2499 16.6956 26.1338 16.6229 26.2752L16.6265 26.2825ZM9.32343 28.3239C8.98899 28.2986 8.40009 28.3457 8.25832 27.9722C8.23651 27.5008 8.75997 27.2253 9.15257 27.1056C10.1595 26.801 11.221 27.0548 12.217 27.2869C11.3773 27.8997 10.3704 28.2949 9.32343 28.3239Z" fill="#2661E8"/>
</svg>
