<svg width="274" height="160" viewBox="0 0 274 160" fill="none" xmlns="http://www.w3.org/2000/svg">
<g clip-path="url(#clip0_39850_15147)">
<rect width="274" height="160" rx="6" fill="#D7EE77"/>
<rect x="-1" y="143" width="315" height="43" fill="#D9D9D9"/>
<mask id="mask0_39850_15147" style="mask-type:luminance" maskUnits="userSpaceOnUse" x="11" y="54" width="116" height="90">
<path d="M126.494 62.5658V143.563H11V62.5658C10.9993 61.493 11.21 60.4306 11.62 59.4392C12.0301 58.4479 12.6315 57.547 13.3898 56.7882C14.1482 56.0293 15.0486 55.4273 16.0397 55.0166C17.0308 54.6059 18.0931 54.3945 19.1659 54.3945H118.328C119.401 54.3945 120.464 54.6059 121.455 55.0166C122.446 55.4273 123.346 56.0293 124.105 56.7882C124.863 57.547 125.464 58.4479 125.874 59.4392C126.284 60.4306 126.495 61.493 126.494 62.5658Z" fill="white"/>
</mask>
<g mask="url(#mask0_39850_15147)">
<path d="M102.339 141.51C104.824 142.758 108.041 140.425 111.617 137.267L107.743 133.795C107.743 133.795 101.666 139.459 102.339 141.51Z" fill="#A7CAF0"/>
<path d="M135.464 126.574L126.495 144.854H107.629L104.488 136.075L115.166 126.574H135.464Z" fill="#FEBD9D"/>
<path d="M120.846 126.574L112.013 140.378" stroke="#EF8A66" stroke-width="0.75" stroke-linecap="round" stroke-linejoin="round"/>
<path d="M117.482 128.002C111.085 131.654 102.338 141.512 102.338 141.512L99.9891 146.179L98.6218 148.892H52.2092C51.124 144.98 50.1908 139.885 49.4962 135.756C48.9537 132.56 48.6064 129.945 48.4653 128.919L48.4057 128.458C47.2228 129.505 46.6477 129.543 46.6477 129.543L44.4773 135.278L44.2766 135.821C36.5719 130.666 22.4756 129.755 22.4756 129.755L24.3692 123.358C23.8003 122.043 23.6414 120.586 23.9134 119.18C24.2227 117.579 28.4657 110.157 32.7413 103.928C34.4271 101.394 36.2968 98.9873 38.3353 96.7276C38.5035 96.5539 38.6771 96.3857 38.8508 96.2284C44.0107 91.4808 52.5619 92.1699 58.183 92.6799C59.0186 92.7559 59.8108 92.8101 60.5487 92.8427C62.2097 92.93 63.8741 92.93 65.535 92.8427C66.8969 92.7721 67.6457 92.6691 67.6457 92.6691C67.8193 91.8769 67.9821 91.0413 68.1449 90.1243C69.1595 84.1939 69.7292 76.2776 68.8231 71.0742L83.1039 77.4496C83.348 80.0431 84.303 85.7348 84.9595 89.4787C85.3285 91.573 85.5943 93.0597 85.5943 93.0597C86.7446 92.8481 87.8298 92.6582 88.8498 92.4846C103.348 90.0267 107.081 90.9491 111.096 98.0189C111.204 98.2034 111.307 98.3987 111.416 98.6049C113.89 103.488 115.578 113.255 116.516 120.156C117.184 124.692 117.482 128.002 117.482 128.002Z" fill="#C3DCF8"/>
<path d="M117.482 128C111.21 131.586 102.664 141.147 102.344 141.499C102.458 141.261 104.325 137.397 104.515 136.073C104.704 134.75 104.043 130.832 103.017 127.148L116.582 120.176C117.184 124.69 117.482 128 117.482 128Z" fill="#C3DCF8"/>
<path d="M69.1821 130.11C69.079 135.308 56.9034 136.04 49.5134 135.753C48.9709 132.557 48.6236 129.942 48.4825 128.916L48.4229 128.455C51.1084 125.73 53.3282 122.583 54.9935 119.139C59.3342 122.101 53.7673 125.145 53.5557 126.572C52.9806 130.484 69.3286 122.687 69.1821 130.11Z" fill="#A7CAF0"/>
<path d="M111.47 98.6242C107.238 97.1538 102.485 97.2027 99.1911 102.46C91.774 114.299 77.8513 123.534 63.9232 109.557C62.0186 107.595 59.9351 105.815 57.6997 104.24C49.4687 98.608 42.5074 99.7474 32.7734 103.92C34.4592 101.386 36.3289 98.9795 38.3675 96.7198C38.5357 96.5461 38.7093 96.3779 38.8829 96.2206C44.0429 91.473 52.594 92.1621 58.2152 92.6721C59.0508 92.748 59.8429 92.8023 60.5808 92.8349C62.2418 92.9222 63.9062 92.9222 65.5672 92.8349C66.9291 92.7643 67.6778 92.6612 67.6778 92.6612C67.8515 91.8691 68.0142 91.0335 68.177 90.1165C69.1917 84.1861 69.7614 76.2698 68.8553 71.0664L83.136 77.4418C83.3802 80.0353 84.3352 85.727 84.9917 89.4708C85.3606 91.5652 85.6265 93.0519 85.6265 93.0519C86.7768 92.8403 87.8619 92.6504 88.882 92.4768C103.38 90.0189 107.113 90.9412 111.128 98.0111C111.258 98.2227 111.361 98.418 111.47 98.6242Z" fill="#D0E5F7"/>
<path d="M88.9044 92.5034C88.8609 96.1712 88.4649 102.856 86.8697 107.582C84.8078 113.713 82.3771 111.223 79.7076 108.803C77.2931 106.6 68.4924 99.2694 60.5869 92.8506C62.2479 92.938 63.9123 92.938 65.5733 92.8506C66.9351 92.7801 67.6839 92.677 67.6839 92.677C67.8575 91.8848 68.0203 91.0493 68.1831 90.1323C73.9182 89.7579 80.7982 89.3889 85.0032 89.4866C85.3721 91.581 85.638 93.0677 85.638 93.0677C86.7774 92.8452 87.8626 92.677 88.9044 92.5034Z" fill="#83ADDF"/>
<path d="M83.2832 106.525C83.2832 106.525 71.0642 98.2127 65.5732 92.8466C66.9351 92.776 67.6839 92.6729 67.6839 92.6729C68.9915 86.6665 69.9031 77.0737 68.8613 71.0781L78.1449 75.218L83.1421 77.4535C83.3212 79.3688 83.8963 83.0041 84.4443 86.2705C85.052 89.8841 85.6326 93.0636 85.6326 93.0636C86.0775 103.601 83.2832 106.525 83.2832 106.525Z" fill="#FEBD9D"/>
<path d="M102.338 141.512C102.452 141.274 104.319 137.41 104.509 136.087C104.699 134.763 104.037 130.845 103.011 127.161C102.957 126.971 102.903 126.776 102.843 126.586" stroke="#83ADDF" stroke-width="0.75" stroke-linecap="round" stroke-linejoin="round"/>
<path d="M84.4389 86.2868C74.7972 86.8782 75.8823 76.5149 75.9637 76.2544L78.1341 75.2344L83.1313 77.4698C83.3157 79.3851 83.8909 83.0205 84.4389 86.2868Z" fill="#F4A789"/>
<path d="M22.5079 129.742C22.2366 130.539 22.2366 131.407 28.2864 133.111L29.2197 129.145C29.2197 129.145 23.7179 127.658 22.5079 129.742Z" fill="#A7CAF0"/>
<path d="M25.823 127.653C24.4015 132.287 19.4423 147.804 19.4423 147.804C18.0966 153.496 34.9764 157.213 40.9828 147.544L44.2872 131.977C38.8263 128.424 32.2939 126.894 25.823 127.653Z" fill="#FEBD9D"/>
<path d="M53.5768 121.76C53.5558 121.791 53.5376 121.823 53.5225 121.858C52.8063 123.002 52.0087 124.169 51.1406 125.374L51.0809 125.455C50.267 126.517 49.3785 127.52 48.4223 128.455C47.2394 129.503 46.6643 129.541 46.6643 129.541L44.3095 135.807C44.0707 135.65 43.8266 135.493 43.5716 135.341C39.2743 132.736 33.3601 131.304 28.9218 130.544C27.4622 130.295 26.16 130.121 25.1237 130.002C23.5285 129.812 22.541 129.747 22.541 129.747L24.4346 123.35C23.8657 122.035 23.7069 120.579 23.9789 119.172C24.2881 117.571 28.5311 110.149 32.8067 103.92C34.4925 101.386 36.3622 98.9795 38.4007 96.7197C38.5689 96.5461 38.7426 96.3779 38.9162 96.2206C46.2302 92.7969 55.7363 93.6379 57.6082 103.507C57.657 103.752 57.7004 103.996 57.733 104.24C58.7748 110.811 57.1524 116.025 53.5768 121.76Z" fill="#C3DCF8"/>
<path d="M57.6997 104.24C49.4687 98.6079 42.5074 99.7474 32.7734 103.92C34.4592 101.386 36.3289 98.9795 38.3675 96.7197C38.5357 96.5461 38.7093 96.3779 38.8829 96.2206C46.197 92.7969 55.703 93.6379 57.5749 103.507C57.6238 103.768 57.6672 104.012 57.6997 104.24Z" fill="#D0E5F7"/>
<path d="M27.4077 124.707C32.5026 124.707 37.4835 126.791 38.3245 127.187" stroke="#83ADDF" stroke-width="0.75" stroke-linecap="round" stroke-linejoin="round"/>
<path d="M48.4229 128.456C49.3791 127.52 50.2676 126.517 51.0815 125.455L51.1412 125.374C51.9988 124.246 52.794 123.073 53.5231 121.858C53.5382 121.824 53.5564 121.791 53.5774 121.76C54.1525 120.789 54.63 119.894 54.9935 119.14C55.292 118.554 55.509 118.055 55.6609 117.686" stroke="#83ADDF" stroke-width="0.75" stroke-linecap="round" stroke-linejoin="round"/>
<path d="M92.5284 123.925C92.7238 126.491 91.2154 127.148 91.2154 127.148C91.4216 133.388 89.5876 136.372 86.5383 137.164C83.489 137.956 75.6107 139.627 75.6107 139.627C74.7941 139.959 74.0064 140.359 73.2559 140.821C72.3769 141.32 71.2863 141.96 70.0004 142.72C66.0829 145.01 59.9137 147.147 52.5834 151.011C39.594 157.858 30.3375 154.147 29.7189 146.882C28.6012 133.583 45.4918 132.715 51.661 131.689C56.1319 130.94 63.0553 129.166 67.3471 128.173C68.9749 127.804 70.1957 127.544 70.7708 127.49C72.8326 127.305 77.1082 125.048 84.6121 122.688C92.1161 120.328 98.1767 118.96 98.1767 120.615C98.1767 122.27 92.5284 123.925 92.5284 123.925Z" fill="#FEBD9D"/>
<path d="M84.623 122.69C92.1216 120.319 98.1876 118.962 98.1876 120.617C98.1876 122.272 92.5068 123.943 92.5068 123.943C92.7021 126.51 91.1937 127.166 91.1937 127.166C91.3999 133.406 89.566 136.39 86.5167 137.182" stroke="#EF8A66" stroke-width="0.75" stroke-linecap="round" stroke-linejoin="round"/>
<path d="M32.8662 137.88C36.1217 134.728 41.3359 133.366 45.7417 132.596" stroke="#EF8A66" stroke-width="0.75" stroke-linecap="round" stroke-linejoin="round"/>
<path d="M73.2558 140.822C72.3768 141.321 71.2862 141.962 70.0003 142.721C66.9781 139.352 65.41 134.132 67.347 128.158C68.9748 127.789 70.1956 127.529 70.7707 127.475C69.3709 131.3 69.1104 137.54 73.2558 140.822Z" fill="#683F1D"/>
<path d="M92.5287 123.924L87.8896 125.427" stroke="#EF8A66" stroke-width="0.75" stroke-linecap="round" stroke-linejoin="round"/>
<path d="M91.2153 127.148L88.3613 128.185" stroke="#EF8A66" stroke-width="0.75" stroke-linecap="round" stroke-linejoin="round"/>
<path d="M88.6709 131.18L91.1017 130.518" stroke="#EF8A66" stroke-width="0.75" stroke-linecap="round" stroke-linejoin="round"/>
<path d="M72.1597 135.167C72.1597 135.943 71.9297 136.701 71.4986 137.346C71.0675 137.992 70.4549 138.494 69.7381 138.791C69.0213 139.088 68.2325 139.166 67.4715 139.015C66.7106 138.863 66.0116 138.49 65.463 137.941C64.9143 137.392 64.5407 136.693 64.3893 135.932C64.238 135.171 64.3157 134.383 64.6126 133.666C64.9095 132.949 65.4123 132.336 66.0574 131.905C66.7025 131.474 67.461 131.244 68.2368 131.244C69.2773 131.244 70.2751 131.657 71.0107 132.393C71.7464 133.129 72.1597 134.127 72.1597 135.167Z" fill="white" stroke="#683F1D" stroke-linecap="round" stroke-linejoin="round"/>
</g>
<path d="M98.4702 129.688C100.326 127.718 103.424 127.474 103.424 127.474L107.01 131.18C107.01 131.18 108.031 120.236 103.424 105.223C102.55 112.553 99.8538 124.349 98.4702 129.688Z" fill="#DDDDDD" stroke="#DDDDDD" stroke-linecap="round" stroke-linejoin="round"/>
<path d="M133.857 102.998C139.039 119.439 138.789 131.18 138.789 131.18H107.01C107.01 131.18 102.729 114.865 103.423 105.223C103.423 105.223 102.821 102.95 104.812 102.749C106.804 102.548 133.857 102.998 133.857 102.998Z" fill="#F9F9F9" stroke="#DDDDDD" stroke-linecap="round" stroke-linejoin="round"/>
<path d="M108.394 102.835C108.391 102.79 108.391 102.745 108.394 102.7C108.44 102.261 108.612 101.844 108.89 101.501C109.168 101.158 109.539 100.903 109.959 100.766C110.379 100.63 110.829 100.618 111.256 100.732C111.683 100.846 112.067 101.081 112.362 101.409C112.658 101.737 112.852 102.144 112.921 102.58C112.991 103.016 112.932 103.463 112.753 103.867C112.573 104.27 112.281 104.613 111.911 104.854C111.541 105.094 111.109 105.223 110.667 105.223" stroke="#EDEDED" stroke-linecap="round" stroke-linejoin="round"/>
<path d="M124.541 102.836C124.599 102.401 124.782 101.992 125.066 101.658C125.351 101.325 125.725 101.08 126.145 100.953C126.565 100.826 127.013 100.823 127.434 100.944C127.856 101.065 128.234 101.304 128.523 101.634C128.812 101.964 129 102.37 129.065 102.804C129.129 103.238 129.067 103.681 128.886 104.081C128.706 104.481 128.414 104.82 128.045 105.058C127.677 105.296 127.248 105.423 126.809 105.424C126.428 105.423 126.054 105.322 125.724 105.131" stroke="#EDEDED" stroke-linecap="round" stroke-linejoin="round"/>
<path d="M114.878 102.739C114.903 102.144 115.149 101.58 115.569 101.157C115.989 100.735 116.551 100.484 117.146 100.455C117.772 100.52 118.352 100.815 118.773 101.282C119.195 101.75 119.428 102.357 119.428 102.986C119.428 103.616 119.195 104.223 118.773 104.69C118.352 105.158 117.772 105.452 117.146 105.517C116.634 105.509 116.143 105.317 115.762 104.975" stroke="#EDEDED" stroke-linecap="round" stroke-linejoin="round"/>
<path d="M119.717 102.793C119.775 102.359 119.956 101.951 120.239 101.617C120.522 101.283 120.896 101.038 121.315 100.911C121.734 100.784 122.181 100.78 122.602 100.9C123.023 101.02 123.4 101.259 123.689 101.588C123.978 101.917 124.166 102.322 124.23 102.755C124.295 103.188 124.233 103.631 124.053 104.03C123.873 104.429 123.581 104.767 123.214 105.005C122.846 105.243 122.418 105.37 121.98 105.37" stroke="#EDEDED" stroke-linecap="round" stroke-linejoin="round"/>
<path d="M132.153 108.281H109.886V110.826H132.153V108.281Z" stroke="#DDDDDD" stroke-linecap="round" stroke-linejoin="round"/>
<path d="M115.403 128.408L115.121 126.265L113.689 115.234L113.45 113.422" stroke="#EDEDED" stroke-linecap="round" stroke-linejoin="round"/>
<path d="M122.632 128.408L122.333 126.113L120.933 115.375L120.678 113.422" stroke="#EDEDED" stroke-linecap="round" stroke-linejoin="round"/>
<path d="M127.91 113.416L129.858 128.413" stroke="#EDEDED" stroke-linecap="round" stroke-linejoin="round"/>
<path d="M132.392 116.416H121.068H113.841H110.672" stroke="#EDEDED" stroke-linecap="round" stroke-linejoin="round"/>
<path d="M133.493 122.967H121.92H114.693H111.768" stroke="#EDEDED" stroke-linecap="round" stroke-linejoin="round"/>
<path d="M115.903 113.936C112.311 115.769 110.58 123.414 116.673 123.925C125.653 124.673 126.082 113.615 118.214 114.657" fill="#F9F9F9"/>
<path d="M115.903 113.936C112.311 115.769 110.58 123.414 116.673 123.925C125.653 124.673 126.082 113.615 118.214 114.657" stroke="#DDDDDD" stroke-width="2" stroke-linecap="round" stroke-linejoin="round"/>
<path d="M121.92 122.965H114.693L113.841 116.416H121.069L121.92 122.965Z" fill="#EDEDED"/>
<path d="M134.904 121.979C135.056 124.47 139.787 121.73 139.462 119.549C139.136 117.367 134.725 119.093 134.904 121.979Z" fill="#FEBD9D" stroke="#EF8A66" stroke-width="0.75" stroke-linecap="round" stroke-linejoin="round"/>
<path d="M134.102 118.623C134.275 121.119 139.603 118.379 139.256 116.192C138.909 114.006 133.901 115.742 134.102 118.623Z" fill="#FEBD9D" stroke="#EF8A66" stroke-width="0.75" stroke-linecap="round" stroke-linejoin="round"/>
<path d="M133.727 116.124C133.912 118.614 139.625 115.874 139.251 113.693C138.876 111.512 133.516 113.237 133.727 116.124Z" fill="#FEBD9D" stroke="#EF8A66" stroke-width="0.75" stroke-linecap="round" stroke-linejoin="round"/>
<path d="M132.924 113.038C133.113 115.3 139.006 112.815 138.621 110.835C138.235 108.854 132.701 110.422 132.924 113.038Z" fill="#FEBD9D" stroke="#EF8A66" stroke-width="0.75" stroke-linecap="round" stroke-linejoin="round"/>
<path d="M115.903 113.936C112.311 115.769 110.58 123.414 116.673 123.925C125.653 124.673 126.082 113.615 118.214 114.657" stroke="#DDDDDD" stroke-width="2" stroke-linecap="round" stroke-linejoin="round"/>
<path d="M94.4606 55.8735C93.9885 59.7964 88.7418 62.097 88.7418 62.097L74.1843 74.8043C72.6921 77.1862 68.6282 78.3853 66.154 76.394C64.7053 75.2329 63.8046 72.9812 64.293 69.2319C63.8879 69.2321 63.4916 69.1132 63.1535 68.8901C61.4769 67.8538 60.4406 64.5494 62.9582 60.6266C62.7791 60.8002 59.426 64.0611 55.9751 63.0736C55.3817 62.9151 54.8286 62.6324 54.3526 62.2442C53.8765 61.8561 53.4882 61.3713 53.2134 60.8219C52.1282 58.6027 52.508 54.9023 55.6062 49.8292C57.8091 46.2101 60.8747 45.559 63.5008 46.2373C66.4741 46.9969 68.8832 49.4385 68.8832 51.2127C69.5392 50.4077 70.3002 49.6941 71.1458 49.0912C72.3069 48.2828 73.7448 47.7348 75.0307 48.5161C75.0307 48.5161 79.5558 46.0799 82.1277 47.6046C85.3289 49.4927 84.6236 50.8058 87.738 51.012C90.0548 51.1639 93.7064 51.7499 94.3738 54.376C94.5008 54.8646 94.5303 55.3735 94.4606 55.8735Z" fill="#DD6819"/>
<path d="M68.8825 51.2144L62.9684 60.6174C62.546 61.0126 62.0944 61.3754 61.6174 61.7026C60.288 62.625 58.1611 63.6776 55.9908 63.059C55.3973 62.9005 54.8443 62.6178 54.3682 62.2296C53.8921 61.8415 53.5038 61.3567 53.229 60.8073C59.9679 60.6662 62.339 58.7835 60.9554 55.0776C59.6695 51.6268 58.3347 47.2915 63.5164 46.2227C65.5435 46.7275 67.3051 47.9794 68.4485 49.7277C68.7182 50.1779 68.8677 50.6898 68.8825 51.2144Z" fill="#CC5E0D"/>
<path d="M94.4597 55.8751C93.9877 59.798 88.7409 62.0986 88.7409 62.0986L74.1834 74.8059C72.6913 77.1878 68.6273 78.3869 66.1531 76.3956C65.2976 74.3438 65.0874 72.0801 65.5508 69.9058C66.0141 67.7316 67.1289 65.7502 68.7467 64.2255C71.7309 61.5126 69.5443 59.4887 69.8319 55.9185C70.1194 52.3483 76.6521 46.852 81.3292 51.7841C84.9971 55.6527 91.8987 50.9756 94.4001 54.3776C94.5181 54.868 94.5383 55.3769 94.4597 55.8751Z" fill="#CC5E0D"/>
<path d="M85.5341 81.8377C78.9905 81.1649 72.3493 74.3772 72.3493 74.3772C69.8534 77.2203 64.9322 72.9719 67.3684 69.4342C68.9636 67.1066 71.4595 68.4901 72.0672 69.7598C73.0796 69.1061 73.822 68.1089 74.158 66.9516C74.4939 65.7943 74.4008 64.5545 73.8957 63.4604C73.3601 62.117 73.1285 60.6717 73.2175 59.2282C75.4312 55.8642 81.3019 55.0938 81.3019 55.0938C82.1697 56.0087 83.2252 56.7249 84.3959 57.1932C85.5667 57.6615 86.8249 57.8708 88.0842 57.8067C88.0842 57.8067 90.0972 61.7404 91.7358 65.7392C91.7684 65.8261 91.8118 65.9237 91.8444 66.0105C92.3056 67.15 92.7342 68.2894 93.0706 69.3311C93.1031 69.4342 93.1303 69.5265 93.1628 69.6241C93.4322 70.4469 93.6318 71.2909 93.7597 72.1472C94.286 76.4498 92.0722 82.5376 85.5341 81.8377Z" fill="#FEBD9D"/>
<path d="M88.2529 63.9436C88.2529 64.0831 88.2943 64.2195 88.3718 64.3355C88.4493 64.4515 88.5595 64.5419 88.6884 64.5953C88.8173 64.6487 88.9591 64.6627 89.0959 64.6354C89.2327 64.6082 89.3584 64.5411 89.4571 64.4424C89.5557 64.3438 89.6229 64.2181 89.6501 64.0812C89.6773 63.9444 89.6634 63.8026 89.61 63.6737C89.5566 63.5448 89.4662 63.4347 89.3502 63.3572C89.2342 63.2797 89.0978 63.2383 88.9583 63.2383C88.7717 63.2397 88.5931 63.3145 88.4611 63.4465C88.3291 63.5784 88.2543 63.757 88.2529 63.9436Z" fill="#683F1D"/>
<path d="M84.6233 65.3599C85.0129 65.3599 85.3287 65.0441 85.3287 64.6546C85.3287 64.265 85.0129 63.9492 84.6233 63.9492C84.2338 63.9492 83.918 64.265 83.918 64.6546C83.918 65.0441 84.2338 65.3599 84.6233 65.3599Z" fill="#683F1D"/>
<path d="M83.7925 69.4277C85.2063 70.1367 86.7747 70.4818 88.3556 70.4315C88.3556 70.4315 88.0518 73.0739 85.7838 72.3685C83.8033 71.7554 83.7925 69.4277 83.7925 69.4277Z" fill="white" stroke="#EF8A66" stroke-width="0.75" stroke-linecap="round" stroke-linejoin="round"/>
<path d="M81.5574 62.5803C81.8179 63.4485 85.0788 62.5803 84.7207 61.1696C84.3626 59.7589 81.1831 61.3758 81.5574 62.5803Z" fill="#DD6819"/>
<path d="M87.0977 60.8326C87.0489 61.7767 90.3858 61.8418 90.3858 61.0279C90.3858 60.29 87.1845 59.3079 87.0977 60.8326Z" fill="#DD6819"/>
<path d="M64.293 69.232C64.6971 66.5617 65.9892 64.1055 67.9608 62.2598" stroke="#FF79A0" stroke-width="0.75" stroke-linecap="round" stroke-linejoin="round"/>
<path d="M75.0304 48.5117C74.0049 49.331 72.4694 51.9951 71.8726 53.1942" stroke="#FF79A0" stroke-width="0.75" stroke-linecap="round" stroke-linejoin="round"/>
<path d="M74.1187 55.8803C75.3286 52.6574 77.6563 51.2033 78.7469 52.4404C79.8375 53.6775 81.3025 55.0882 81.3025 55.0882" stroke="#FF79A0" stroke-width="0.75" stroke-linecap="round" stroke-linejoin="round"/>
<path d="M88.085 57.8346C89.4414 57.7804 90.7328 56.3968 91.1234 55.5938" stroke="#FF79A0" stroke-width="0.75" stroke-linecap="round" stroke-linejoin="round"/>
<path d="M60.9395 60.0361C55.9368 60.8174 53.4681 53.4111 57.532 47.5566" stroke="#FF79A0" stroke-width="0.75" stroke-linecap="round" stroke-linejoin="round"/>
<path d="M65.9527 53.1947C66.9999 50.4818 63.5056 46.1031 61.612 49.1091C59.4417 52.549 62.6104 57.1122 65.9527 56.7052" stroke="#FF79A0" stroke-width="0.75" stroke-linecap="round" stroke-linejoin="round"/>
<path d="M62.9688 60.6198C64.1665 57.0607 66.1937 53.8377 68.8829 51.2168C68.8829 51.2168 67.3637 54.2987 68.476 56.4907C66.5453 57.7357 64.705 59.1155 62.9688 60.6198Z" fill="#FED81D"/>
<path d="M67.9609 71.7552C68.9701 69.9701 70.7227 70.0677 71.6451 71.5707" stroke="#EF8A66" stroke-width="0.75" stroke-linecap="round" stroke-linejoin="round"/>
<path d="M71.2753 71.0937C69.1972 70.5512 69.1918 73.34 71.4001 72.9439" stroke="#EF8A66" stroke-width="0.75" stroke-linecap="round" stroke-linejoin="round"/>
<path d="M86.3702 63.4336C86.3377 65.0613 87.6399 65.9946 88.4972 66.4449C89.3544 66.8953 89.0723 68.0727 89.0126 68.2463" stroke="#EF8A66" stroke-width="0.75" stroke-linecap="round" stroke-linejoin="round"/>
<path d="M72.355 74.3999C72.6878 73.9699 72.9649 73.4995 73.1797 73" stroke="#EF8A66" stroke-width="0.75" stroke-linecap="round" stroke-linejoin="round"/>
<path d="M81.7532 68.8957C81.2106 69.9266 79.5448 70.1165 77.9551 69.3298C76.3653 68.543 75.5351 67.0618 76.056 66.0308C76.5769 64.9999 78.2643 64.81 79.8541 65.6022C81.4439 66.3944 82.274 67.8865 81.7532 68.8957Z" fill="#F4AF90"/>
<path d="M93.1633 69.6447C92.823 69.802 92.445 69.8596 92.0733 69.8106C91.7016 69.7616 91.3515 69.6081 91.0635 69.3679C90.2768 68.5812 90.5752 66.986 91.7363 65.7598C91.7689 65.8466 91.8123 65.9442 91.8449 66.0311C92.3061 67.1705 92.7347 68.3099 93.0711 69.3517C93.1036 69.4548 93.1308 69.547 93.1633 69.6447Z" fill="#F4AF90"/>
<path d="M150.416 66.9316C148.377 60.5921 148.224 59.7971 149.59 59.3232C150.956 58.8492 154.416 66.05 154.809 66.9316C156.18 69.7066 157.236 72.6261 157.958 75.6358C158.564 78.4488 159.359 84.926 159.487 86.4854C160.027 93.0695 149.172 95.0723 148.698 89.9507C148.224 84.8291 148.189 83.1729 148.189 83.1729C148.189 83.1729 142.583 83.6825 141.798 79.5139C141.013 75.3453 141.233 69.6275 141.233 69.6275C141.233 69.6275 132.712 68.2159 133.008 65.9685C133.303 63.7211 149.978 68.2617 149.978 68.2617L150.416 66.9316Z" fill="#B25E47"/>
<path d="M141.233 69.6259C141.233 69.6259 132.712 68.2142 133.008 65.9669C133.303 63.7195 149.978 68.2601 149.978 68.2601L150.416 66.9453C148.377 60.6058 148.224 59.8108 149.59 59.3368C150.956 58.8629 154.416 66.0637 154.809 66.9453" stroke="#934735" stroke-width="0.75" stroke-linecap="round" stroke-linejoin="round"/>
<path d="M149.978 68.2461C149.246 71.0555 149.363 74.0188 150.314 76.7617" stroke="#934735" stroke-width="0.75" stroke-linecap="round" stroke-linejoin="round"/>
<path d="M145.987 63.3832C147.322 64.0763 148.377 64.2241 148.775 62.3181C149.172 60.4122 147.292 60.3663 146.685 60.4683C145.753 60.6211 145.411 63.0826 145.987 63.3832Z" fill="#683F1D"/>
<path d="M146.237 62.8945C146.028 63.6376 145.858 64.3912 145.728 65.1521C145.947 65.2642 147.256 65.7076 147.43 65.2642C147.63 64.486 147.771 63.6939 147.853 62.8945H146.237Z" fill="#683F1D"/>
<path d="M145.045 65.7851C144.346 68.909 140.738 86.0319 140.616 86.5924C140.494 87.153 140.657 89.7418 140.876 89.8386C141.095 89.9355 142.354 88.0856 142.813 87.1479C143.271 86.2102 147.328 67.4209 147.577 66.5444C148.199 64.4091 145.503 63.7415 145.045 65.7851Z" fill="#683F1D"/>
<path d="M141.87 75.5036C140.122 75.9062 139.627 77.5726 140.917 78.6785C142.303 79.871 145.717 79.341 145.875 77.8173C146.033 76.2935 143.327 75.1724 141.87 75.5036Z" fill="#B25E47" stroke="#934735" stroke-width="0.75" stroke-linecap="round" stroke-linejoin="round"/>
<path d="M141.712 72.7704C139.918 72.5054 139.48 74.2993 140.759 75.6752C142.038 77.0511 146.263 77.362 146.502 75.7262C146.742 74.0903 142.813 72.9335 141.712 72.7704Z" fill="#B25E47" stroke="#934735" stroke-width="0.75" stroke-linecap="round" stroke-linejoin="round"/>
<path d="M140.122 69.7076C142.374 69.198 147.257 72.485 147.058 73.5093C146.818 74.7986 144.51 74.9923 141.258 73.6112C138.206 72.3168 139.021 69.9675 140.122 69.7076Z" fill="#B25E47" stroke="#934735" stroke-width="0.75" stroke-linecap="round" stroke-linejoin="round"/>
<path d="M248.551 94.5408C241.56 94.1994 235.77 100.503 233.977 107.75C233.926 107.954 233.88 108.173 233.839 108.412C233.648 109.528 233.514 110.652 233.436 111.781C232.692 121.346 233.396 140.37 233.467 140.829C233.492 140.987 228.519 140.829 221.619 140.503C219.07 140.385 216.278 140.258 213.363 140.11C198.543 139.381 180.941 138.398 180.941 138.398L179.871 126.493C179.871 126.493 177.654 130.244 170.072 137.567C162.489 144.89 150.365 140.808 151.669 131.6C152.485 125.816 155.899 121.586 160.037 114.502C161.316 112.311 162.667 109.85 164.022 106.98C165.837 103.169 167.59 99.5299 169.282 96.2429C170.021 94.7956 170.749 93.4146 171.458 92.1202C174.118 87.2127 176.503 83.4976 178.424 81.7598C184.198 76.5312 196.571 79.543 199.868 80.603C204.78 82.2018 209.877 83.1627 215.034 83.4619C222.347 83.9715 233.452 87.126 239.333 89.1747C242.725 90.3134 245.847 92.1364 248.506 94.5307L248.551 94.5408Z" fill="#A1C5EB"/>
<path d="M253.475 105.39C247.074 98.9685 237.356 96.1656 227.602 104.88C216.258 114.986 207.554 116.744 194.793 101.985C185.564 91.2836 182.364 88.5877 171.458 92.1397C174.118 87.2322 176.503 83.5171 178.424 81.7794C184.198 76.5508 196.572 79.5626 199.869 80.6225C204.782 82.2144 209.879 83.1684 215.035 83.4611C222.348 83.9707 233.452 87.1252 239.333 89.1738C242.725 90.3126 245.847 92.1355 248.506 94.5298C251.064 96.5478 252.557 100.584 253.475 105.39Z" fill="#C3DCF8"/>
<path d="M169.098 123.756C165.021 128.179 161.357 118.589 160.037 114.502C161.316 112.31 162.667 109.849 164.022 106.98C165.836 103.168 167.59 99.5292 169.281 96.2422C172.288 100.829 168.227 105.048 167.941 107.127C167.197 112.687 174.943 117.406 169.098 123.756Z" fill="#93BEE5"/>
<path d="M143.546 89.6731C149.845 91.0032 159.625 85.1172 159.625 85.1172C159.625 85.1172 165.011 109.176 166.418 114.511C167.824 119.847 176.824 140.746 159.283 141.602C148.026 142.153 147.272 120.754 146.604 113.711C145.936 106.669 143.546 89.6731 143.546 89.6731Z" fill="#A7CAF0"/>
<path d="M147.72 92.424C152.567 92.7654 157.963 89.5039 157.963 89.5039" stroke="#83ADDF" stroke-width="0.75" stroke-linecap="round" stroke-linejoin="round"/>
<path d="M159.625 85.1172C159.625 85.1172 165.012 109.176 166.418 114.511C167.188 117.421 170.215 124.964 169.96 131.359" stroke="#83ADDF" stroke-width="0.75" stroke-linecap="round" stroke-linejoin="round"/>
<path d="M194.793 84.5014C197.932 90.3263 206.259 95.9269 216.309 88.1961C216.309 88.1961 217.389 84.9855 217.277 84.9855C217.165 84.9855 196.215 82.4375 196.215 82.4375L194.793 84.5014Z" fill="white"/>
<path d="M203.064 77.3069C200.475 76.7209 196.725 77.3783 194.136 81.3532C191.547 85.3282 191.216 88.605 191.363 88.5693C191.511 88.5336 195.44 86.0518 197.199 86.2353C198.957 86.4188 202.896 87.5807 202.896 87.5807L203.064 77.3069Z" fill="#FED81D"/>
<path d="M214.729 78.4727C214.729 78.4727 220.452 78.5083 221.217 82.519C221.981 86.5296 219.871 91.3403 217.283 93.5622C214.694 95.7841 216.116 90.3517 206.82 87.8036L214.729 78.4727Z" fill="#FED81D"/>
<path d="M217.522 83.1613C217.522 83.1613 214.342 87.9924 207.258 88.0995C200.175 88.2065 198.814 83.9869 198.814 83.9869C199.583 82.0708 200.506 77.9837 201.097 75.1197C201.474 73.3106 201.719 71.9856 201.719 71.9856C201.719 71.9856 202.891 60.6417 215.05 61.3246L215.259 63.1846L217.522 83.1613Z" fill="#B25E47"/>
<path d="M201.097 75.2319C201.474 73.4279 201.719 72.0978 201.719 72.0978L208.639 68.8516C208.639 68.8516 209.735 76.7607 201.097 75.2319Z" fill="#914839"/>
<path d="M179.872 126.492C178.893 115.321 178.893 106.275 178.893 106.275" stroke="#83ADDF" stroke-width="0.75" stroke-linecap="round" stroke-linejoin="round"/>
<path d="M226.078 153.659C225.484 153.443 224.918 153.157 224.391 152.808C220.824 150.469 220.543 145.913 221.619 140.481C222.454 136.322 224.095 131.654 225.695 127.078C227.525 121.859 229.314 116.768 229.818 112.691C229.889 112.121 229.93 111.575 229.951 111.056C230.048 107.93 230.62 104.837 231.648 101.883C234.573 93.6576 240.948 88.4799 248.531 94.5392C251.043 96.547 252.537 100.583 253.454 105.389C253.78 107.106 254.035 108.925 254.244 110.78C254.937 117.079 255.039 123.852 255.35 128.897C256.884 153.323 251.028 163.077 226.078 153.659Z" fill="#A7CAF0"/>
<path d="M253.474 105.391C247.965 99.867 239.99 97.0183 231.658 101.875C234.583 93.6497 240.958 88.4721 248.541 94.5314C251.064 96.5494 252.557 100.586 253.474 105.391Z" fill="#C3DCF8"/>
<path d="M233.467 140.808C233.492 140.966 228.519 140.808 221.618 140.482C219.07 140.364 216.278 140.237 213.363 140.089C208.379 137.847 205.28 134.601 207.935 129.948C215.162 117.305 228.437 134.82 229.13 122.304C229.599 113.722 231.678 111.857 233.436 111.801C232.692 121.346 233.38 140.37 233.467 140.808Z" fill="#93BEE5"/>
<path d="M235.164 104.02C234.174 106.497 233.59 109.118 233.436 111.781C232.774 121.351 233.396 140.37 233.467 140.829" stroke="#83ADDF" stroke-width="0.75" stroke-linecap="round" stroke-linejoin="round"/>
<path d="M226.077 153.66C225.484 153.444 224.917 153.158 224.391 152.809C230.108 154.037 238.66 155.143 242.426 151.927C248.363 146.872 244.592 140.39 247.873 136.823C251.155 133.255 255.89 132.104 254.264 110.797C254.957 117.096 255.059 123.868 255.37 128.914C256.883 153.324 251.028 163.078 226.077 153.66Z" fill="#93BEE5"/>
<path d="M211.778 110.782C212.685 106.705 207.558 106.884 207.558 106.884C208.012 103.123 203.028 102.078 201.876 105.752C197.825 104.529 196.546 105.752 195.955 107.882L211.778 110.782Z" fill="#DDDDDD"/>
<path d="M204.868 107.275C205.535 107.275 206.076 106.734 206.076 106.067C206.076 105.4 205.535 104.859 204.868 104.859C204.201 104.859 203.66 105.4 203.66 106.067C203.66 106.734 204.201 107.275 204.868 107.275Z" fill="#F9F9F9" stroke="#DDDDDD" stroke-linecap="round" stroke-linejoin="round"/>
<path d="M188.26 104.854L180.697 145.862L210.723 151.926L218.791 110.862L188.26 104.854Z" fill="#F9F9F9" stroke="#DDDDDD" stroke-linecap="round" stroke-linejoin="round"/>
<path d="M197.509 132.029C195.98 136.02 195.888 140.214 196.592 141.615C196.592 141.615 199.456 142.15 202.32 134.379L197.509 132.029Z" fill="#93BEE5"/>
<path d="M201.397 124.314C194.527 121.954 191.246 120.527 190.007 120.191C188.769 119.854 184.294 119.477 183.581 120.191C182.868 120.904 182.817 121.811 183.071 122.739C183.326 123.666 182.562 124.385 182.455 125.343C182.348 126.301 183.499 126.592 183.265 127.544C183.031 128.497 182.246 129.542 182.786 130.602C183.326 131.662 182.276 132.743 183.265 134.027C184.254 135.311 194.385 135.933 196.607 135.459L200.969 137.411C200.969 137.411 208.644 129.527 201.397 124.314Z" fill="#B25E47"/>
<path d="M190.007 120.189C188.769 119.858 184.294 119.476 183.581 120.189C182.868 120.903 182.817 121.81 183.071 122.737C183.326 123.665 182.562 124.383 182.455 125.341C182.348 126.299 183.499 126.59 183.265 127.543C183.031 128.496 182.246 129.541 182.786 130.601C183.326 131.661 182.276 132.741 183.265 134.025" stroke="#934735" stroke-width="0.75" stroke-linecap="round" stroke-linejoin="round"/>
<path d="M242.431 151.924C240.642 155.155 236.168 156.71 227.652 154.146C225.359 153.453 223.147 152.735 221.027 152.006C217.521 150.803 214.285 149.575 211.385 148.398C206.333 146.389 201.387 144.124 196.566 141.61C197.847 140.198 198.88 138.58 199.624 136.825C200.087 135.786 200.469 134.712 200.765 133.614C201.557 130.579 201.769 127.422 201.392 124.309C202.549 124.655 203.792 125.012 205.102 125.369C208.267 126.235 211.813 127.132 215.406 128.075C226.174 130.913 237.375 134.164 240.102 138.206C240.352 138.578 240.612 138.95 240.815 139.337C240.902 139.49 240.994 139.643 241.075 139.801C241.1 139.84 241.122 139.881 241.141 139.923C241.243 140.107 241.34 140.295 241.432 140.479C241.605 140.81 241.758 141.141 241.906 141.472C243.511 145.152 243.965 149.157 242.431 151.924Z" fill="#A7CAF0"/>
<path d="M201.397 124.311C213.73 128.026 236.092 132.26 240.128 138.208C240.828 139.239 241.432 140.332 241.932 141.474" stroke="#83ADDF" stroke-width="0.75" stroke-linecap="round" stroke-linejoin="round"/>
<path d="M205.102 125.367C205.867 133.098 201.876 140.518 201.876 140.518" stroke="#83ADDF" stroke-width="0.75" stroke-linecap="round" stroke-linejoin="round"/>
<path d="M242.426 151.928C240.637 155.159 236.163 156.713 227.647 154.15C225.354 153.457 223.142 152.738 221.022 152.009C226.022 153.324 237.799 155.867 242.426 151.928Z" fill="#93BEE5"/>
<path d="M215.034 61.4219L215.243 63.2768C210.937 69.9935 205.051 72.1084 201.703 72.0778C196.168 70.6968 194.278 65.7128 193.957 60.3568C193.878 59.0874 193.878 57.8143 193.957 56.5449C194.204 52.917 194.815 49.3232 195.781 45.8176C195.781 45.8176 212.405 38.0817 213.556 53.6095C213.556 53.6095 217.124 52.9572 217.781 56.922C218.342 60.2141 215.034 61.4219 215.034 61.4219Z" fill="#B25E47"/>
<path d="M196.627 56.5633C196.993 56.5633 197.29 56.2667 197.29 55.9008C197.29 55.5349 196.993 55.2383 196.627 55.2383C196.261 55.2383 195.965 55.5349 195.965 55.9008C195.965 56.2667 196.261 56.5633 196.627 56.5633Z" fill="#683F1D"/>
<path d="M201.255 55.7195C201.621 55.7195 201.917 55.4229 201.917 55.057C201.917 54.6911 201.621 54.3945 201.255 54.3945C200.889 54.3945 200.592 54.6911 200.592 55.057C200.592 55.4229 200.889 55.7195 201.255 55.7195Z" fill="#683F1D"/>
<path d="M200.256 51.4839C200.327 52.3911 203.426 52.7427 203.604 52.228C203.854 51.4534 200.078 49.3589 200.256 51.4839Z" fill="#604730"/>
<path d="M194.339 52.8386C194.339 53.3482 197.708 53.5572 197.586 51.8194C197.504 50.5607 194.411 51.4729 194.339 52.8386Z" fill="#604730"/>
<path d="M212.695 58.5328C214.081 56.4944 216.262 56.7084 216.502 57.0958" stroke="#934735" stroke-width="0.75" stroke-linecap="round" stroke-linejoin="round"/>
<path d="M213.287 57.8344C215.325 56.6317 216.446 59.3276 213.857 59.3276" stroke="#934735" stroke-width="0.75" stroke-linecap="round" stroke-linejoin="round"/>
<path d="M198.416 53.9746C198.977 55.0601 198.926 55.7175 198.559 56.4156C198.192 57.1138 197.066 58.7038 197.652 60.1154" stroke="#934735" stroke-width="0.75" stroke-linecap="round" stroke-linejoin="round"/>
<path d="M202.044 60.3555C201.535 62.0423 199.527 63.0972 198.594 62.9035C198.594 62.9035 199.557 65.5178 201.254 64.8502C203.206 64.0603 202.044 60.3555 202.044 60.3555Z" fill="white" stroke="#934735" stroke-width="0.75" stroke-linecap="round" stroke-linejoin="round"/>
<path d="M212.39 60.9316C212.771 61.2007 213.206 61.3853 213.665 61.4732C214.123 61.5611 214.596 61.5502 215.05 61.4413" stroke="#934735" stroke-width="0.75" stroke-linecap="round" stroke-linejoin="round"/>
<path d="M218.433 52.0222C220.339 54.6416 217.47 55.778 217.47 55.778C217.181 55.3491 216.797 54.9918 216.349 54.7333C216.067 54.5672 215.753 54.4653 215.427 54.4351C215.102 54.4049 214.773 54.4471 214.466 54.5586C214.159 54.6701 213.88 54.8483 213.649 55.0802C213.419 55.3122 213.243 55.5923 213.133 55.9003C209.225 55.9819 210.911 52.9293 210.911 52.9293C207.405 54.3307 207.293 50.738 208.802 49.1174C206.065 52.1751 202.59 49.1174 203.155 46.3502C202.187 49.3722 198.737 49.4894 199.196 46.9822C198.899 47.4973 198.54 47.9732 198.125 48.3989C195.756 50.7839 193.625 48.2358 194.522 46.3604C190.955 49.7544 189.426 45.9578 192.815 43.9194C190.13 41.7179 193.325 38.5787 195.47 40.2094C194.961 36.3007 198.997 36.1326 200.765 38.4105C201.458 34.1196 206.819 36.4638 207.033 38.4972C210.983 35.7351 214.04 37.7684 213.658 42.2581C215.253 40.1228 218.673 41.3765 217.358 46.8446C220.64 46.6101 221.195 50.6819 218.433 52.0222Z" fill="#604730"/>
<path d="M216.349 54.7369C216.068 54.5707 215.753 54.4689 215.427 54.4387C215.102 54.4085 214.774 54.4506 214.466 54.5622C214.159 54.6737 213.88 54.8518 213.65 55.0838C213.419 55.3158 213.243 55.5958 213.134 55.9039C209.225 55.9854 210.912 52.9329 210.912 52.9329C207.406 54.3343 207.294 50.7415 208.802 49.121C206.065 52.1786 202.59 49.121 203.156 46.3538C202.187 49.3758 198.737 49.493 199.196 46.9857C198.9 47.5008 198.54 47.9768 198.126 48.4024C197.168 45.5027 199.313 41.6756 202.59 43.4082C203.023 41.0742 208.379 39.5607 208.348 45.4467C210.331 42.6795 214.82 43.6274 212.695 48.9069C214.367 47.6584 218.209 49.8191 216.349 54.7369Z" fill="#473526"/>
<path d="M209.149 55.7597C209.622 56.7075 208.731 58.109 207.161 58.8989C205.591 59.6887 203.93 59.5563 203.456 58.6084C202.982 57.6605 203.869 56.2591 205.444 55.4692C207.018 54.6793 208.675 54.8118 209.149 55.7597Z" fill="#A0503D"/>
<path d="M196.036 59.363C195.792 60.0306 194.971 60.3822 193.962 60.3822C193.883 59.1128 193.883 57.8397 193.962 56.5703C195.46 57.2073 196.383 58.4151 196.036 59.363Z" fill="#A0503D"/>
</g>
<defs>
<clipPath id="clip0_39850_15147">
<rect width="274" height="160" rx="6" fill="white"/>
</clipPath>
</defs>
</svg>
