<svg width="200" height="280" viewBox="0 0 200 280" fill="none" xmlns="http://www.w3.org/2000/svg">
<g clip-path="url(#clip0_540_4817)">
<path d="M199.969 17.0434C199.877 16.8912 199.662 16.7897 199.446 16.8405C197.569 17.4999 195.692 18.0579 193.754 18.6413C188.431 20.2645 182.892 21.3298 177.354 22.3951C171.015 23.5618 164.554 24.3988 158.246 25.6924C152.8 26.783 147.385 28.1019 142.154 29.8266C138.215 31.0948 134.338 32.4645 130.708 34.2145C126.4 36.1675 122.923 39.0844 119.538 41.9758C116.431 44.6644 113.292 47.3529 110.554 50.3205C109.015 51.9945 107.723 53.8206 106.492 55.6468C108.431 49.6103 111.138 43.523 116.092 38.7039C116.462 38.3235 116.031 37.8669 115.508 38.0698C114.246 38.5771 113.077 39.2365 111.877 39.8453C102.708 44.9687 94.5231 51.335 87.4769 58.3607C84.0308 61.8355 80.7077 65.3865 77.9692 69.2671C74.8 73.8072 72.4 78.7024 70.6769 83.7497C70.4923 80.7568 70.8 77.7639 71.2923 74.7964C71.3846 74.2637 71.4769 73.7564 71.5077 73.2238C71.5077 72.8687 71.6308 72.3615 71.2 72.1585C70.8923 72.0317 70.5846 72.1585 70.3692 72.3615C70.0923 72.5897 69.8769 72.8434 69.6308 73.097C69.1385 73.6296 68.6462 74.1876 68.1846 74.7456C66.6462 76.5464 65.2615 78.4487 64.0615 80.4271C61.1077 85.4237 58.4 90.4711 55.6615 95.5438C52.8923 100.617 50.3385 105.791 47.6615 110.889C45.1077 115.708 42.3077 120.451 39.4154 125.143C37.8462 127.654 36.2462 130.165 34.3692 132.549C33.5692 133.564 32.7385 134.553 31.8769 135.517C32 135.314 32.1231 135.136 32.2462 134.934C34.7692 130.85 36.4923 126.487 38.0615 122.1C39.3539 119.284 40.6462 116.469 42.0923 113.73C43.7846 110.61 45.2923 107.439 46.7385 104.244C49.6308 98.207 53.1385 92.4241 57.1385 86.8187C59.7231 83.1917 62.4923 79.6408 65.0154 75.9631C67.3846 72.5136 69.2615 68.8613 71.4154 65.3357C73.0154 62.6979 74.6462 60.0601 76.0308 57.3462C76.4308 56.5853 76.8308 55.799 77.2 55.0127C77.3539 54.6323 77.5385 54.2265 77.6308 53.8206C77.6308 53.6685 77.6615 53.4909 77.5385 53.3387C77.2615 52.9836 76.7077 53.1105 76.3692 53.3387C75.3846 53.9475 74.4615 54.5815 73.5077 55.241C70.4308 57.3969 67.2308 59.426 63.9385 61.3536C70.9846 54.3025 78.4923 47.0993 81.8769 38.222C82.1231 37.4611 82.8 35.5588 82.1231 34.9247C81.6615 34.595 81.1385 35.0515 80.8615 35.3305C78 38.2727 74.9846 41.1135 71.6308 43.6752C72.9231 42.0012 74.1538 40.2765 75.2615 38.501C77.1077 35.4574 78.9231 32.3884 80.4308 29.2179C82.2154 25.3373 83.5692 21.3552 84.9846 17.3985C86.4308 13.0866 87.7231 8.72409 89.2923 4.43764C89.4462 4.03182 89.6 3.626 89.6923 3.19482C89.6923 3.068 89.7539 2.91582 89.6923 2.789C89.6 2.56073 89.2615 2.40855 88.9846 2.48464C88.7385 2.53536 88.4923 2.66218 88.2769 2.81436C85.1385 5.24927 82.3385 7.96318 79.3231 10.4742C77.1077 12.3511 74.8615 14.2534 72.7385 16.2064C68.4615 20.2138 64.6462 24.5764 61.6308 29.294C58.8923 33.5805 56.8923 38.222 55.6615 42.965C54 49.1537 53.4462 55.4946 52.4 61.7595C51.2 59.0455 50.4923 56.1795 50.3385 53.2626C50.2769 52.2988 50.2154 51.2843 50.1539 50.2444C50.1539 49.7625 50.1539 48.7225 49.2615 48.9508C48.9846 49.0776 48.8308 49.3313 48.6769 49.5849C48.4 50.0415 48.1539 50.5234 47.9077 51.0053C47.1385 52.4764 46.2769 53.8967 45.4769 55.3425C43.2 59.4006 41.2308 63.611 40.2154 67.9989C39.3231 71.6005 38.8615 75.2783 38.8615 78.9306C38.8615 84.0541 39.8154 89.1014 39.7846 94.2503C38.0923 91.9929 36.3692 89.7102 35.6615 87.0724C35.2923 85.8295 35.0154 84.5867 34.7692 83.3439C34.7077 82.9888 34.6154 82.6084 34.5539 82.2533C34.4923 81.9996 34.4923 81.6699 34.2462 81.4924C33.6923 81.1373 33.3231 81.746 33.2 82.1264C32.1539 84.8657 31.6308 87.7572 31.5077 90.6486C31.3539 93.5655 31.6923 96.4823 32.0308 99.3991C32.3385 102.037 32.6769 104.675 32.8923 107.338C32.7385 108.302 32.6769 109.266 32.5846 110.229C32.2154 114.972 31.5692 119.715 30.4615 124.382C29.7231 128.136 28.7692 131.839 27.1692 135.441C26.2462 138.003 25.0462 140.488 23.5385 142.847C23.2923 143.177 23.0769 143.532 22.8615 143.862C19.8769 148.249 17.1385 152.739 14.1231 157.101C12.3077 159.663 10.5539 162.276 8.92309 164.939C7.72309 166.663 6.6154 168.414 5.66155 170.214C4.83078 171.736 4.03078 173.283 3.29232 174.831C3.0154 175.49 2.2154 176.809 2.64616 177.468C3.29232 177.95 3.8154 177.316 4.2154 176.631C4.3077 176.555 4.40001 176.479 4.46155 176.403C4.7077 176.124 4.92309 175.845 5.1077 175.541C5.60001 174.856 6.09232 174.196 6.55386 173.537C8.58463 170.62 10.5539 167.678 12.5539 164.736C15.5385 160.17 18.8 155.732 22.0923 151.293C22.6462 150.558 23.1692 149.822 23.7231 149.061C24.4 148.249 25.0769 147.463 25.7846 146.652C27.0462 145.231 28.4 143.862 29.8769 142.593C31.6923 140.945 33.9692 139.347 36.0923 137.952C39.1692 135.897 41.9385 133.564 44.6462 131.205C50.9539 125.549 56.8923 119.614 63.0462 113.831C67.1385 109.773 71.5385 105.867 76.2462 102.316C79.7231 99.9064 83.3231 97.5983 86.9846 95.3916C92.8308 91.9422 98.9846 88.8732 104.8 85.373C111.662 81.2387 118.369 76.9269 124.523 72.0825C124.708 71.9049 124.923 71.702 124.8 71.4484C124.677 71.1186 124.185 71.1694 123.846 71.2455C122.462 71.5498 121.138 72.0064 119.785 72.2854C118.4 72.539 116.985 72.7673 115.6 72.9702C111.815 73.5789 107.938 73.8325 104.092 73.8579C106.277 73.1731 108.492 72.5136 110.708 71.9049C116.215 70.5353 121.785 69.3685 127.169 67.6945C136.738 64.9806 145.108 60.1108 152.769 54.7591C154.646 53.4655 156.554 52.172 158.277 50.7263C158.585 50.4219 159.046 50.1429 159.108 49.7117C159.108 49.2045 158.369 49.2045 157.908 49.3059C153.6 50.0668 149.262 50.8024 144.892 51.1828C142 51.4111 138.985 51.5886 136.092 51.1575C139.446 50.3205 142.831 49.5849 146.277 49.0015C149.477 48.4689 152.708 47.9616 155.815 47.1754C160.646 46.0086 164.985 43.7259 168.677 40.9359C170.892 39.1858 172.954 37.3089 174.985 35.4066C177.138 33.3775 179.077 31.1963 181.354 29.2433C184.338 26.6562 187.6 24.2974 191.077 22.1922C193.662 20.5182 196.431 19.0978 199.292 17.7535C199.508 17.6521 199.723 17.6014 199.938 17.4999C200.123 17.3985 200.185 17.2209 200.092 17.0434H199.969ZM31.8154 137.546C31.8154 137.546 31.8154 137.546 31.7539 137.546H31.7846H31.8154ZM39.1692 110.28C41.5385 103.888 43.8154 97.4715 46.2769 91.1052C48.5846 84.5867 50.8923 78.0683 53.3231 71.6005C56.0308 63.9407 58.1846 56.1541 61.0462 48.5196C63.0769 43.1425 65.3539 37.8162 67.9077 32.5913C70.2154 27.8736 72.8 23.2321 76.3077 19.0217C73.4462 24.6271 70.4923 30.1817 68 35.8885C65.6 40.8852 63.5692 45.9833 61.8154 51.1575C57.5385 62.5965 54.9539 74.4159 50.8308 85.8803C49.0769 90.953 47.1077 95.975 44.9846 100.972C43.4769 104.548 41.6923 108.124 40.2154 111.7C36.9231 119.639 33.8769 127.654 30.1231 135.466C30.0615 135.517 30 135.568 29.9385 135.618C29.8154 135.593 29.6923 135.618 29.6 135.644C30.2462 133.97 30.8615 132.27 31.3846 130.571C33.8769 123.774 36.6154 117.052 39.1692 110.28ZM131.662 47.9363C128.092 49.9654 124.523 51.9944 121.138 54.2011C115.508 57.9042 110.031 61.7341 104.585 65.6147C101.415 67.9482 98.5538 70.5606 95.5692 73.0716C92.6154 75.608 89.6308 78.0936 86.8308 80.7315C83.1077 84.1555 79.2923 87.5289 75.7231 91.0798C72.5846 94.1235 69.7231 97.37 66.8923 100.617C64.8 102.925 62.6769 105.233 60.7077 107.617C58.3692 110.382 55.9385 113.07 53.6 115.835C51.2615 118.625 48.9539 121.415 46.6769 124.23C45.2308 126.006 43.7846 127.806 42.0923 129.455C40.0923 131.408 38.0308 133.462 35.7539 135.263C34.8923 135.897 34.0615 136.531 33.2308 137.191C33.2308 137.191 33.2308 137.191 33.2 137.191C32.8 137.115 32.8 136.81 32.8923 136.557C34.5231 135.06 36.1539 133.589 37.7539 132.067C39.6923 130.216 41.4462 128.238 43.0769 126.208C51.7539 115.759 60.5231 105.334 69.8462 95.2395C73.3231 91.511 76.9231 87.8333 80.8 84.3838C87.4769 78.5502 94.3692 72.9195 101.262 67.238C110.154 59.9333 119.631 53.0851 129.938 47.1754C138.154 42.6099 146.892 38.7039 155.908 35.3305C147.477 39.059 139.6 43.5991 131.662 47.9616V47.9363Z" fill="#2661E8"/>
<path d="M139.231 176.276C138.985 176.707 138.646 177.087 138.277 177.443C134.4 180.765 128.677 182.49 123.262 183.378C117.785 184.316 112.154 183.454 106.8 182.464C112.123 178.837 118.092 174.602 119.292 168.692C120.462 161.616 112.369 157.025 104.585 156.72C78.5539 156.01 55.0462 167.652 32.9846 177.722C24.6154 181.501 15.2923 186.345 5.35386 184.443C3.96924 184.113 2.55386 183.378 2.12309 182.16C2.15386 181.83 1.96924 181.45 1.56924 181.298C-1.50768 180.791 0.676937 184.367 2.09232 185.001C14.3077 190.758 31.2923 180.08 42.0923 175.464C53.2308 170.442 64.7385 165.369 76.8616 162.098C86.9231 159.637 98.8308 156.898 109.2 159.206C114.492 160.474 118.615 165.04 116.923 169.605C114.8 174.881 109.292 178.609 104.154 181.907C96.0616 180.309 87.6616 178.559 79.2923 179.548C74.6769 180.233 69.3539 181.577 67.0462 185.229C63.4462 191.215 72.4616 192.382 77.6923 192.255C87.5077 192.001 96.8616 188.679 104.615 183.783C113.415 185.686 122.123 186.396 130.708 183.403C134.585 181.932 138.985 180.309 141.077 177.037C141.723 176.048 139.815 175.236 139.2 176.225L139.231 176.276ZM77.4154 190.556C74.5846 190.378 69.6 190.708 68.4 188.095C68.2154 184.798 72.6462 182.87 75.9693 182.033C84.4923 179.903 93.4769 181.678 101.908 183.302C94.8 187.588 86.2769 190.353 77.4154 190.556Z" fill="#2661E8"/>
</g>
<path d="M13.2722 266.219V234.525H0.796265V227.159H34.7709V234.525H22.295V266.219H13.2722Z" fill="#2661E8"/>
<path d="M54.604 266.219V260.36L54.047 259.077V248.586C54.047 246.726 53.4715 245.276 52.3204 244.234C51.2065 243.192 49.4799 242.672 47.1407 242.672C45.5441 242.672 43.966 242.932 42.4065 243.453C40.8842 243.936 39.5846 244.606 38.5078 245.462L35.3888 239.379C37.0225 238.226 38.9905 237.333 41.2926 236.701C43.5947 236.069 45.9339 235.752 48.3103 235.752C52.8774 235.752 56.4234 236.831 58.9483 238.989C61.4732 241.146 62.7356 244.513 62.7356 249.089V266.219H54.604ZM45.4698 266.666C43.1306 266.666 41.1255 266.275 39.4546 265.494C37.7837 264.675 36.5027 263.578 35.6116 262.202C34.7204 260.825 34.2749 259.281 34.2749 257.57C34.2749 255.785 34.7019 254.222 35.5559 252.883C36.447 251.544 37.8394 250.502 39.7331 249.758C41.6268 248.977 44.096 248.586 47.1407 248.586H55.1052V253.664H48.0875C46.0453 253.664 44.6344 253.999 43.8546 254.669C43.112 255.338 42.7407 256.175 42.7407 257.18C42.7407 258.296 43.1677 259.188 44.0217 259.858C44.9128 260.49 46.1196 260.807 47.642 260.807C49.0901 260.807 50.3896 260.472 51.5407 259.802C52.6917 259.095 53.5272 258.072 54.047 256.733L55.3837 260.751C54.7525 262.685 53.6014 264.155 51.9306 265.159C50.2597 266.163 48.1061 266.666 45.4698 266.666Z" fill="#2661E8"/>
<path d="M79.4144 266.666C76.8524 266.666 74.3832 266.368 72.0068 265.773C69.6676 265.14 67.8111 264.359 66.4372 263.429L69.3334 257.18C70.7072 258.035 72.3224 258.742 74.179 259.3C76.0727 259.821 77.9292 260.081 79.7486 260.081C81.7537 260.081 83.1646 259.839 83.9815 259.356C84.8355 258.872 85.2625 258.203 85.2625 257.347C85.2625 256.64 84.9283 256.119 84.26 255.785C83.6288 255.413 82.7748 255.134 81.698 254.948C80.6212 254.762 79.433 254.576 78.1334 254.39C76.871 254.204 75.59 253.962 74.2904 253.664C72.9908 253.329 71.8026 252.846 70.7258 252.213C69.649 251.581 68.7765 250.725 68.1081 249.647C67.4769 248.568 67.1613 247.173 67.1613 245.462C67.1613 243.564 67.6997 241.89 68.7765 240.44C69.8904 238.989 71.487 237.854 73.5663 237.036C75.6456 236.18 78.1334 235.752 81.0296 235.752C83.0718 235.752 85.1511 235.976 87.2676 236.422C89.384 236.868 91.1478 237.519 92.5587 238.375L89.6625 244.569C88.2144 243.713 86.7477 243.137 85.2625 242.839C83.8144 242.504 82.4035 242.337 81.0296 242.337C79.0988 242.337 77.6878 242.597 76.7967 243.118C75.9056 243.639 75.46 244.308 75.46 245.127C75.46 245.871 75.7756 246.429 76.4068 246.801C77.0752 247.173 77.9478 247.47 79.0246 247.694C80.1013 247.917 81.271 248.121 82.5334 248.307C83.833 248.456 85.1326 248.698 86.4321 249.033C87.7317 249.368 88.9013 249.851 89.941 250.484C91.0178 251.079 91.8904 251.916 92.5587 252.995C93.2271 254.036 93.5612 255.413 93.5612 257.124C93.5612 258.984 93.0043 260.639 91.8904 262.09C90.7764 263.504 89.1613 264.62 87.0448 265.438C84.9655 266.256 82.422 266.666 79.4144 266.666Z" fill="#2661E8"/>
<path d="M104.841 260.081L105.064 249.479L119.044 236.199H129.403L115.98 249.87L111.469 253.553L104.841 260.081ZM97.6562 266.219V224.816H106.345V266.219H97.6562ZM119.99 266.219L109.854 253.608L115.312 246.857L130.517 266.219H119.99Z" fill="#2661E8"/>
<path d="M133.159 266.219V236.199H141.847V266.219H133.159ZM137.503 232.014C135.906 232.014 134.607 231.549 133.604 230.619C132.602 229.689 132.1 228.536 132.1 227.159C132.1 225.783 132.602 224.63 133.604 223.7C134.607 222.77 135.906 222.305 137.503 222.305C139.099 222.305 140.399 222.751 141.402 223.644C142.404 224.499 142.905 225.615 142.905 226.992C142.905 228.443 142.404 229.652 141.402 230.619C140.436 231.549 139.137 232.014 137.503 232.014Z" fill="#2661E8"/>
<path d="M149.703 266.219V235.529C149.703 232.144 150.706 229.447 152.711 227.438C154.716 225.392 157.575 224.369 161.288 224.369C162.551 224.369 163.757 224.499 164.908 224.76C166.097 225.02 167.099 225.429 167.916 225.987L165.632 232.293C165.15 231.958 164.611 231.698 164.017 231.512C163.423 231.326 162.792 231.233 162.124 231.233C160.861 231.233 159.877 231.605 159.172 232.349C158.503 233.055 158.169 234.134 158.169 235.585V238.375L158.392 242.114V266.219H149.703ZM145.081 243.564V236.868H165.855V243.564H145.081Z" fill="#2661E8"/>
<path d="M173.249 277.491C171.69 277.491 170.149 277.249 168.627 276.765C167.104 276.282 165.86 275.612 164.895 274.757L168.07 268.563C168.738 269.158 169.499 269.623 170.353 269.958C171.244 270.293 172.117 270.46 172.971 270.46C174.196 270.46 175.162 270.162 175.867 269.567C176.61 269.009 177.278 268.061 177.872 266.721L179.432 263.039L180.1 262.09L190.849 236.199H199.204L185.67 268.061C184.704 270.479 183.59 272.376 182.328 273.752C181.102 275.129 179.729 276.096 178.206 276.654C176.721 277.212 175.069 277.491 173.249 277.491ZM178.373 267.391L165.006 236.199H173.973L184.333 261.309L178.373 267.391Z" fill="#2661E8"/>
<defs>
<clipPath id="clip0_540_4817">
<rect width="200" height="189.796" fill="white" transform="translate(0 2.50977)"/>
</clipPath>
</defs>
</svg>
