<svg width="34" height="34" viewBox="0 0 34 34" fill="none" xmlns="http://www.w3.org/2000/svg">
<rect width="34" height="34" rx="6" fill="#2661E8"/>
<path fill-rule="evenodd" clip-rule="evenodd" d="M16.5311 21.0905C15.753 20.9736 15.0245 20.6534 14.4417 20.1475C14.4161 20.1249 14.3905 20.1008 14.3662 20.0781L14.3662 20.0781L14.3617 20.0738C14.3072 20.0242 14.256 19.9729 14.2047 19.9201C14.1535 19.8673 14.1055 19.8128 14.0575 19.7584L14.0574 19.7584L14.033 19.7298C13.9944 19.6848 13.9554 19.6394 13.9198 19.5919C13.377 18.8954 13.0808 18.0452 13.0808 17.1454C13.0808 16.22 13.393 15.3442 13.9662 14.6365C13.9718 14.6293 13.9774 14.6225 13.983 14.6157L13.983 14.6157C13.9886 14.6089 13.9942 14.6021 13.9998 14.5949C14.0783 14.5004 14.1599 14.4092 14.248 14.3227C14.4273 14.1434 14.621 13.9865 14.826 13.8472L14.826 13.8472L14.826 13.8472C14.8852 13.8071 14.9445 13.7671 15.0053 13.7319C15.0173 13.7247 15.0297 13.7175 15.0421 13.7103L15.0421 13.7103C15.0545 13.7031 15.0669 13.6959 15.0789 13.6887C15.524 13.4389 16.0172 13.2708 16.5327 13.1923C16.877 13.1411 17.1796 12.9586 17.3861 12.6784C17.5927 12.3982 17.6791 12.0539 17.6263 11.7097C17.5734 11.3655 17.3909 11.0613 17.1123 10.8547C16.8497 10.661 16.5327 10.5761 16.2109 10.6082V10.6066L16.1821 10.6114C16.1757 10.6122 16.1693 10.6126 16.1629 10.613C16.1565 10.6134 16.1501 10.6138 16.1437 10.6146C16.0284 10.6322 15.9147 10.653 15.801 10.6754C14.5218 10.922 13.3434 11.5384 12.4035 12.4782C9.83537 15.0464 9.83057 19.2236 12.3907 21.7966L12.4051 21.811L12.4067 21.8126L12.4083 21.8142C13.4474 22.8517 14.7731 23.4969 16.2093 23.6827V23.6747C16.5311 23.7067 16.8497 23.6218 17.1107 23.4281C17.3909 23.2216 17.5734 22.9174 17.6247 22.5731C17.6759 22.2289 17.5911 21.8846 17.3845 21.6045C17.178 21.3243 16.8754 21.1417 16.5311 21.0905ZM20.6876 14.6317C21.7347 14.6317 22.5865 13.8039 22.5865 12.7873C22.5865 11.7401 21.7347 10.8884 20.6876 10.8884C19.6709 10.8884 18.8431 11.7401 18.8431 12.7873C18.8431 13.8039 19.6709 14.6317 20.6876 14.6317ZM20.5275 18.5448C21.8452 18.5448 22.3303 19.2685 22.5048 19.8753C22.8715 21.1498 22.1318 23.3625 20.6267 24.3039L20.3385 24.4848V22.2257C19.4019 22.1296 18.6814 21.3419 18.6814 20.3892C18.6814 19.3725 19.5108 18.5448 20.5275 18.5448Z" fill="white"/>
</svg>
