<svg width="152" height="128" viewBox="0 0 152 128" fill="none" xmlns="http://www.w3.org/2000/svg">
<path d="M151.209 0H26.2086C22.6086 3.2 24.7086 7 26.2086 8.5H48.2086C51.0086 12.1 49.3752 15.3333 48.2086 16.5H30.7086C26.3086 19.3 28.8752 22.6667 30.7086 24H84.2086L73.2086 128H97.7086L109.209 24H149.709L151.209 0Z" fill="#2661E8"/>
<path d="M17.2086 16.5H2.20861C-1.79139 19.7 0.54194 22.8333 2.20861 24H17.2086C21.2086 21.2 18.8753 17.8333 17.2086 16.5Z" fill="#2661E8"/>
<path d="M65.7085 44.5H25.2085C21.6085 47.3 23.7085 50.6667 25.2085 52H65.7085C69.3085 48.8 67.2085 45.6667 65.7085 44.5Z" fill="#2661E8"/>
<path d="M63.7085 71.5H37.2085C33.6085 74.3 35.7085 77.6667 37.2085 79H63.7085C66.9085 75.8 65.0418 72.6667 63.7085 71.5Z" fill="#2661E8"/>
</svg>
