<svg width="274" height="160" viewBox="0 0 274 160" fill="none" xmlns="http://www.w3.org/2000/svg">
<g clip-path="url(#clip0_39850_15286)">
<rect width="274" height="160" rx="6" fill="#F6A3B8"/>
<rect y="119" width="315" height="43" fill="#D9D9D9"/>
<path d="M132.919 133.826C127.847 136.436 98.0751 144.126 98.0751 144.126L95.3489 141.445L77.9487 124.344C77.9487 124.344 94.5543 121.029 97.6511 121.4C100.239 121.712 123.459 127.864 130.878 131.544C132.329 132.281 133.293 133.636 132.919 133.826Z" fill="white" stroke="#EDEDED" stroke-width="0.9" stroke-linecap="round" stroke-linejoin="round"/>
<path d="M78.7021 126.999C91.0676 124.92 95.939 123.566 97.6853 124.04C99.4316 124.515 123.029 131.169 122.633 131.272C111.555 134.156 91.8088 138.748 91.8088 138.748L78.7021 126.999Z" fill="white" stroke="#DDDDDD" stroke-width="0.9" stroke-linecap="round" stroke-linejoin="round"/>
<path d="M130.818 132.097C131.404 132.417 131.892 132.843 132.198 133.211C132.295 133.328 132.366 133.432 132.416 133.515C131.083 134.141 128.46 135.042 125.186 136.059C121.689 137.144 117.497 138.349 113.46 139.473C109.425 140.596 105.546 141.639 102.677 142.4C101.243 142.781 100.06 143.091 99.2368 143.307C98.8255 143.414 98.5037 143.498 98.2847 143.555C98.2633 143.56 98.2425 143.565 98.2231 143.57L96.3149 141.694L130.818 132.097Z" fill="#949494" stroke="#868686"/>
<path d="M47.9285 96L83.0146 109.659L100.003 143.325L62.2412 126.776L46 96.8209L47.9285 96Z" fill="#949494"/>
<path d="M46 96.8203L81.0862 110.479L98.0749 144.146L60.3159 127.596L46 96.8203Z" fill="#949494" stroke="#868686" stroke-width="0.9" stroke-linecap="round" stroke-linejoin="round"/>
<path d="M137.618 155.761C131.57 154.191 132.658 152.042 134.239 147.886C135.821 143.731 140.637 139.654 148.144 141.425C155.652 143.197 155.652 151.247 149.79 153.546C143.928 155.846 140.683 156.555 137.618 155.761Z" fill="#F9F9F9" stroke="#EDEDED" stroke-linecap="round" stroke-linejoin="round"/>
<path d="M136.111 149.867C135.474 151.284 134.953 152.769 134.556 154.301L136.111 149.867Z" fill="#F9F9F9"/>
<path d="M136.111 149.867C135.474 151.284 134.953 152.769 134.556 154.301" stroke="#DDDDDD" stroke-linecap="round" stroke-linejoin="round"/>
<path d="M138.963 147.507C138.371 148.479 137.698 149.39 136.951 150.23C136.097 151.139 135.185 150.778 135.353 149.813C135.669 148.292 136.337 146.88 137.294 145.709C137.523 145.514 137.811 145.417 138.103 145.436C138.394 145.454 138.669 145.587 138.875 145.81C139.081 146.032 139.204 146.327 139.22 146.64C139.237 146.954 139.145 147.262 138.963 147.507Z" fill="#F9F9F9" stroke="#DDDDDD" stroke-linecap="round" stroke-linejoin="round"/>
<path d="M220.241 62.9186C219.667 63.7166 218.858 64.3307 217.917 64.6821C211.349 67.297 197.082 61.0388 197.091 60.8683C197.099 60.6978 195.389 37.6553 199.795 29.6105C200.624 28.1026 201.666 27.1272 202.969 26.9406C209.62 27.0636 215.215 29.504 215.967 34.1585C216.719 38.813 213.572 43.9839 214.261 47.3025C214.95 50.6212 218.386 50.854 219.797 51.6245C222.35 53.0112 224.63 56.6013 220.241 62.9186Z" fill="#DD6819"/>
<path d="M217.918 64.6848C211.349 67.2996 197.083 61.0414 197.091 60.8709C197.099 60.7004 195.389 37.6579 199.795 29.6132C210.638 30.5129 212.257 34.4522 211.185 39.7517C210.048 45.3849 205.724 52.9747 214.057 58.9881C216.57 60.8073 217.643 62.792 217.918 64.6848Z" fill="#CC5E0D"/>
<path d="M205.237 41.0801C206.741 42.8657 206.87 45.0298 206.101 47.4243C205.331 49.8187 204.149 53.3163 205.237 56.8787" stroke="#FF79A0" stroke-width="0.68" stroke-linecap="round" stroke-linejoin="round"/>
<path d="M212.625 39.2729C212.388 42.5179 211.263 44.705 210.828 47.7501C210.393 50.7953 212.274 52.6526 214.716 53.7118C215.728 54.1749 216.51 55.0038 216.89 56.0174C217.271 57.031 217.219 58.1467 216.747 59.1207" stroke="#FF79A0" stroke-width="0.68" stroke-linecap="round" stroke-linejoin="round"/>
<path d="M209.957 58.4164C207.693 55.6326 207.321 53.6571 208.759 53.5209C210.197 53.3846 212.952 54.698 212.612 55.8681C212.272 57.0381 210.477 56.4494 210.581 55.8734" stroke="#FF79A0" stroke-width="0.68" stroke-linecap="round" stroke-linejoin="round"/>
<path d="M198.02 73.5024C191.069 76.5871 186.286 73.0921 185.82 69.4473C185.518 67.0601 186.023 61.6162 186.436 55.9532C186.649 52.9902 186.845 49.958 186.881 47.2844C186.901 46.8655 186.921 46.4612 186.94 46.0617C187.747 29.1887 200.964 33.7417 201.74 40.3258C202.231 44.5039 202.894 52.8109 203.202 57.1903C203.511 61.5696 204.991 70.4186 198.02 73.5024Z" fill="#FFE1D3"/>
<path d="M186.435 55.9527C186.648 52.9897 186.844 49.9575 186.88 47.2839C186.9 46.865 186.92 46.4607 186.939 46.0612C190.279 46.0649 195.565 46.1617 195.565 46.1617C196.223 52.7889 192.119 56.8497 186.435 55.9527Z" fill="#FACCBA"/>
<path d="M158.853 129.861C159.423 130.792 164.035 127.668 165.405 125.781L161.169 119.563C161.169 119.563 157.221 127.161 158.853 129.861Z" fill="#A7CAF0"/>
<path d="M170.611 114.285C175.792 122.73 178.251 125.436 178.489 128.86C178.726 132.284 176.837 140.664 172.833 141.902C168.829 143.141 160.033 136.72 159.754 135.335C159.475 133.95 163.757 134.755 165.728 135.782C165.728 135.782 162.116 130.629 162.383 125.062C162.451 123.635 157.256 120.579 157.256 120.579C157.256 120.579 162.278 108.052 170.611 114.285Z" fill="#FFE1D3"/>
<path d="M160.55 94.3828L163.387 99.7132L171.828 115.574" stroke="#83ADDF" stroke-width="0.68" stroke-linecap="round" stroke-linejoin="round"/>
<path d="M223.546 121.914C222.216 122.109 214.86 121.986 206.492 121.683C193.822 121.204 178.84 120.238 178.894 119.112C178.978 117.349 179.857 115.741 177.753 111.769C175.648 107.796 172.003 104.6 172 97.5549C171.997 90.5099 174.084 82.7691 174.084 82.7691L170.329 86.0068L160.551 94.3803L163.388 99.7107L171.828 115.572C171.828 115.572 159.232 119.607 158.852 129.86C158.852 129.86 142.868 108.776 138.16 101.594C133.452 94.4112 139.556 86.7504 148.082 78.9858C152.329 75.1076 157.044 69.836 161.713 65.4312C166.382 61.0264 171.044 57.5001 175.199 57.1278C177.55 56.9181 180.8 56.7954 184.296 56.7382C184.977 56.7219 185.663 56.7108 186.359 56.7051C185.842 63.5788 187.848 64.949 187.848 64.949C188.834 65.5723 188.953 65.3095 188.989 66.4683C189.025 67.6271 189.425 70.927 190.403 70.9738C191.755 71.0386 192.729 68.9468 194.021 65.9134C194.953 62.2573 199.763 61.0425 201.389 59.1088C201.954 58.4121 202.364 57.6109 202.593 56.7547L203.156 56.7816C204.032 57.0335 205.09 57.3233 206.249 57.6083C209.26 58.348 212.967 59.0723 216.003 59.0809C220.028 59.0978 231.779 59.8897 234.852 68.9857C234.852 68.9857 234.851 69.0101 234.851 69.0247C234.979 69.4117 235.092 69.8174 235.194 70.2373C235.269 70.568 235.333 70.9323 235.385 71.3254C236.903 83.0956 226.793 121.425 223.546 121.914Z" fill="#7BB7FA"/>
<path d="M213.66 90.8434C206.659 92.8371 204.378 101.897 205.762 105.654C207.146 109.411 201.735 110.958 196.655 110.715C190.804 110.435 183.565 116.02 186.139 124.629L216.655 112.908L213.66 90.8434Z" fill="#649CD8"/>
<path d="M235.619 71.4235C235.55 71.386 235.47 71.3578 235.401 71.3251C229.263 68.6489 221.872 69.7988 216.928 73.3702C215.674 74.2616 214.574 75.3374 213.668 76.5585C207.557 84.9024 189.005 88.7305 183.528 77.1467C179.093 67.7561 171.946 64.5384 161.713 65.4351C166.392 61.0308 171.044 57.504 175.199 57.1317C177.55 56.922 180.8 56.7993 184.296 56.742C184.977 56.7258 185.663 56.7147 186.359 56.709C185.842 63.5827 187.848 64.9529 187.848 64.9529C188.834 65.5762 188.953 65.3134 188.989 66.4722C189.025 67.6309 189.425 70.9309 190.403 70.9777C191.755 71.0424 192.729 68.9507 194.021 65.9173C194.953 62.2612 199.763 61.0463 201.389 59.1127C201.954 58.416 202.364 57.6148 202.593 56.7586L203.156 56.7855C204.032 57.0374 205.09 57.3272 206.249 57.6122C209.26 58.3519 212.967 59.0762 216.003 59.0848C220.028 59.1017 231.779 59.8936 234.852 68.9896C234.852 68.9896 234.851 69.014 234.85 69.0286C235.163 69.8095 235.42 70.6096 235.619 71.4235Z" fill="#A4D0F5"/>
<path d="M191.908 74.3016C192.493 74.3296 192.989 73.8965 193.016 73.3342C193.043 72.772 192.591 72.2935 192.006 72.2655C191.421 72.2375 190.925 72.6706 190.899 73.2329C190.872 73.7951 191.324 74.2736 191.908 74.3016Z" fill="#83ADDF"/>
<path d="M189.736 72.7018C189.919 75.4543 188.806 80.2442 187.899 85.0975C186.991 89.9508 185.064 96.5959 187.013 103.607C188.962 110.618 189.372 112.762 189.393 113.607C189.422 115.108 188.155 116.761 191.047 118.08" stroke="#83ADDF" stroke-width="0.68" stroke-linecap="round" stroke-linejoin="round"/>
<path d="M187.848 64.948C185.063 64.1702 182.899 67.3767 181.691 70.1164C181.971 62.045 183.161 58.3867 184.296 56.7371C185.431 55.0876 186.475 55.4598 186.475 55.4598C186.423 55.8967 186.388 56.31 186.359 56.7041C185.843 63.5631 187.848 64.948 187.848 64.948Z" fill="#4588D7"/>
<path d="M206.127 60.7851C205.157 65.3426 201.86 71.5315 201.86 71.5315C201.86 71.5315 199.603 68.8262 198.025 66.7881C196.448 64.7499 195.465 65.0251 194.005 65.9219C194.937 62.2658 199.747 61.051 201.373 59.1173C201.938 58.4206 202.348 57.6194 202.577 56.7632C202.815 55.9557 202.944 55.1218 202.96 54.2819C203.792 54.4488 204.553 54.8571 205.138 55.4517C205.723 56.0463 206.105 56.7986 206.233 57.6071C206.408 58.664 206.372 59.7427 206.127 60.7851Z" fill="#4588D7"/>
<path d="M156.905 122.904C157.601 120.037 161.678 115.165 167.889 112.796" stroke="#83ADDF" stroke-width="0.68" stroke-linecap="round" stroke-linejoin="round"/>
<path d="M153.007 87.4648C153.898 87.5577 154.749 87.8727 155.476 88.3788C156.955 89.304 158.733 91.0832 160.55 94.3826" stroke="#83ADDF" stroke-width="0.68" stroke-linecap="round" stroke-linejoin="round"/>
<path d="M174.084 82.7702L175.169 79.0825" stroke="#83ADDF" stroke-width="0.68" stroke-linecap="round" stroke-linejoin="round"/>
<path d="M170.33 85.9921L160.551 94.3803C158.734 91.0808 156.936 89.3007 155.477 88.3765C157.953 87.4453 159.103 88.4573 160.239 89.3465C163.047 91.5607 166.181 83.4794 170.33 85.9921Z" fill="#649CD8"/>
<path d="M234.575 102.366C233.069 111.023 230.941 119.324 228.882 124.996C224.912 135.917 216.245 136.137 210.837 132.334C207.703 130.124 205.66 126.564 206.27 122.947C206.327 122.588 206.403 122.167 206.493 121.683C207.863 114.269 212.3 92.5316 214.937 80.1791C215.409 77.8548 216.076 75.5716 216.929 73.3516C219.957 65.6851 224.51 63.4864 229.945 64.2885C232.193 64.6207 233.787 66.3178 234.853 68.971C234.853 68.971 234.852 68.9954 234.852 69.01C235.159 69.7926 235.411 70.5941 235.605 71.409C237.453 78.8402 236.561 90.8905 234.575 102.366Z" fill="#7BB7FA"/>
<path d="M234.574 102.366C233.068 111.023 230.94 119.323 228.881 124.995C224.911 135.917 216.244 136.137 210.836 132.334C211.928 131.416 213.267 130.813 214.702 130.595C221.053 129.757 225.028 125.294 224.563 115.508C224.187 108.079 231.174 103.936 234.574 102.366Z" fill="#649CD8"/>
<path d="M235.619 71.4226C235.55 71.3851 235.47 71.3568 235.4 71.3242C229.263 68.648 221.872 69.7979 216.928 73.3693C219.955 65.7028 224.508 63.5041 229.943 64.3061C232.192 64.6383 233.786 66.3355 234.852 68.9887C234.852 68.9887 234.851 69.0131 234.85 69.0277C235.162 69.8085 235.419 70.6087 235.619 71.4226Z" fill="#A4D0F5"/>
<path d="M208.512 111.284C210.448 101.612 213.148 88.6818 214.936 80.1797C215.408 77.8554 216.074 75.5721 216.928 73.3522C217.566 71.6691 218.421 70.0699 219.471 68.5918" stroke="#83ADDF" stroke-width="0.68" stroke-linecap="round" stroke-linejoin="round"/>
<path d="M163.695 149.523C161.007 149.883 158.49 145.93 157.711 143.534C156.932 141.139 164.1 140.423 164.1 140.423C164.1 140.423 166.067 147.806 163.695 149.523Z" fill="#A7CAF0"/>
<path d="M157.921 132.14C152.634 133.562 140.146 138.813 139.469 139.268C138.793 139.724 136.643 143.898 136.542 144.538C136.44 145.177 135.326 151.803 136.602 152.293C137.878 152.784 138.664 150.049 139.035 148.348C139.371 147.087 139.867 145.871 140.513 144.728C140.513 144.728 139.594 147.384 140.701 148.428C141.343 149.035 142.864 148.531 142.864 148.531C142.864 148.531 143.145 150.307 145.571 149.588C145.571 149.588 145.34 151.447 146.892 151.888C148.445 152.328 149.995 150.713 150.666 149.749C150.905 149.424 150.389 148.413 149.66 148.378C149.66 148.378 150.328 148.005 152.278 148.098C154.228 148.192 156.548 148.41 158.141 146.314C159.734 144.217 161.465 143.265 162.87 142.986L157.921 132.14Z" fill="#FFE1D3"/>
<path d="M136.542 144.54C136.435 145.184 135.326 151.805 136.602 152.296C137.878 152.787 138.664 150.051 139.035 148.35C139.371 147.089 139.867 145.873 140.513 144.73C140.513 144.73 139.594 147.386 140.701 148.43C141.343 149.037 142.864 148.534 142.864 148.534C142.864 148.534 143.145 150.31 145.571 149.591C145.571 149.591 145.34 151.45 146.892 151.89C148.445 152.331 149.995 150.716 150.666 149.752C150.905 149.426 150.389 148.415 149.66 148.38" stroke="#EF8A66" stroke-width="0.68" stroke-linecap="round" stroke-linejoin="round"/>
<path d="M149.947 148.441C149.553 148.366 149.148 148.373 148.758 148.462" stroke="#EF8A66" stroke-width="0.68" stroke-linecap="round" stroke-linejoin="round"/>
<path d="M149.186 147.246C148.75 148.201 148.192 149.669 148.364 150.106" stroke="#EF8A66" stroke-width="0.68" stroke-linecap="round" stroke-linejoin="round"/>
<path d="M145.559 149.954C145.618 147.97 146.237 146.04 147.349 144.372" stroke="#EF8A66" stroke-width="0.68" stroke-linecap="round" stroke-linejoin="round"/>
<path d="M142.865 148.53C142.555 147.051 143.903 143.39 144.892 142.354" stroke="#EF8A66" stroke-width="0.68" stroke-linecap="round" stroke-linejoin="round"/>
<path d="M140.508 144.726C140.702 143.759 141.037 141.105 142.61 139.945" stroke="#EF8A66" stroke-width="0.68" stroke-linecap="round" stroke-linejoin="round"/>
<path d="M220.766 134.076C218.457 135.108 212.958 136.807 206.236 138.712C189.01 143.585 163.748 149.791 163.695 149.525C163.621 149.156 161.892 139.455 154.691 132.7C154.691 132.7 190.288 118.361 201.687 113.883C208.533 111.194 219.031 106.57 224.319 111.7C224.514 111.885 224.697 112.08 224.87 112.278C230.534 118.589 228.73 130.508 220.766 134.076Z" fill="#7BB7FA"/>
<path d="M220.765 134.076C218.457 135.108 212.958 136.808 206.236 138.712C207.546 135.845 210.324 131.174 214.702 130.598C221.053 129.76 225.029 125.297 224.563 115.511C224.508 114.424 224.616 113.335 224.886 112.279C230.534 118.589 228.73 130.508 220.765 134.076Z" fill="#649CD8"/>
<path d="M154.691 132.698C154.691 132.698 190.288 118.359 201.688 113.881C204.958 112.597 209.062 110.87 213.044 109.977" stroke="#83ADDF" stroke-width="0.68" stroke-linecap="round" stroke-linejoin="round"/>
<path d="M162.055 131.918C166.027 137.083 169.088 146.095 169.088 146.095" stroke="#83ADDF" stroke-width="0.68" stroke-linecap="round" stroke-linejoin="round"/>
<path d="M205.09 27.0994C208.176 28.7117 210.479 35.2224 204.703 38.8956C198.927 42.5688 201.925 33.28 202.071 33.1063C202.216 32.9327 202.668 27.2032 205.09 27.0994Z" fill="#FED81D"/>
<path d="M204.898 35.2262C204.639 35.6539 204.293 36.0273 203.881 36.3249C203.881 36.3249 197.683 40.0071 194.041 37.7091C190.399 35.411 186.056 30.1648 186.056 30.1648C184.427 28.876 183.55 27.8869 183.266 26.8139C183.13 26.2614 183.128 25.6866 183.26 25.1342C183.659 23.2688 185.937 19.1597 192.473 21.0348C192.473 21.0348 193.701 19.6778 196.046 20.6444C198.391 21.611 200.348 24.2141 200.348 24.2141C200.348 24.2141 202.711 23.5314 205.084 27.0967C206.955 29.9104 206.114 33.3804 204.898 35.2262Z" fill="#DD6819"/>
<path d="M204.898 35.2281C204.638 35.6558 204.292 36.0292 203.881 36.3268C203.881 36.3268 197.683 40.009 194.041 37.711C190.399 35.4129 186.055 30.1667 186.055 30.1667C184.426 28.8779 183.549 27.8888 183.266 26.8158C183.716 23.7665 185.29 21.6449 188.341 22.7088C192.666 24.2193 194.672 26.6539 199.092 25.7377C199.092 25.7377 199.8 34.0809 204.898 35.2281Z" fill="#CC5E0D"/>
<path d="M185.567 24.2409C186.397 23.4507 188.012 23.5621 190.298 26.0784" stroke="#FF79A0" stroke-width="0.68" stroke-linecap="round" stroke-linejoin="round"/>
<path d="M191.068 20.709C192.857 21.1581 194.529 21.9633 195.976 23.0725" stroke="#FF79A0" stroke-width="0.68" stroke-linecap="round" stroke-linejoin="round"/>
<path d="M200.353 24.2246C200.735 24.7269 201.05 25.2735 201.29 25.8513" stroke="#FF79A0" stroke-width="0.68" stroke-linecap="round" stroke-linejoin="round"/>
<path d="M200.759 42.1575C195.079 49.1209 188.002 52.7269 184.004 49.1669C181.052 46.5504 181.267 41.6346 182.181 37.7092C182.446 36.5671 182.783 35.4419 183.19 34.34C183.225 34.244 183.265 34.1532 183.3 34.0621C184.789 30.2276 186.993 24.4746 190.035 25.8359C190.035 25.8359 192.357 28.0365 196.989 27.3599C196.989 27.3599 194.237 35.5278 199.525 36.7574C199.525 36.7574 202.02 33.9475 204.656 35.6311C207.292 37.3146 207.079 42.3965 200.759 42.1575Z" fill="#FFE1D3"/>
<path d="M190.085 33.0639C190.078 33.1874 190.11 33.3102 190.175 33.4167C190.241 33.5233 190.338 33.6088 190.454 33.6624C190.57 33.716 190.7 33.7353 190.827 33.7178C190.955 33.7004 191.073 33.6469 191.169 33.5643C191.264 33.4817 191.332 33.3735 191.363 33.2537C191.394 33.1338 191.388 33.0076 191.344 32.8911C191.301 32.7745 191.222 32.6729 191.119 32.599C191.015 32.5252 190.892 32.4825 190.763 32.4763C190.592 32.4682 190.425 32.5253 190.298 32.6354C190.171 32.7454 190.094 32.8995 190.085 33.0639Z" fill="#683F1D"/>
<path d="M185.648 32.851C185.641 32.9745 185.673 33.0973 185.738 33.2039C185.804 33.3104 185.901 33.3959 186.017 33.4495C186.133 33.5031 186.263 33.5224 186.39 33.5049C186.518 33.4875 186.636 33.434 186.732 33.3514C186.827 33.2688 186.895 33.1607 186.926 33.0408C186.957 32.9209 186.951 32.7947 186.907 32.6782C186.864 32.5616 186.785 32.46 186.682 32.3861C186.578 32.3123 186.455 32.2696 186.326 32.2635C186.155 32.2553 185.988 32.3124 185.861 32.4225C185.734 32.5326 185.657 32.6866 185.648 32.851Z" fill="#683F1D"/>
<path d="M199.494 36.7741C198.981 37.2783 198.621 37.9073 198.452 38.5941" stroke="#EF8A66" stroke-width="0.68" stroke-linecap="round" stroke-linejoin="round"/>
<path d="M200.101 38.9407C201.342 36.559 203.77 36.5288 205.111 37.6817" stroke="#EF8A66" stroke-width="0.68" stroke-linecap="round" stroke-linejoin="round"/>
<path d="M200.717 38.0299C202.936 36.7545 204.024 40.434 201.208 40.2992" stroke="#EF8A66" stroke-width="0.68" stroke-linecap="round" stroke-linejoin="round"/>
<path d="M184.445 30.0699C184.588 30.5943 188.062 30.4627 188.036 29.2947C187.98 27.7248 184.178 29.0758 184.445 30.0699Z" fill="#DD6819"/>
<path d="M190.634 29.3343C190.472 30.3763 193.772 31.4374 194.113 30.902C194.453 30.3666 190.937 27.3569 190.634 29.3343Z" fill="#DD6819"/>
<path d="M186.004 36.3254C185.949 35.3464 186.539 34.2761 187.28 34.0626C188.021 33.8491 189.183 33.2261 189.051 30.6859" stroke="#EF8A66" stroke-width="0.68" stroke-linecap="round" stroke-linejoin="round"/>
<path d="M186.687 38.2927C187.984 38.3547 190.051 37.5065 190.393 37.1372C190.393 37.1372 190.402 40.1401 188.629 40.2701C187.136 40.3841 186.687 38.2927 186.687 38.2927Z" fill="white" stroke="#EF8A66" stroke-width="0.68" stroke-linecap="round" stroke-linejoin="round"/>
<path d="M201.12 43.8412C202.236 43.8946 203.183 43.0678 203.234 41.9944C203.285 40.9211 202.422 40.0076 201.306 39.9542C200.19 39.9007 199.243 40.7276 199.192 41.8009C199.14 42.8743 200.004 43.7878 201.12 43.8412Z" fill="white"/>
<path d="M197.127 35.8265C197.455 36.7209 196.558 37.84 195.113 38.3274C193.668 38.8148 192.237 38.4875 191.904 37.5928C191.571 36.6981 192.473 35.5744 193.918 35.087C195.363 34.5996 196.794 34.9317 197.127 35.8265Z" fill="#F2BBA5"/>
<path d="M184.776 37.3822C184.339 38.035 183.262 38.1543 182.169 37.7456C182.434 36.6035 182.771 35.4783 183.178 34.3764L183.406 34.5094C184.698 35.2938 185.312 36.5876 184.776 37.3822Z" fill="#F2BBA5"/>
<path d="M44.2885 -35V15.6745C44.0662 15.8282 43.8851 16.0298 43.7602 16.2628C43.6352 16.4958 43.5698 16.7536 43.5693 17.0152V18.3973C43.5698 18.659 43.6352 18.9168 43.7602 19.1497C43.8851 19.3827 44.0662 19.5843 44.2885 19.738V21.7054H46.3325V19.738C46.5556 19.5847 46.7375 19.3834 46.8632 19.1504C46.989 18.9174 47.055 18.6593 47.056 18.3973V17.0152C47.055 16.7532 46.989 16.4952 46.8632 16.2622C46.7375 16.0292 46.5556 15.8278 46.3325 15.6745V-35" fill="#EDEDED"/>
<path d="M44.2885 -35V15.6745C44.0662 15.8282 43.8851 16.0298 43.7602 16.2628C43.6352 16.4958 43.5698 16.7536 43.5693 17.0152V18.3973C43.5698 18.659 43.6352 18.9168 43.7602 19.1497C43.8851 19.3827 44.0662 19.5843 44.2885 19.738V21.7054H46.3325V19.738C46.5556 19.5847 46.7375 19.3834 46.8632 19.1504C46.989 18.9174 47.055 18.6593 47.056 18.3973V17.0152C47.055 16.7532 46.989 16.4952 46.8632 16.2622C46.7375 16.0292 46.5556 15.8278 46.3325 15.6745V-35" fill="#EDEDED"/>
<path d="M44.2885 -35V15.6745C44.0662 15.8282 43.8851 16.0298 43.7602 16.2628C43.6352 16.4958 43.5698 16.7536 43.5693 17.0152V18.3973C43.5698 18.659 43.6352 18.9168 43.7602 19.1497C43.8851 19.3827 44.0662 19.5843 44.2885 19.738V21.7054H46.3325V19.738C46.5556 19.5847 46.7375 19.3834 46.8632 19.1504C46.989 18.9174 47.055 18.6593 47.056 18.3973V17.0152C47.055 16.7532 46.989 16.4952 46.8632 16.2622C46.7375 16.0292 46.5556 15.8278 46.3325 15.6745V-35" fill="#EDEDED"/>
<path d="M44.2885 -35V15.6745C44.0662 15.8282 43.8851 16.0298 43.7602 16.2628C43.6352 16.4958 43.5698 16.7536 43.5693 17.0152V18.3973C43.5698 18.659 43.6352 18.9168 43.7602 19.1497C43.8851 19.3827 44.0662 19.5843 44.2885 19.738V21.7054H46.3325V19.738C46.5556 19.5847 46.7375 19.3834 46.8632 19.1504C46.989 18.9174 47.055 18.6593 47.056 18.3973V17.0152C47.055 16.7532 46.989 16.4952 46.8632 16.2622C46.7375 16.0292 46.5556 15.8278 46.3325 15.6745V-35" fill="#EDEDED"/>
<path d="M44.2885 -35V15.6745C44.0662 15.8282 43.8851 16.0298 43.7602 16.2628C43.6352 16.4958 43.5698 16.7536 43.5693 17.0152V18.3973C43.5698 18.659 43.6352 18.9168 43.7602 19.1497C43.8851 19.3827 44.0662 19.5843 44.2885 19.738V21.7054H46.3325V19.738C46.5556 19.5847 46.7375 19.3834 46.8632 19.1504C46.989 18.9174 47.055 18.6593 47.056 18.3973V17.0152C47.055 16.7532 46.989 16.4952 46.8632 16.2622C46.7375 16.0292 46.5556 15.8278 46.3325 15.6745V-35" fill="#EDEDED"/>
<path d="M44.2885 -35V15.6745C44.0662 15.8282 43.8851 16.0298 43.7602 16.2628C43.6352 16.4958 43.5698 16.7536 43.5693 17.0152V18.3973C43.5698 18.659 43.6352 18.9168 43.7602 19.1497C43.8851 19.3827 44.0662 19.5843 44.2885 19.738V21.7054H46.3325V19.738C46.5556 19.5847 46.7375 19.3834 46.8632 19.1504C46.989 18.9174 47.055 18.6593 47.056 18.3973V17.0152C47.055 16.7532 46.989 16.4952 46.8632 16.2622C46.7375 16.0292 46.5556 15.8278 46.3325 15.6745V-35" fill="#EDEDED"/>
<path d="M44.2885 -35V15.6745C44.0662 15.8282 43.8851 16.0298 43.7602 16.2628C43.6352 16.4958 43.5698 16.7536 43.5693 17.0152V18.3973C43.5698 18.659 43.6352 18.9168 43.7602 19.1497C43.8851 19.3827 44.0662 19.5843 44.2885 19.738V21.7054H46.3325V19.738C46.5556 19.5847 46.7375 19.3834 46.8632 19.1504C46.989 18.9174 47.055 18.6593 47.056 18.3973V17.0152C47.055 16.7532 46.989 16.4952 46.8632 16.2622C46.7375 16.0292 46.5556 15.8278 46.3325 15.6745V-35" stroke="#DDDDDD" stroke-width="2" stroke-linecap="round" stroke-linejoin="round"/>
<path d="M132.667 -35V15.6745C132.444 15.8278 132.262 16.0292 132.137 16.2622C132.011 16.4952 131.945 16.7532 131.944 17.0152V18.3973C131.945 18.6593 132.011 18.9174 132.137 19.1504C132.262 19.3834 132.444 19.5847 132.667 19.738V21.7054H134.711V19.738C134.934 19.5843 135.115 19.3827 135.24 19.1497C135.365 18.9168 135.43 18.659 135.431 18.3973V17.0152C135.43 16.7536 135.365 16.4958 135.24 16.2628C135.115 16.0298 134.934 15.8282 134.711 15.6745V-35" fill="#EDEDED"/>
<path d="M132.667 -35V15.6745C132.444 15.8278 132.262 16.0292 132.137 16.2622C132.011 16.4952 131.945 16.7532 131.944 17.0152V18.3973C131.945 18.6593 132.011 18.9174 132.137 19.1504C132.262 19.3834 132.444 19.5847 132.667 19.738V21.7054H134.711V19.738C134.934 19.5843 135.115 19.3827 135.24 19.1497C135.365 18.9168 135.43 18.659 135.431 18.3973V17.0152C135.43 16.7536 135.365 16.4958 135.24 16.2628C135.115 16.0298 134.934 15.8282 134.711 15.6745V-35" fill="#EDEDED"/>
<path d="M132.667 -35V15.6745C132.444 15.8278 132.262 16.0292 132.137 16.2622C132.011 16.4952 131.945 16.7532 131.944 17.0152V18.3973C131.945 18.6593 132.011 18.9174 132.137 19.1504C132.262 19.3834 132.444 19.5847 132.667 19.738V21.7054H134.711V19.738C134.934 19.5843 135.115 19.3827 135.24 19.1497C135.365 18.9168 135.43 18.659 135.431 18.3973V17.0152C135.43 16.7536 135.365 16.4958 135.24 16.2628C135.115 16.0298 134.934 15.8282 134.711 15.6745V-35" fill="#EDEDED"/>
<path d="M132.667 -35V15.6745C132.444 15.8278 132.262 16.0292 132.137 16.2622C132.011 16.4952 131.945 16.7532 131.944 17.0152V18.3973C131.945 18.6593 132.011 18.9174 132.137 19.1504C132.262 19.3834 132.444 19.5847 132.667 19.738V21.7054H134.711V19.738C134.934 19.5843 135.115 19.3827 135.24 19.1497C135.365 18.9168 135.43 18.659 135.431 18.3973V17.0152C135.43 16.7536 135.365 16.4958 135.24 16.2628C135.115 16.0298 134.934 15.8282 134.711 15.6745V-35" fill="#EDEDED"/>
<path d="M132.667 -35V15.6745C132.444 15.8278 132.262 16.0292 132.137 16.2622C132.011 16.4952 131.945 16.7532 131.944 17.0152V18.3973C131.945 18.6593 132.011 18.9174 132.137 19.1504C132.262 19.3834 132.444 19.5847 132.667 19.738V21.7054H134.711V19.738C134.934 19.5843 135.115 19.3827 135.24 19.1497C135.365 18.9168 135.43 18.659 135.431 18.3973V17.0152C135.43 16.7536 135.365 16.4958 135.24 16.2628C135.115 16.0298 134.934 15.8282 134.711 15.6745V-35" fill="#EDEDED"/>
<path d="M132.667 -35V15.6745C132.444 15.8278 132.262 16.0292 132.137 16.2622C132.011 16.4952 131.945 16.7532 131.944 17.0152V18.3973C131.945 18.6593 132.011 18.9174 132.137 19.1504C132.262 19.3834 132.444 19.5847 132.667 19.738V21.7054H134.711V19.738C134.934 19.5843 135.115 19.3827 135.24 19.1497C135.365 18.9168 135.43 18.659 135.431 18.3973V17.0152C135.43 16.7536 135.365 16.4958 135.24 16.2628C135.115 16.0298 134.934 15.8282 134.711 15.6745V-35" fill="#EDEDED"/>
<path d="M132.667 -35V15.6745C132.444 15.8278 132.262 16.0292 132.137 16.2622C132.011 16.4952 131.945 16.7532 131.944 17.0152V18.3973C131.945 18.6593 132.011 18.9174 132.137 19.1504C132.262 19.3834 132.444 19.5847 132.667 19.738V21.7054H134.711V19.738C134.934 19.5843 135.115 19.3827 135.24 19.1497C135.365 18.9168 135.43 18.659 135.431 18.3973V17.0152C135.43 16.7536 135.365 16.4958 135.24 16.2628C135.115 16.0298 134.934 15.8282 134.711 15.6745V-35" stroke="#DDDDDD" stroke-width="2" stroke-linecap="round" stroke-linejoin="round"/>
<path d="M139 17.5273H40V23.4046H139V17.5273Z" fill="#EDEDED"/>
<path d="M139 17.5273H40V23.4046H139V17.5273Z" fill="#EDEDED"/>
<path d="M139 17.5273H40V23.4046H139V17.5273Z" fill="#EDEDED"/>
<path d="M139 17.5273H40V23.4046H139V17.5273Z" stroke="#DDDDDD" stroke-width="2" stroke-linecap="round" stroke-linejoin="round"/>
<path d="M139 17.5273H40V23.4046H139V17.5273Z" stroke="#DDDDDD" stroke-width="2" stroke-linecap="round" stroke-linejoin="round"/>
<path d="M139 17.5273H40V23.4046H139V17.5273Z" stroke="#DDDDDD" stroke-width="2" stroke-linecap="round" stroke-linejoin="round"/>
<path d="M134.751 23.4043H44.2451C43.4628 23.4043 42.8286 24.0082 42.8286 24.7532V24.8362C42.8286 25.5812 43.4628 26.1852 44.2451 26.1852H134.751C135.533 26.1852 136.167 25.5812 136.167 24.8362V24.7532C136.167 24.0082 135.533 23.4043 134.751 23.4043Z" fill="#F9F9F9"/>
<path d="M134.751 23.4043H44.2451C43.4628 23.4043 42.8286 24.0082 42.8286 24.7532V24.8362C42.8286 25.5812 43.4628 26.1852 44.2451 26.1852H134.751C135.533 26.1852 136.167 25.5812 136.167 24.8362V24.7532C136.167 24.0082 135.533 23.4043 134.751 23.4043Z" fill="#F9F9F9"/>
<path d="M134.751 23.4043H44.2451C43.4628 23.4043 42.8286 24.0082 42.8286 24.7532V24.8362C42.8286 25.5812 43.4628 26.1852 44.2451 26.1852H134.751C135.533 26.1852 136.167 25.5812 136.167 24.8362V24.7532C136.167 24.0082 135.533 23.4043 134.751 23.4043Z" fill="#F9F9F9"/>
<path d="M134.751 23.4043H44.2451C43.4628 23.4043 42.8286 24.0082 42.8286 24.7532V24.8362C42.8286 25.5812 43.4628 26.1852 44.2451 26.1852H134.751C135.533 26.1852 136.167 25.5812 136.167 24.8362V24.7532C136.167 24.0082 135.533 23.4043 134.751 23.4043Z" stroke="#DDDDDD" stroke-linecap="round" stroke-linejoin="round"/>
<path d="M134.751 23.4043H44.2451C43.4628 23.4043 42.8286 24.0082 42.8286 24.7532V24.8362C42.8286 25.5812 43.4628 26.1852 44.2451 26.1852H134.751C135.533 26.1852 136.167 25.5812 136.167 24.8362V24.7532C136.167 24.0082 135.533 23.4043 134.751 23.4043Z" stroke="#DDDDDD" stroke-linecap="round" stroke-linejoin="round"/>
<path d="M134.751 23.4043H44.2451C43.4628 23.4043 42.8286 24.0082 42.8286 24.7532V24.8362C42.8286 25.5812 43.4628 26.1852 44.2451 26.1852H134.751C135.533 26.1852 136.167 25.5812 136.167 24.8362V24.7532C136.167 24.0082 135.533 23.4043 134.751 23.4043Z" stroke="#DDDDDD" stroke-linecap="round" stroke-linejoin="round"/>
</g>
<defs>
<clipPath id="clip0_39850_15286">
<rect width="274" height="160" rx="6" fill="white"/>
</clipPath>
</defs>
</svg>
