<svg width="30" height="30" viewBox="0 0 30 30" fill="none" xmlns="http://www.w3.org/2000/svg">
<path d="M13.5822 16.4221H7.42191C7.02289 16.4221 6.68615 16.2848 6.41169 16.0104C6.13723 15.7359 6 15.3992 6 15.0002C6 14.6012 6.13723 14.2645 6.41169 13.99C6.68615 13.7155 7.02289 13.5783 7.42191 13.5783H13.5822V7.418C13.5822 7.01898 13.7194 6.68224 13.9939 6.40778C14.2684 6.13332 14.6051 5.99609 15.0041 5.99609C15.4031 5.99609 15.7398 6.13332 16.0143 6.40778C16.2887 6.68224 16.426 7.01898 16.426 7.418V13.5783H22.5863C22.9853 13.5783 23.322 13.7155 23.5965 13.99C23.871 14.2645 24.0082 14.6012 24.0082 15.0002C24.0082 15.3992 23.871 15.7359 23.5965 16.0104C23.322 16.2848 22.9853 16.4221 22.5863 16.4221H16.426V22.5824C16.426 22.9814 16.2887 23.3181 16.0143 23.5926C15.7398 23.8671 15.4031 24.0043 15.0041 24.0043C14.6051 24.0043 14.2684 23.8671 13.9939 23.5926C13.7194 23.3181 13.5822 22.9814 13.5822 22.5824V16.4221Z" fill="#2661E8"/>
</svg>
