<svg width="20" height="20" viewBox="0 0 20 20" fill="none" xmlns="http://www.w3.org/2000/svg">
<path d="M4.42316 17.9177C4.00222 17.9177 3.64591 17.7719 3.35425 17.4802C3.06258 17.1886 2.91675 16.8322 2.91675 16.4113V5.25751C2.91675 4.83657 3.06258 4.48026 3.35425 4.18859C3.64591 3.89693 4.00222 3.75109 4.42316 3.75109H5.57702V2.62928C5.57702 2.4466 5.63819 2.29409 5.76052 2.17176C5.88284 2.04944 6.03535 1.98828 6.21804 1.98828C6.40072 1.98828 6.55323 2.04944 6.67556 2.17176C6.79788 2.29409 6.85904 2.4466 6.85904 2.62928V3.75109H13.1731V2.61326C13.1731 2.43591 13.2329 2.28741 13.3526 2.16776C13.4723 2.04811 13.6208 1.98828 13.7981 1.98828C13.9755 1.98828 14.1239 2.04811 14.2436 2.16776C14.3633 2.28741 14.4231 2.43591 14.4231 2.61326V3.75109H15.577C15.9979 3.75109 16.3542 3.89693 16.6459 4.18859C16.9375 4.48026 17.0834 4.83657 17.0834 5.25751V16.4113C17.0834 16.8322 16.9375 17.1886 16.6459 17.4802C16.3542 17.7719 15.9979 17.9177 15.577 17.9177H4.42316ZM4.42316 16.6677H15.577C15.6411 16.6677 15.6998 16.641 15.7533 16.5876C15.8067 16.5342 15.8334 16.4754 15.8334 16.4113V8.59084H4.16673V16.4113C4.16673 16.4754 4.19344 16.5342 4.24685 16.5876C4.30028 16.641 4.35905 16.6677 4.42316 16.6677ZM4.16673 7.34087H15.8334V5.25751C15.8334 5.1934 15.8067 5.13463 15.7533 5.0812C15.6998 5.02778 15.6411 5.00107 15.577 5.00107H4.42316C4.35905 5.00107 4.30028 5.02778 4.24685 5.0812C4.19344 5.13463 4.16673 5.1934 4.16673 5.25751V7.34087Z" fill="#787486"/>
</svg>
